<mxfile host="Electron" modified="2024-04-16T06:48:23.894Z" agent="Mozilla/5.0 (Windows NT 10.0; Win64; x64) AppleWebKit/537.36 (KHTML, like Gecko) draw.io/21.2.8 Chrome/112.0.5615.165 Electron/24.2.0 Safari/537.36" etag="RFZnm0ixevnYyR9i9qNZ" version="21.2.8" type="device">
  <diagram name="Page-1" id="2XWkQP5S-hDbL94sL5Vg">
    <mxGraphModel dx="2058" dy="1180" grid="1" gridSize="10" guides="1" tooltips="1" connect="1" arrows="1" fold="1" page="1" pageScale="1" pageWidth="3300" pageHeight="4681" background="#999999" math="0" shadow="0">
      <root>
        <mxCell id="0" />
        <mxCell id="1" parent="0" />
        <mxCell id="DjtESpJHfdfJX2ykLP7m-1" value="C++" style="rounded=0;whiteSpace=wrap;html=1;fillColor=#dae8fc;strokeColor=#6c8ebf;fontSize=52;" vertex="1" parent="1">
          <mxGeometry x="1180" y="200" width="370" height="400" as="geometry" />
        </mxCell>
        <mxCell id="DjtESpJHfdfJX2ykLP7m-2" value="QML" style="rounded=0;whiteSpace=wrap;html=1;fillColor=#f8cecc;strokeColor=#b85450;fontSize=52;" vertex="1" parent="1">
          <mxGeometry x="1570" y="200" width="370" height="400" as="geometry" />
        </mxCell>
        <mxCell id="DjtESpJHfdfJX2ykLP7m-3" value="QQmlApplicationEngine" style="rounded=0;whiteSpace=wrap;html=1;fontSize=30;fillColor=#dae8fc;strokeColor=#6c8ebf;" vertex="1" parent="1">
          <mxGeometry x="1190" y="40" width="750" height="140" as="geometry" />
        </mxCell>
        <mxCell id="DjtESpJHfdfJX2ykLP7m-4" value="" style="endArrow=classic;html=1;rounded=0;strokeWidth=4;" edge="1" parent="1">
          <mxGeometry width="50" height="50" relative="1" as="geometry">
            <mxPoint x="1140" y="1280" as="sourcePoint" />
            <mxPoint x="1220" y="1280" as="targetPoint" />
          </mxGeometry>
        </mxCell>
        <mxCell id="DjtESpJHfdfJX2ykLP7m-5" value="C++" style="rounded=0;whiteSpace=wrap;html=1;fillColor=#dae8fc;strokeColor=#6c8ebf;fontSize=52;" vertex="1" parent="1">
          <mxGeometry x="1270" y="1020" width="370" height="400" as="geometry" />
        </mxCell>
        <mxCell id="DjtESpJHfdfJX2ykLP7m-6" value="" style="shape=image;verticalLabelPosition=bottom;labelBackgroundColor=default;verticalAlign=top;aspect=fixed;imageAspect=0;image=data:image/png,iVBORw0KGgoAAAANSUhEUgAAAlYAAAGSCAYAAAAhNI8gAAAAAXNSR0IArs4c6QAAAARnQU1BAACxjwv8YQUAAAAJcEhZcwAADsMAAA7DAcdvqGQAAF1HSURBVHhe7d1/UFRXgjf8r0IeA8z4q2GCGLA1CuKWUfExcZYSR9fMVCZxoZKVgv1jSveNqQlVG32ctYpMmcpMxWfCW9mxXJ96cSpmV9+tehcKN/PAuk4qE0dLfJgxyYAaZ4IQs7YQ0Yw0EHeAuIP6nnPvud33dt/bNM1t6Ibvp6qrb5/u0/dHE+8355x77oxvbd7yAAmgz9+rloiIiIiS00z1TERERETjxGBFRERE5BIGKyIiIiKXMFgRERERuYTBioiIiMglDFZERERELmGwIiIiInJJUgarh1/6KR45/C/wvLRBlRC5LROVb1Sh/lgVDmzLV2Xu8W6rVN+dqUqIiGgqSL5glVuBjMcXaIupjyxEqrZEqWUybP4AD6vX8eItXo+9b+ihQH9UYq8IHl71vjMVVN5YH8Vng2Jf3zgtWop1+p8Zcp55DCX6IhERUUTJF6y6z+PuF3LhJr66eB4jWuF058XDq0UK+OJGXI9Hya5K1OwswtoF81SJNA9rn9mCmjeedj18TPT6LK5fxUc39cWek5+hWV9McpnaMT0QCKky6IqgWhzfVjPvonxUivVq69sVTevf5GwnEZEbeEubKWED5hx+CQ9/fBhfHD6nytwlu65qnpEBpx+tJ9/H8eO98Mk3xElz7/e3iPAjlm+2ofqV83p5GNliVY5SRPpM0PjXl9iM/es52YA9Yt/iznzc7Fw4hYp/6FQv3FGyqwpVa9QLw2jrmYTtJCJyEwevTwVPPqF1AX7VFp9QBeRjmxZygNYjdXjTCDnS9U68+coptMrlBUXYVqyV2piPR51OlmHcWB8FLFqPAz+WYUWG1FOo3l6LCvWoPnINPfIza7Zgr8vHsqvxFGqPqMfJflUawSRtJxGRmxK/xerJH+CR7WvVC5Mv/g3+H9U7dH158bUf/QQZXxzGF/8OfO3ZMn1c1hetGPzHn+KP2BBe1q2qmusePofUJyuQ8fRf4uFH9HdH1Oe/Cnw+RK4XDz/7t9p3B8Z/yTrvvoM/fuDctiLHSHm+Awz+5Af6tuRuwJz/q0ysV6UR8R1fBtYr3vuR6b2IRL2XRD31KibFT6N+5+LILUTGZ8wtCqLswLOLkRPNZobUi2l92om5CDmO9VSrmThxN71Wh7rrqjhQrl6GiK5VKRPe4nV4+dm5Yn+Nrst+9FxoxSGxfaHbMlqLlewKq1ojvkfsX7VN/bHybnsa3/zwXdM+m9gdS7dFuY5J304ionFK+Bar1AU5aslqJOL4qlykaEHoCcz54UuBwe54ZC1mPfsDeELKMp41XV2Yux6zRN0RLMTXRCDxbA+GKilVfH7OD3+Kr+WqApNUEQI9P/wJ5phDlSTXsf0n8JQ5D7lOXSC3pwcjIjhpA9HFNlqCk9wGI8zlLhTb4ZACQrkw7sqbM1d77mm76nyC/1yECPm8xjrQO6pQFWI865sUsvtKBLMacdIPhippHnLWbEHNsUpULlJFUZChy81QJfmOO4QVyTiWCSBZtpOIyEnCB6uRxh/gi5f+Ovg4pnUCYeRmhNONDB7y+fG12rgjv6leqihLDSmzyNHrpj7+lyJ8AV8d+6H+Wfn4yWF8pQ2cX2ANY5IMVdvFd4vFEeP7tYeo/55a93f+1jaQiVOpCEriSYYg+T3fWaB/x0+C3/HlsXeCrU7d9abvF9sky2QLXqDM9HBs1YteXo4eFm72RGi1ud4Hfaz3XCw0QkTLu4GunIrtqvtOtiaZungCD1MLRMzri1kv6l4J36bqaLqvIEKV1n0lFm9eQ9ORBtN3NKD2pOzCmodHH9U/PZrA2DJ5nFwKVaN6VARA8dTT06e/TlTJsp1ENK0l3RgrvQXrJu5F+l9XFY60sHH4nB4selTLjblMGbkZ7NcLtJBpQeUH+PIDX/Cz3efw5T/+m/7aMtXDBsxR3ZVfHfvrkO8X9Rt/KsKVjAELMGutXauV0cK2TnxPjh7m5HcENsuHr5y6EY0QGbcrAjOxMFs+9+Pzz7UCB334XF1FNz4Tvb7x8W5bC+2X17of30VdizkM9qL5+LvY81oD3mxRRRFYQtWEDcrPROWzi8XzNTROxCD6mCXLdhLRdJdkwcqYVuAj5zFOghGOvnrX1Fqjwpa5zPicufVL75K7icF/dGjp6Q4PMKllZdrg8ZH3fiiCmF4WaqT1I61e6gKbJisjHD2yACPH9DAXNWO/4jZwnZxl4ptFsnWtH00/ixCEro8eBIKh6hpqJ/BKx5Jd+tiy1iPvJvSUEsmynURESRasVMvOKK0zRjgyt2o9XCTbFaxl+udacTcQhlSXHPSxTtEy1ne3NcbToQpHkYKZE7v9clcvbtySz6N1Z43lqr9IJnp942FswwBuOI0LioK3+Gk9VGn60aWW4k0fyyX+2i+ciqpFbbIky3YSEUnJFayimlZgA2Y9Lp/N4cguMKnPWUKaCm4ff+h8FV1Y11uUYcwIT6ZuR4MRjsYezGILgmPV1aOPNVqQE2GCxkXzoeec8YUMaaLXN6mKntIGvcvuP21KggVFqIlqEs3xCbSQibCyJ4GvsEuW7SQiMiRVsIpqfJURfCzhyCYw2Y1NUsHNLvwYHn72L7V6Y+t68+JrT+tjsMIH3Y8nHEURBF3g6xnQnnOKloqtted9YrE2sBgXRpmlfME85KlFJ66ub0LEPoA+R15FqMZUNR+vQ+0FURjXuZr0Wc1lWJEtQIk7bUGybCcRkVWSBSvZRhFDy5BdYLL5nN2YK4snf4A5WmuYufvQhxHtSsG1mPWkVhAmtexvkSED0Bf/hsGwrr7oujdtGeEw3lo+G2VCTtOEnr8d7QQYRQiJdX3GlYIO4c277SnHuapi04kPZBDCPJR+P8I9EBdlOr8XMlC9+R/0qyfX7hzbFA3R0efrklM5aPNnjTWsLJL3bdRvMRPfm0ePczuJiCZREgUro2VnLTJM80GlPrkBD5vGg9sPSI+2TD/rPrz9X+Ap22AKLV48/NJPAxOVfnXMOuHmV236dAoPb/8p5jxpOoXmbtDnwvqO/F6HAfF2LWdj9XgZvmZab6q23gotTLqjE8fV1APyhL9XnFQDa9PmcNoSuDLuuOMYGGsIKTGHBhE8Siz3gYt1fcaVgotRtct0o2bx/fJedcFxTO5pbmwTUV+QXXhvPI1Ky37ISUOfxoEflzt274XP1dWJN49cE8+jhLWxUnNtyclRW4/EdhudkjJ530Z9OeeZp+IQ/AQXtpOIaDIl1b0C9dnJw5sc5BQHxqDvh1/6F8x5XIQYYwbzQJl5BnI1u/ojNmUiAI1ggQpx4eQAc3+j9VQo6etQL8JYt8dCzSzv9L2RGfuhXoYwHxc3BGYDt6NdzTbKFVvGzOjqpZWov91aP6b1GbNz25CtH405siUkdOZ1e8b4nlFnXo+4X1L4+kb7bvPYonF3g426fUGR9tV677/Ix9D2PoF2zPvn0nYSEU2mpOoKHGn8X/jyY/PkRTfx1XuHTd1rduOVVJndIHXbskb4f/RDbT3mFqSRj/8NX/7krx3Dz1eHxXvHWlW3oPKFvn1yPizbUCWM2v0YkQ9/FNs6aDkm4rvk7W/EtroZqqTmf6jT79lmWZ28bcspbQ6nUcc6XT+PPa+dQutNvTXK0KNNrPlRWP2Y1tfybngdGcJeq9VOxMbAeFfJ/TImA7Xb1u2jh7hQvuPvo0l+lzbeapzdbmpizfGSrXOtav96Tr4/5n0alUvbSUQ0mZKqxSqucivg+eFfAjG1HE0/rraoRGGi10dERBSL5JpuIY5S165Tg9kZqqLhO96qDzBfswUHzOOZ4mSi10dERBQLtlgpdmOzaBRyYLa88bB6qYtu/FJMJnp9REREY8QWK83ETLQ55bTI++CdQtOFOIxbsjPR6yMiIhojtlhpNmDO4ZfwsLzx8o8c7hFIRERENAoGKyIiIiKXsCuQiIiIyCUMVkREREQuYbAiIiIicgmDFREREZFLGKyIiIiIXMJgRUREROQSBisiIiIilzBYEREREbmEE4QmnEyUbFuHsqLFyFmginANtdvfRbN6RURERIkp4YNVZlkqli5VLxw9wI1/vofuP6iXFjOQ+zcpWIj7+Pif7mNIlSaqkl1VqFqjXgQwWBERESUDdgUmlEwszNaXWo80oGJ7rXowVBERESWDhA9WvY0jOP/3xuMebvTJUtlCZS23b61KUjfbcLyFXaNERETJZlq0WKXNVwtEREREcZRkg9fVeKn5kcZUCStSsGr9jOgC1dV7ON9ocwi+Idb15zMxf6n4HlU03CfW++/30BuyXn0c2ANc/fv7SCubiYWijmxV6/vFPXR+Ir4nrEyrZksbY5XdhupXzsOnyoiIiCg5xNRilZGRgcdXrnR8yPcn23haqdI3pGD990SAM4UqKW3+DCz9XipWbZAhKdxCGfq0ACXNwPz1M0WoCin7bgoy1StHC+YhTy0SERFR8kjxLl7yI7UctT/96U945JFHsHLln4nnb1gef/jDbXz++efqk9EbHo7mer0ZmLNmJmaLtPOflx7gzqAqDnX7AT7/9X31eID0P5+JtL77+Pj/uYdrgXL1uKLqGFakYO0m1br0wX18Wn8/UKdvYAZmLxNh69EZmHE1uP705TMxX4Suh9L0lrRP3n+AGaJstiibrVrXAmVp4rsH7sN/W68batH6dVi3YAAfNV7FdVVGREREySHmMVYfX76My5d/r17p5GtZnrxmIHe93rqkddmde2CZnmHok3u49AvZbTgD8wuMVqigYRHE9O7JB/B/qncvmsuGtYH3TjLh3fY0yuRUCzf70aUXEhERURIZ1+B1c7hK/lAlfEMEJtmF2HcfnzuNg/rkPmQ+Sls2A+l6ScCwP3yslrlsyOZ9LFqPA8eqUH+sHDXPLEbOzWto+hnHVxERESWjcV8VKMPUqV+dTv5QJWWqMVXzZ+Lxv0vFettHCuJ5kWGPeNzQF4mIiCjJuDLdwhdfTKVJpCbY9fPYo00C2oDak/3IWbAYVd9fD696m4iIiJKHK8EqKcwP77oL0/sAw/JZTsEQmHzU4eH67XF60Xy8DrUXxCKvCiQiIkpK0ydYCWnfUAtO/vAAfXIA1dKZyB3ts0REREQhpkGwEmHpqnyegYXPzkSmOTB9YwYyV5iv7nuA7vP6VX8Lv5eC/A0zkG4JWOLzG1Kw6u+imIuKiIiIpp2En3ldn9VcvXA0ykzs35iJVd+baZnsM0jOmH4P5rXLCUIffzJ8OoUANQO7sT5jG/t+MRKYVd34jtHKrDJR+UY5SsGZ14mIiJLR9OgK/MN9XBLBq08EIjPtFjW/uG8JVdLQuXs4Lz5/46oac2UQn+/74B4+/qcpdtNnIiIickWS3StwqmOLFRERUTKbVoPXk8aCImwr5iguIiKiZMMWqwTj3VaJmmfmqVeGa6jd/i6a1SsiIiJKTGyxSjC+43WoPnkNPTdVARERESUNtlgRERERuYQtVkREREQuYbAiIiIicklCB6u8PN6KmIiIiJIHW6yIiIiIXMJgRUREROQSBisiIiIilzBYEREREbmEwYqIiIjIJQxWRERERC5hsEpK2dhd9CouFVdhd4YqipnxXa+iKW+lKiMiIqJYMFhNdxkrsClNX/TmFmKrvphAVPAr2oxCVeJsJQ6JgKiHxGxVZlWYVxXxfQqVisryLNS/KB7lGQjMLLdstl4mHnuXqbKkpvbTvI8RTZfjQkRjxWA13Q1+gjPD+qKvux0n9MWk580tScCQmOQGRuBTi0H38HmfWpyueFyIyITBatq7hYNtr2NVy+so7bqsyqaCArzAVikiIppgDFaU4LKwRHVVRs3fgbPiacq3Wi1aj71vVKH+WBUObMtUhW4bwY0BtWjWdw89anFqSMGjc9ViVKbLcSGisZrxrc1bHqjlSdXn71VLQfJegV1d4Y3sU1Fh1ma8lFuMjYEQ4YfPfw7VVy6jXZUEyXFHO7EjzY+jF2vxHlbipYINoq5Hf3vYj7PdP8fLt2/prwOMeuplCF/3EZR2hdYJkbESu3M3YJPHExhX4hvuwNsdDTgxqApsZYt9LEFNbia8xnY67WNWOZpyC8Tn1OtI/I1YJerr5BirMmwUZRVDG1Cf6wnbJznGyq48wGH/znQ342DI8dy6/FXs93RgX0szHlv+HHaIOnKfznbWimMvjnVYmVbNKubjCZTsqkLVGvUC/Wh6rQ5119VLF5V8OwtVYuN6LvZjz4cjeqEnAweeT0cO7qL2rTto1kstvE/MR81qoOmdPtT5RYFnFirXZmCdN0XU0/X47uDQL++GdaV5l2Vg25p0rA2EHRFYfIO2nzUbU71ls3FgzSzkRBOoxHZWiO8wi/W4ENHUxharSacPzq7PN4cqSZxoPWWoH+XKvyW5IiisFmEiEFYEsbwxfycuLXf3Kj9t4LdYlwwLRgiQvGkF2L86woBwER4OiUBXny/Dkmk7I+xjVKHKSXoW0HVujK1WMgg5798OcTwPia8Nl4kXZFjVApQkjn3uZvFdIWX55WHbEfPxnGBdA/e055v9KjxI/hHclM/ivS6tIDIZsuqfn41SU6iS5LI18OiDwms2mcORJOp5Z6PmxfmoNP8JBcRWL6pQ5cCN40JEUw9brCaZ0YKit2qYWplkS0aBOOlqAUO2ijSYBpZbW558/ha83X1atXBkY2vec9ivfSfEd75u31JiMmorjpRVjksiGGnb2X0Oh7uCrUyF4r0aGZrEe7IF7aClpUW1IsnF4Q4ctbT8yG0twQu5BbjuuJ2q/nALKtpO27TemVk/C5v9ctxXtX96a1GzOJbmbTSOp/V30Fus5JKx3+bfJbzM8lvEfDxNZFfg94uwdgHQc7IBe46H/zfkCnml26ZZaD1zG29+qsq0IDMPpRhCdcOgbSuS3mKVglbfXaz1zhJh4y5qfzWEZhE+dKkiWI+Iv1/1UjDqyJam1jN3xPqMlqBZqPwLEcy0IBTeGhRrvaBZ2PvibKwdcN6fMDEeFyKa2thiNZkyNqNGO2HrJ1BL193gZRxsO4Kj2hV7zgOxtYBwxQhV0i2c6KpFRbd+ttrocaPVSoQDEX4krUvLFAKk9tsNKO3sEEsebPJYt7Mwb4MKVTLsNIR0p8ltFXUvHhk1/MWifSytVmIfKi6+jlKxjcFQJenHc592ODPxmE3roa/75yr83MJ7vfpxN5d9NqQVmcR+PC2un8ebr4jfentt/EJVgMNVbgN2V8RZyVAlu8sqGkSoCYQqyRqqZDfayyocye7DQDiS/HdR19CPJm1c0yyUPZGqFWtireeK2I8LEU1NDFaTKT1T7wLyn3NolbiFg93yBCvCQeYKm3mc/DjjN4eAoHb/Ff0f9vSsKOZ/GoUx15UIR4edAtDtdj3EWLYzG9/JVMGxI0JrkyXIuOkyDmsBM7orBNuN3yAjG1uzNuPQ8io0FenzXuktUx4sSdc+YXF9OHz7zWVXh8zpQYj5eE6ST++g4i01TipgRASW22Hjjmz57gTHIEUyX3UT+gZD1mUQ67ygry9HhLVA92ms9cZrvMeFiKYkBqtJVJimX8nlG4rQXDPUqwck8dmlWsEYxVrPzAiAacWoVxNwhj9Ud5+FcUVfLz6zDY7xN5ZWK3kBwSE5Genqndgvx7zJsU+WMWEuifl4JqceNRZpNN55emtSxM8bV93NTUGeVhB7PSKieGCwoinO2mrVPuzQZZZVHryAYLgDZ7sbse/iEVSIh5zjS+8KJCIiiozBKgF45VVsTozWDREIrmoFUYq1nh2j1UxObSBCRsSH7QBz+7FJYzKOlrdAq5Vjt9pKHFIDyY92iiDV1qCNe5Jjrdrj0U057uM5teXMleOlHBjdfjZX3cVaz4ItWkQ0TgxWkygwDsqzwWFKheAgZ1/vJzYnWPsxP6PXGyPjtjeO2+nkMt7XWno82FEQ4V5/GdlRjCMaTzhTrVZpxXgpUs/e8BW8FzJXlS4bj6klV8R8PENMyAShE8f32V29u86b4TylwppZ2lKPLzgvVaz17KViYRx6f4lo+mCwmkyDp/G2ETxWV+FQlmmAtZxuIXDpfgfedpgGYWO+nO9oZTCYRFlvbIxB9Go75fosgUBOSVCOpuLwuZpOdLfoJzI5nqioHLvN+yjqyakFmlbvRL3jnFvWcLbVvF5tkPnog9Ilo9Vqo0cPnLbENtaYj6WxffJ4unqyjf14mpWU6VMtSDnPPIXKRfpy0vIPolH7Y0lB6fPzsXeZ+cq/Wfo0BmrahEbzYPhY61ncxQfGd/xFBkrMv7cnFSXm7yQiioDzWE264DxH9uzmMjLq+OEblgOsVbHFKHMgmUQ1j5UQnHPLgZynqqMhfJ0Zm0V4Ko5wNdYo2xqxvnluqchzXpm3P3RfI+6b2K994s9zf26BZS4qYx4rc5nxPaOVSTEfT2WiZl6PlTG3lGVm8lGpeaAcJ+7Up1QIv/ov1nomgVnT7USaA4uIKIgtVpNOvwlyRWcLzmpzVhnk7V4aUdESIXAMX0G1VrdDBCxVJsgJQ/dFGarGor2rFqsuNuKoX2ybKtNot9AR2yrnqbJb5+BplLYcwb5u63ZGtY+SrC/We1asx0xO5nm0s9k0cWpkRquVHblvocdRCzZqzNUJy3a7I+bjqTQ3tqFVm+Yb6Dn5fkKFqtjp0xVUnxlCq+VefPLWNHdQHTa9gSHWeib+Qex5546ob726sGfgLprE9zJUEVE02GJFgZaT0VqsiIiIKDK2WBGWpkfojiIiIqKoMVhNJ3Jge5b1Cjw5ONu4353TLO5EREQUHXYFTiORBkvLsU6lVy6rV0RERBQLtlhNI+3+n2Of3UDpTnkjZ4YqIiKi8WKLFREREZFL2GJFRERE5BIGKyIiIiKXMFgRERERuYTBioiIiMglDFZERERELmGwIiIiInIJgxURERGRSxisiIiIiFzCCUKJvjETq743E2nqZUDffXz8T/cxpF4mpkyUbFuHsqLFyFmginANtdvfRbN6RUREE4ctVpMssywV6//O/rHqb1KQv2IG0tVnE8MM5P6N2L6/mZlg2zU9lewqR9Uz5lBFRESTicEqgaXNn4H5303B4wwx8fWH+7j09yM4H3jcQ596K7FlYmG2vtR6pAEV22vVg61VRESThcEqQfT9wnxi10/uH//iPoblm/NnYtmGGdrniMLcbMPxlvCudCIimngMVgnrAYY+uY9Lv9CHwKV5tKeEkDZfLRAREZEFB69PMjnGaulSvcWq8xNVaGYMrHYaSP2NGcj985mYv3RGYPD1cN8D3Pj3e+j9gyqwNQPpK2Zi2Xq9y1H3AMNX7+PTRhHqVIlmRQpWrRffH02gunoP50X9MA7b2Xf+Pro/Cf28HMeVgoUw9nmGOE4zsdBcV9tO54Hl6WKbl42yzcMf3MOlc3Z//jOQ/3cpmD+Wwesx/w7jU7KrClXZbah+5Tx4mQcR0eSLqcUqIyMDj69c6fiQ75M70gvUiVqcpENP8OkbUrD+eyKAmE7mkgxKS7+XilVO3YciBOSL4PL4d2XwMH9GvF4qykWoyP2GKlJib6USgaPMeTsXflcO0FcFocT76Wpbl4bWXTrTcexZplifvm+qIM5i/h3csmAe8tQiERFNrphbrGSAWrnyz9SroMuXf4+PL19Wr6LHFqvQFqsZyNwwEwuf1E/WYe+vECdzER5kK1PfB/fx+blg8NJaa2SwEO/d+Od76La0mKjWGLkoW1QsLUbBdQ47taAZ9aNtzVHbqbfe3EfvH6zrWirWJffh6t/fQ/AvQLVYBYKRqPuL4HbK/ZPBSYp0XKx1ZopjIqdUCF2XnTHsY8y/gzu0Fqs1nF6BiChRxDzGSoYnGaLMYg1VBMz/buh0Cyla6JChavjqvbDQlbveCBbiPdPJXBr65J4amzUD8wv0zxnSRZjRQ5UMDeJkb+mGe4Dec6KuCAH2oSoGYls+/ucRXBLrCoYqSV/X1av6q7SQFrIAEchkEDJvp9y/QD1PyP6psWjyuFjrGOPVxDFxaiEbs9h/h/HLhHfb0yhbIxZv9qNLLyQiokk2rsHr5nDFUOW+YRF+roqQcyl0zNI3xIlapiPx/udOAUgECTllQNoy8zxYM+ARr7XWnH+P0BJjCUDjN2S01IjtzlwxE/llKdocXTJAytY6uV1pmdonQsjttG9dGvLHvo2hYSxmMf8O47BoPQ4cq0L9sXLUyPmrbl5D0884voqIKFGM+6pAGaZO/eo0Q9U4madb+PgDPTSk9T0IaeVRMvWWLDkNw+OWVi7zQ3X3hTDGHQ3HcUB1KNkNly8nFf1eCpZ+Vw3wtoztcs+QX3+W839lmlvB5Fgt1X04PI5QZjGO38EtPeJxQ18kIqIE4Mp0C198MYFn6Wlg6JzeyoGlM8MGkScdbTyUCFNay44ch3RPa4X7WDxkiDS69FwT6CbUB44HAo4IdVrAuXrPuXUpGVw/jz3aJKANqD3Zj5wFi1H1/fXwqreJiGhyuRKsyG0P8LnWajUDC5+1ufKt94E+caic2iAwoajDw2HwteOYpmjJK/bUojOjlUgOJBfb+k/6OCTZCjfkcnejlf7d2jEK0EPdx6FTSYyHC79D7HrRfLwOtRfEIq8KJCJKGAxWCUq2Wt2QzVbzZ+LR0MHWIpT0yffG3KIl6qnWHNvAZvhGdOOBog5nfQ/gtwySN6iuNDetkFMzADfkgHlLuAkfXD6q0cJjzL8DERFNVQxWCesBus/rYWT++tAQZLwnAtL3UpC/QQQAy4ldTmWQglV/l4LQMeG9vw7eJufxv0lB7grzWCfxPSKYrBLf+XiZ0xgoazgLHceUafk+Rd2SJ7gPaj1ySgVt8Lp79KsCRWAb51V4w1pfrNhH83bL/bMc59h/ByIimpo48/okizzzenA+J7tZwuXElI9r80A50OaOspk/yZjNXb0MN8q8SxHrW+eJiriNciqFT6FNK2Hdf2O/nbfD+N6w4zLqvsnQJMKh7YzvQY7bbTOzfMy/w7hlovKNcpSCM68TESUKtlgltGCrVdqTM8NaPYbOiZO8CB43rqqxPgYZHOR4IjlPld3J/A/3cUmEn6sfiHpay4xB3tJG1JPzRkUKAbK+WG+fWI+ZNgnoL+5bpkeQ2/jxL0LWo31OH3PVq67ic80fxHeL4xHJqDO+C9p2y+OjXmvkdneqZZOYfwciIppy2GJFU4hq6QrcY9DODO2WN7KV0PlegcmCLVZERImGLVY0dagJO4c/jTRIXbzn1jxWiWJBEbYVcxQXEVEiYLCiKUd2m+avMA+W18kbOssbQuvjoR7gRlK3Vkm9+E1bv7a0dmc56rUZ2eXjaZRopURENNFSvIuX/EgtT6rh4fA2hjlz5uLLLwfUK6JRDD7AvW/IyUhnIG3ZTDzy5zPxqOnxyKqZmC1nfJdjpY7fw61BVS+JDXzyO/z2oUys+Po8fP3rqhAD+KjxKq6rV0RENHE4xoqmHHkLnUfX67fNMV8daFwNKOfUcneyTiIiIh2DFREREZFLOMaKiIiIyCUMVpNItsgRERHR1MFgRUREROQSBisiIiIilzBYEREREbmEwYqIiIjIJQxWRERERC5hsCIiIiJyCYMVJaBs7C56FZeKq7A7QxXFzPiuV9GUt1KVERERxQeDFU1tGSuwSd3XxptbiK36YgJRwa9oMwpVibOVOCQCoh4Ss1WZVWFeVcT3KVQqKsuzUP+ieJRnIDCz3LLZepl47F2mypKa2k/zPkY0XY4LkfsYrGhqG/wEZ4b1RV93O07oi0nPm1uSgCExyQ2MIPwGWvfweZ9anK54XIjGhMGKprhbONj2Ola1vI7SrsuqbCoowAtslSIiSjgMVkSTKgtLVFdl1PwdOCuepnyr1aL12PtGFeqPVeHAtkxV6LYR3BhQi2Z999CjFqeGFDw6Vy1GZbocFyL3zfjW5i0P1PKk6vP3qqUgeS+9rq7wRuipYqrvn1lh1ma8lFuMjYEQ4YfPfw7VVy6jXZUEyXFHO7EjzY+jF2vxHlbipYINoq5Hf3vYj7PdP8fLt2/prwOMeuplCF/3EZR2hdYJkbESu3M3YJPHExhX4hvuwNsdDTgxqApsZYt9LEFNbia8xnY67WNWOZpyC8Tn1OtI/I1YJerr5BirMmwUZRVDG1Cf6wnbJznGyq48wGH/znQ342DI8dy6/FXs93RgX0szHlv+HHaIOnKfznbWimMvjnVYmVbNKubjCZTsqkLVGvUC/Wh6rQ5119VLF5V8OwtVYuN6LvZjz4cjeqEnAweeT0cO7qL2rTto1kstvE/MR81qoOmdPtT5RYFnFirXZmCdN0XU0/X47uDQL++Gd6XZfXbgLhp/JdYlv8tRKrzL0vHymlTkzE1RZSLs+AbD17NsNg6smSU+p15HIrazQtQ3i/W4EE13bLGiONMHZ9fnm0OVJE60njLUj3Ll35JcERRWizARCCuCWN6YvxOXlrt7lZ828FusS4YFIwRI3rQC7F8dYUC4CA+HRKCrz5dhybSdEfYxqlDlJD0L6Do3xlYrGYSc92+HOJ6HxNeGy8QLMqxqAUoSxz53s/iukLL88rDtiPl4TrCugXva881+FR4k/whuymfxXpdWEJkMWfXPz0apKShJcjk0VDl+du4sVD2fhQNPpKqSECKM7S2fh5pNMiwZoUoS3+OdjZoX56PS/OcnRBWqHLhxXIimI7ZYTaLp0GJltKDorRqmVibZklEgTrpawJCtIg2mgeXWliefvwVvd59WLRzZ2Jr3HPZr3wnxna/bt5SYjNqKI2WV45IIRtp2dp/D4a5gK1OheK9GhibxnmxBO2hpaVGtSHJxuANHLS0/cltL8EJuAa47bqeqP9yCirbTNq13ZtbPwma/HPdV7Z/eWtQsjqV5G43jaf0d9BYruWTst/l3CS+z/BYxH08T2RX4/SKsXQD0nGzAnuPh/0a4Ql7pJsJK65nbePNTVaZdFTcPpRhCdcOgzeBtPSDVrE5Bq+8u1npnibBxF7W/GkKzCB+6VBGsR8Tfr3opqXXJVqbWi4M4/mGwlckr3ntZhibxXqAVLECEqhdnY61cFOtpujCEuk+D6yl5Ih1lq2fhpmUfzFT9Aef9CRPjcSGa7thiRfGTsRk12glbP4Fauu4GL+Ng2xEc1a7Ycx6IrQWEK0aokm7hRFctKrr1s85GjxutViIciPAjaV1aphAgtd9uQGlnh1jyYJPHup2FeRtUqJJhpyGkO01uq6h78cio4S8W7WNptRL7UHHxdZSKbQyGKkk/nvu0w5mJx2xaD33dP1fh5xbe69WPu7nssyGtyCT242lx/TzefEX81ttr4xeqAhyucrO9Is5KhirZXVbRILvxTK07CAlVMpSskaEKIqz04U1TqJJ8n97BnjOyOy4F6x6ztlp5n8hQoUoGmjumUCWNoPlDUfedfodQNR6xHxei6YrBiuInPVPvAvKfc2iVuIWD3fIEK04cmSts5nHy44zfHAKC2v1X9H/Y07OimP9pFMZcVyIcHXYKQLfb9RBj2c5sfCdTBceOCK1NliDjpss4rAXM6K4QbDd+g4xsbM3ajEPLq9BUpM97pbdMebAkXfuExfXh8O03l10dsqSHcRzPSSICTcVboS1EI6hruB027siWT4QaYwxSJJ5ZWCe75kQ4Ou4UgD69i1bxlCPCWrD7NBXf9Mquv3to+lWEViJLqHPBeI8L0TTFYEVxU5imX8nlG4rQXDPUq58oxGeXagVjFGs9MyMAphWjXk3AGf5Q3X0WxhV9vfjMNjjG31hareQFBIfkZKSrd2K/HPMmxz5ZxoS5JObjmZx61FikUc1XY6rmpqNGTbIZ/lDdfRbGFX0juBGSYYko8TBYESU1a6tV+7BDl1lWefACguEOnO1uxL6LR1AhHnKOL70rkIiIxovBiuLOK69ic2K0bohAcFUriFKs9ewYrWZyagMRMiI+bAeY249NGpNxtLwFWq0cu9VW4pAaSH60UwSptgZt3JMca9Uej27KcR/PKcqYA0pObfDW7cgP24HhqVg43gbGuSnIU4tEFB8MVhQ3gXFQng0OUyoEBzn7ej+xOcHaj/kZvd4YGbe9cdxOJ5fxvtbS48GOggj3+svIjmIc0XjCmWq1SivGS5FOvMNX8F7IXFW6bDymllwR8/EMMSEThE4g/118JCfd9GaETYsQ2V18oP2HlILSv4hwrz9PqvN7AS6EMyKKiMGK4mfwNN42gsfqKhzKMg2wltMtBC7d78DbDtMgbMyX8x2tDAaTKOuNjTGIXm2nXJ8lEMgpCcrRVBw+V9OJ7hY1RqwY9UXl2G3eR1FPTi3QtHon6h3n3LKGs63m9WqDzEcflC4ZrVYbPXrgtCW2scZ8LI3tk8fT1ZNt7MfTrKRMn2pBynnmKVQu0peT1wjqLuhX/ZU+Px97n5gFr+W4y2kTZuPAi7NRokoMza1DemuXHJ9VPhuVy8xXDcpJQ0W95+eh5tv6VYfhrOGsxLxeEchKLN9HROPBeawm0fSYeT04z5E9u7mMjDp++IblAGtVbDHKHEgmUc1jJQTn3HIg56nqaAhfZ8ZmEZ6KI7QWjLKtEeub55aKPOeVeftD9zXivon92if+89ufW2CZi8qYx8pcZnzPaGVSzMdTmaiZ12NlzGNlmZk8CkY9R3Keql/dCbkaTwjMeu7Ebv4rk4j1OZM6kVvYYkVxpt8EuaKzBWe1OasM8nYvjahoiRA4hq+gWqvbIQKWKhPkhKH7ogxVY9HeVYtVFxtx1C+2TZVptFvoiG2V81TZrXPwNEpbjmBft3U7o9pHSdYX6z0r1mMmJ/M82tlsmjg1MqPVyo7ct9DjqAUbNebqhGW73RHz8VSaG9vQqk3zLScIfT+hQtV4+D7sQ8U7d9DkC7nv3oCcNPSOPk+VXTjyD2LPW/2ovXgXPZb7+Mlb2oh6YVMjhJD1xXpbQ65ilLfSaTozxFBF5BK2WE2i6dFiNfmMlpPRWqyIiIjGiy1WNOUtTY/QHUVEROQiBiuaOuTA9izrFXhycLZxvzunWdyJiIjcwq7AScSuQHdFGiwtxzqVXrmsXhEREcUHW6xoymj3/xz77AZKd8obOTNUERFR/LHFahKxxYqIiGhqYYsVERERkUsYrIiIiIhcwmBFRERE5BIGKyIiIiKXMFgRERERuYTBioiIiMglDFZERERELmGwIiIiInIJgxUliWzsLnoVl4pfRVPeSlU2VsZ3VGF3hioaF7e/j4iIkh2DFSWHjBXYlKYvenMLsVVfjAMVloo2W27mTEREFA0GK0oOg5/gzLC+6Otuxwl9kcYkEyW7KnHgWBXqjccbldhbnKned+YtXo+9b5jqHRP1tuXDq953Ems9IqJkxWBFSeIWDra9jlUtr6O0izdUHrNF+SLglKNqzTzkqCLNgnlYu7Mc9bvyVUE477ZK1OwswtoFqkAj6j2zBTVvrHcMSbHWIyJKZgxWRBZZWKK6HCfMomCrzoFto7cejZn4/gM/3iICTj9aT55C9fZaVKhH9ZFr6JGfWbMFe4u1T1uJui8/M08syLoNwbqvnULrTVG8oAg1dqEs1npEREluxrc2b3mglidVn79XLQXl5XnR1eVTr6aeqbx/W5e/iv0e4Gzn63j5tiqUMrK1sUvtg7f014r+eT+OXqzFwUE5zmkndjgEHF/3EZR2WetbiXVklaAmtwBe9R0+fwve7j4N5JrXo7+HrHI0mT4bkb8Rq64YLWbGdga3e+vy5/CCxxNojZHrrb5yGu3qtZ2SXVWoWqNeiCDS9Fod6q6rly7xbnsa3/zwXfvvLX4a9TsXAxdOoeIfOlWhzti2HhGO9hwP/W80H3uPicBms82x1iMiSnZssaK4uDrk154XpWVrzzoRRAp2on71TjTlWcsfSxdPw1fwnhF2YqaHnfp8a1Dyeoqxf3UVXpDrsRFVqIokfSUOifXuN4UqSa63PgEGwvuOO4Qq6fN+vdUqTD6e1ALfNTSGhSOpE8dP9ovneXj0Ub1EF2s9IqLkx2BFcdE+rJ9QvelZ2rPGfGWfXfnQbdWyExxPZX5UdOthLZKty42WLj/Odh4J1r3YiLPDIvTYBajbDab1iM/JsuEWVATKTI9Aa5WZBzvyy7BRtlyZ19nZob+dVoyXTLsbqrmxTe8eE3pOvj/xLTiP6uOuenr69NeGRfOhDY+68BmatQKdOTj6ega05wU5pi7MWOsREU0BDFYUH7fb9YAiAlSgtSY9U5xcO3BW5qOwcnGyFcFqXDI24wWPXNC75l6+HewubB+8jJfbjuCourLQdcMd2NdSi4PmdYrAtk9lQWvLXYjr5/HmK/oYpPBus3jLROWzi8WzTetSWOCSXXhVqDGPBVOtXTk58/XXUqz1iIimAAYripPb+A8ZYtIysVQvwFZPgQggvXhfdhOmLcd31KSaheIz0vXhSOOmoqACGvznguOnJoQIch0NtlNAGF2iiapkVzlKFwCtR961tC7ZKn4Ma9XimAJRrPWIiJIQgxXFyS18NiSfC/CU1g2mxlEN3cYJrZvQgyVqvNPSdNnM1IH3x9lgZQS0cbd8TRNyOgRtgPmFU3izRRXaCIShlo/QpHVZ9qP1t9ZB7nZirUdElMwYrChurAPY9WkMtNAz1At5LaRevhJPyVwlwtZV8UQTQ5tjSk6HIELVnpArAQPCBrX3ok7rsqwLBjG78Vmx1iMimgIYrChu2v1XtAClDVTPKsRGsax196lZ1L2ZK1CYkYVF8sOBgevjZxkYHytTF+bUos++LkOVbKkKnV7B4noftIamNY+hRCsI582Zqz3f7DGNz4q1HhHRFMBgRfEzeBvaBW4i6GzVuumM7j7VTSjDi1sD1wUjyMHjcC9BEeKin/wzE49N1I2V4z1BaEAmKtXs69r8UpFClaYTH1yQz4tRZrtd+dimTQJ6DR9YuhJjrUdElPwYrCiOggPYn5LjqEzdfSf8cioCUa6u4jvjH+fAdSlwP8EC7C8qx1ZTMCqUk4CuLtNazSK7jPe1HkwPdhRstnyHnNx0a1aEq/tiVFIWvO1LzjNPoVJrwnOZuqVNqZx9/YjdpJ325FQQ2tV7z5SL0Ge6x5/2fXKSTyFkWgUp1npERMmOM69Poqm+f5IxA7vGPGt5xmYRdIrVCVdOVWB/VZ1ZYV4V6nM9kWdet3xviOEOnB0qwMbQmddDRfoOy7aGzryuFVpEs81xn3ldu6VNkTamaTR2M6UHxmPZudmG6lfO6y2FIWKtR0SUzNhiRXGlt0zpzvpNk2sa3YSSmwPXB0+j9GIjjvrN0xz4cba7ERVtDTgczfQH6jvODls/6xPB7Ghn86gBcKziPkGoGigeK9/xOlQfkdsoZ0s3yHsAnooYjmKtR0SUzNhiNYmmQ4sVERHRdMIWKyIiIiKXMFgRERERuYTBioiIiMglDFZERERELmGwIiIiInIJgxURERGRSxisiIiIiFzCYEVERETkEgYrIiIiIpcwWBERERG5hMGKiIiIyCUMVkREREQuYbAiIiIicgmDFcVRNnYXvYpLxVXYnaGKJpyxDa+iKW+lKnNLIuwfERElEgYrmtoyVmBTmr7ozS3EVn0xgahwVrQZhaqEiIiSF4MVTW2Dn+DMsL7o627HCX2RxiQTJbsqceBYFeqNxxuV2Fucqd535i1ej71vmOodE/W25cOr3ncSaz0iosnGYEVT3C0cbHsdq1peR2nXZVVGUVuULwJOOarWzEOOKtIsmIe1O8tRvytfFYTzbqtEzc4irF2gCjSi3jNbUPPGeseQFGs9IqJEwGBFNKmysER1VY7ZomCrzoFto7cejZn4/gM/3iICTj9aT55C9fZaVKhH9ZFr6JGfWbMFe4u1T1uJui8/M08syLoNwbqvnULrTVG8oAg1dqEs1npERAlixrc2b3mglidVn79XLQXl5XnR1eVTr6aeqb5/+vihndiR5sfRi7U4OJiNrcufwwseT6DVwedvQfWV02hXr8NkrMTu3A3YZK4z3IG3OxpwYlAVBBjrUy9D+LqPoLTrlnplrzCrHDW5BfBGCDvB74lx/8Q6mkZZR4C/Eauu2Le0leyqQtUa9UIEkabX6lB3Xb10iXfb0/jmh+/af2/x06jfuRi4cAoV/9CpCnXGtvWIcLTneOh/2/nYe0wENpttjrUeEVGiYIsVTYz0lTgkQsh+U+iQvJ5i1DsM3C7Mq8Kl1WXYEVonrQD7V8ur/LJViTu2Lq9CfX6UgSfUGPcvpnVMAt9xh1Alfd6vt1qFyceTWuC7hsawcCR14vjJfvE8D48+qpfoYq1HRJQ4GKxoAniwI78MG2XLTucRbbyTfFR0duhvpxXjpSx9MSCrHPW5HrHgx9nuRlSoOkY92c7nzX0uZJqD4Hgq86Oi26/ej0CsT4YiuT7rNrZo6wI6sE+Vhbd6jXH/bjcEPrOqpRFnZdlwi2UfAw+H1iqpubFN7x4Tek6+P/EtOI/q4656evr014ZF86ENj7rwGZq1Ap05cPp6BrTnBTmmLsxY6xERJRAGK5oYwzKY1OLg7WAoaRcBY5/KPIvSzK1P2didW6Atne2sxctdly1dabJeqRZaPNjkcafVqjBNP1HL9Vm38bRaVwGeCg1/ZmPaP5dcP483X9HHIIV3m8VbJiqfXSyebVqXwgKX7MKrQo15LJhq7crJma+/lmKtR0SUQBisaAL4cVSOiVKvzK4O2bQmGXNPDbfg8G29KMztdq2lx5u5YsLmf3IOR2PcvymgZFc5ShcArUfetbQu2Sp+DGvV4pgCUaz1iIgmEYMVJZ70TL37J60Y9cX6rOnhjzJs1D7sjvZhvdVlY345tpq7FzNW4lC+3np2fTi0C3B6ktMhaAPML5zCmy2q0EYgDLV8hCaty7Ifrb+1DnK3E2s9IqJEwGBFJAW67fSB8YEAt1oFOH+jc+vZNKLNMSWnQxChak/IlYABYYPae1GndVnWBYOY3fisWOsRESUQBitKPEO9+oBxOdWA3YBu86MtwlQNY6Z321knwFCD569Yx3m5Li0TS9ViYtJnX5ehSrZUhU6vYHG9D1pD05rHUKIVhPPmzNWeb/aYxmfFWo+IKIEwWFHiMW5D49kwcTc31q4KBI5efB2llvAWPng+PjLx2Fj3Nd4ThAZkolLNvq7NLxUpVGk68cEF+bwYZbbblY9t2iSg1/CBpSsx1npERImDwYoS0C0c7Nav+tuxugqH8lai0BI6srE1rxxNxeWu3VRZvyrQgyUuXWUYvct4X2soE/tasDlkfJfYzyzn7SkpC972JeeZp1C5SF92lbqlTamcff2I3aSd9uRUENrVe8+Ui9Bnusef9n1ykk8hZFoFKdZ6RESJgjOvT6LpN/O6KjaRk4DK+arsZkU33nM03KFdjWf3vWaR1hGQsRlNq4stcyaFkjO+n+luNk2pML79C4i4bjmNg/0Vh3GfeV27pU2RNqZpNHYzpQfGY9m52YbqV86HdLvqYq1HRJQI2GJFCau9qxarLjbiqN9vPZEOq3FPbaOHqqgNfoK3xXoikTO+78jfiUOR5rOKxeBplIr9PCv2y0wGuaOdzbahSor7BKFqoHisfMfrUH1EbqOcLd0g7wF4KmI4irUeEVEiYIvVJJr6LVbJQrU8oUWENafB8PI+gPKWNeLEH8U9B4mIaHpiixWRmpDU1/tJhEHqt6bsZJ9EROQeBisiRd578FBWdthM7oUZK7Fb3qBZG+/VgbfZWkVERA7YFTiJ2BWYOLYuf1Xr5osoysHyREQ0fbHFikg4ceV1VHS2aAPIQ6OuPoj8iLuD5YmIaEpii9UkYosVERHR1MIWKyIiIiKXMFgRERERuYTBioiIiMglDFZERERELmGwIiIiInIJgxURERGRSxisiIiIiFzCYEVERETkEk4QOok4QajLMjajaXUxvOplwHALKtpOR7jBMiUETwYOPJ+OHPUyYGAI1Q2DYTPiB8Raj4goDthiRTQtpKKyPAv1L4pHeUYwfC6brZeJx95lqoxowvHvk6YOBiuaOgZPo7TldawKPBpxVr1FJgMjNq049/B5n1qcLP5B7HnrNioCjztoVW9FFGs9SkyJ+vdJFCUGKyIiIiKXMFgRTbZF67H3jSrUH6vCgW2ZqtBtI7gxoBbN+u6hRy0STR7+fdLUwcHrk2h6DV7PRmFWCWpyM+FN86gyP3z+c6i+ctlxYHlh1ma8lFuMjWmqIIo6QStxqLgMG8cweD2W9RXmiVCUCxy9WIuDg6IgYyV2527AJo8nMFbE5290/I6SXVWoWqNeoB9Nr9Wh7rp66aKSb2ehSmxQz8V+7PlwRC8MDPy+i9q37qBZL9UYn289cxtvfqoKw8ixMfNQOje8vsYzC5VrM7DOmxIYXN4zcBeNvxKf9asCR7Ow98XZWDvmQehjr+ddloFta9Kxdq4qgDih+wZx6Jd3LfUdj4knVfutfX51XBX98/fQ9E4f6kz76102Gy+vmYWcwPrCWX4nwfvEfNSsRvC77I6t707YNmti/R3GVE/9LcA47qli/2ejzLJ9Q2L77H+Tsf59EiUqtlhR/ImgcahoJ+rzC0yhShLBw1OG+uIq7M5QRQHZ2F30qqhjDjlSpDrj4c76ZMi6tLoMO0yhSpLL0QS7eOoauKc93+w3nfxFELgpn8V7XVpBUHPrkNZasHaNaTBxKHHiXSfDge9u2ElPBoH652ej1HRilXLmzkLV81k48ESqKplM+qDpmk3mUCWJbfbORs2L81Fp+pM1juGCeeZtF9/xF/NQ8/y8kH1KxUL5nSKI/MYUQkq+LQLSpsihajSOx1Y8QkNLrL9DzL/f3BTkib+LvSJkVYXW9aajxjw43WSsf59EiYrBiuJMhCoRNLSwMtyBo51HTIPLj2Bfd4c4EXiwJF3/tKEw7zns0AKOH2fNdS424uiwLPdgx+pybJWLLhj/+sQ+5JajPlechcV+7rto3c+K7svqc+GaG9vQqp09xP+tn3w/Lq1Vks98wgq4h8/tumAk/yAa5Vl6bjq2OVyRVbJWtibcQ1PrXVWiLBOhZHWKWLiH1ot3UG0aXF595q4W2HJWz7aElsngfUIEBy3giO080x8cAP/OHTRpxyUFpSJclMhFwTiGOSI8BBjhUrAtNw/GFsdFhg25vibT+qrP6CEWWsuMXmZurQpKwaNr1bEVga32HdM2v9WPard+h3H9fjJ4zRZBNXQf1bY5/D2N+e+TKEExWFFcFeZtwEa5oHXHNeDg7Vtaue4WTnQ1oFSEkJdvqyIpYzNqZEARIUd2r71srjN4GQfbjqiwU4AX8rK14nFxaX0bPQXwdYtAJfbzxKB1P9tlF6GT6+fx5iu1qNheiz3Hw7vE3eVwdZX55G8SaLVaPEsvsJiFJ2XTQ0iLjNaCs0b/fOuZPrz5obVryvfpHezRTrIpWPfYJLZaeTLwsgoPsnvtzU/NLSV3UdfQr8LVLJQZrTOf3tWvOJyrd/1p5stWGVGuhdDQctl1prfESF7V0iWPS51pfb5PB9UxEcd0lGkF1npnad1lFQ2yO84cRsRv6Mrv4MLvJ0PfW6H7eAe16ousLX5mY/v7JEpEDFYUR9n4TqYKLB0RxjhZQoiQnqmfnPzn9DFLYW7hYHeHtuTNXIFCbWkc3FqfvxGlXSH7kkjEia1CnuwsJ98RESBuo+KXqjUhlAgYH8lw4c2wadWYhbXiqccXMqYn0FIzhONOY7NUQMkRISEQRCaaCj7wDYYcE4M4Nhf04xLcTtWCIru7tNdAiQydIjx9IAPU3Fn4pjpORoiydG1FwTl0KD4RbGxbs0LE+juM+/cTQVWOwVKvzIzuPlux/H0SJSAGK4qjLCzRutd68VmkFpsQhWn6lXG+IXMzVoihXv1kLj67VCuInVvri1g/aRnhwqlV4y4aQ0/yRmCZm44aNblj+GO2FsomkxF8zC1KYYyr0gJByrh6zWhZMsZRjaBZC1ApeHS+LAfytG7Bu/jAFE6M7q61m2ajxBxURZjZu0lvJRotiEXcXrNYf4ck+f2IEhWDFRFF9umQ1iWWszo9MNYo0KphM2h9qrMOYBdBShwHLeyoEKaXG92kIYOuA91h+gDwQFCRY5Jkse+OcysRESUFBiuaAJl4LIYr+LzpWWrJhtF9N9yLq1rB+E30+pLHCH7jk2EiOP7H+9gs2A5al4xWHhESjIHLjo8EuJefZcB5KKP1xhSQfJ+pwduynuoO1VqZVLep1j3mScUC+WHbsUF6MNOOUYAaJG43VUKsYv0dkuz3I0o0DFYUR5fxvjZewoMdBZudxyZlZFvea/df0f+x9mxwmOIgG7tzC7QlX+8no09jMEp3oevrG6sJmSB0fHwfDmpjavSpF1LxTXllW9igdSXSuKxYmMYzjcko9YyA5LydwUHclnFkxhQAc1NRorVOGd19qptQrlcFsrBuO+2qQDkX1e2Q2/CEDxIft1h/B7d/P6JphsGK4upEd4t+skgrRn1ROXZnma+qk5OGlqNp9U7UL1+pyoTB03jbCGSrq3DIXEdOvlm0U02N0IG3Iw4Wv43/CFzNtzIY3sR3bDUHKNfWF5uSsiKs1Zo3gJxnnkLlIn05sdzF8YsiJMjB2U/o3YBhg9YDguOySp+fj73i817LCVoEkidm48CLwWkM7BmX2sur8qyDqy3jk8JEWc+YTsLYzmWmMWTis/rEp/JF6Diy4AD2J2Wrlak1q/ma3O9UPLlYvrqHjz6zjpfSx3Wl4NEJuRoy1t/Brd+PaHrizOuTaNrMvJ6xWYSn4uAJLow+zYH1ijw5YacRaOzY1Qmnz4pucxb2N2LVFfPcUrGvz1iHnGohlqsCJ2rm9fFTM5pry/Jy+sgzYeszhUfoZhu4q109Zn9Fns7xO2Q3VYQrxaKvl2oKUHb0qRhCt9GYJVxj/s7ATOGSzTGyvG9Pzmz+0YUhy1QFkrFPoTOyjybW32Hs9YxjaX/MpFj3gSiZpHgXL/mRWp5Uw8NDailozpy5+PJL7X89p6Spvn8Bf7qG+u5O3JjxNSz5b5mY+5AqF2HF5/8lvn/hJP79T6oo4I84f7MZZ79KRVZ6HrxR1QnX++VHODsjG/99jlivKtMmKr3VjvNDf1QFUuzry5qzDn81Jx0Dd9pQ/6X5O6Nz/VYKFi9fgJyvi5PqyRP46a/D/1tIDPeQKoKBPmh9CD/9LKSbK8TAjWH8q+8eHkpPxey5MyF2TzdwD61X/ohDvxzC/9FaFJ3J7/htSipWZKea6osTevt/4Xd991VBuOjr3cfvfj+E396ZgXnzHkLOw6pY7GuP74/4nw1/tN3G6zNT8VeL9Van1gt38Gtj7qXhmXh8rRx/Jgz8F975/Z9g+S98+AGGPf9NHEPnzoKvP5yK5YvTsPjOUPB7hbkL07Aleyb+89ZXeO+G876HivV3GHu9mVj5Z2lY/vADdLQP43c23xnrPhAlE7ZYTaLpda9Amgqc7n1H0VAtOoF76dmR99eTt4IRIZutOkRJiWOsiCg6ngyUye6vAYdB6xSZmqLCeWyaNBJ5Ek0iSngMVkQ0Ku+y4Nig1gu8xH485D325ED50DGHXjlgXt6gWRvXZDPxKhElBXYFTiJ2BVJCsxlo3eO7gz28vUjMLIPenTgMJiei5MAWKyKyZ0yOKckBy2f6GarGqfmXt1F9Zgit4nhaJwjVrwZsEse4uoGhiiiZscVqErHFioiIaGphixURERGRSxisiIiIiFzCYEVERETkEgYrIiIiIpcwWBERERG5hMGKiIiIyCUMVkREREQuYbAiIiIicgmDFcVRNnYXvYpLxVXYnaGKktJU2Y8JkrEZTcXyeIU8ijajUH2EiGiqYrAiIpowqagsz0L9i+JRnhG8EfOy2XqZeOxdpsooCjyelHgYrIjIXYOnUdryOlYFHo04q94ik4ERhN/Q6h4+71OLNDY8npQgGKyIiIiIXMJgRUQkLVqPvW9Uof5YFQ5sy1SFbhvBjQG1aNZ3Dz1qkcaCx5MSz4xvbd7yQC1Pqj5/r1oKysvzoqsrvHF3qpjq+6cP+t6JHWl+HL1Yi/ewEi8VbMDGNI/+9rAfZ7t/jpdv39Jf2yjM2oyXcotFHVUAP3z+c6i+chntqiRUYZ44OeZCW+fBQVGQsRK7czdgk8cTGIPh8zfafEe2WF8JanIL4FXr8/lb8Hb3aSD3Vez36PuhfWcou3UMd+DtjgacsPu8EPt2joexj5liH9XvEM0xjeF3CFqJQ8Vl2Djcgoq201Hty8T+7rqSXVWoWqNeoB9Nr9Wh7rp66aKSb2ehSmxQz8V+7PlwRC/0ZODA8+nIwV3UvnUHzXppGO+y2Xh5zSzkzFUFNizfK3ifmI+a1UDTO32o84sCzyxUrs3AOm+KWJ+ux3cHh355N7wrze6zA3fR+CuxjfK7nIypnhwnNQ+lGEJ1w6DYhlRxjGajzLJ9Q2L75HvhxnM8ieKBLVY0IZbkipPeanFyDZzMBbG8MX8nLi1fqQrM9Cvx6vPNJ1dJnCQ9ZaiP8go9ebK9JNa7w3RyleSy9eSqh8D6/GCokryeYuxfXYUX0lWBDcd1pBWIuq+iKS9blTiLfjvHQQSNQ4F9NP0OEY+pO79D9Cb6d594XQP3tOeb/cHwA/8Ibspn8V6XVhCu5NsiIG2KHKpGI0NW/fOzUWoKLZJcDg0tjp+dOwtVz2fhwBOpqsQq1nqYm4I8Ecj2ipBVFVrXm44a8+B0k1iPJ1G8pHgXL/mRWp5Uw8NDailozpy5+PJLu3beqWGq7x/wNaxfsBZrHkqHNz0dsvXn7zv/X/yPz5rxs+5O3JjhxeY5IrGkL8eKr5rxrulPoDDve/ifHplm/Djb+f+h9MovRB1Rr68fD89Zrn3nmuxs3Oj+PTr1KgFZc9bhr+Z4cOehbPxddq744+rAvt//b7Fe9R1i3WeH/wO9f1IVhK3L/wd+MFsuWdd3Vqwva04RVmsn+WFcvPURzpvqIascv1oi1iHrdf8S1b87jte1dYi6X2Xjv3sy4Z3jxcN9IfWEWLYzdiJUPSGC7UNiUazn6LX/je3GMdV+i69hyZxczLzj3u8Q9AiezlsO70g3/vXmNYS3TQdN9O9udv1WChYvX4CcrwM9J0/gp78O/zfJDQPpD+GvFqfipm8Ivw4MrJ6BRY+lYTn+hFO//xPC/lVYNhv/9xr5491D05kv8aP3/4h/bR3Cb+/MwIrFD+HrWstMP34qyt67cV+vo8xdmIYt2SkYTE/F95aL7xgQnz35n/jp/9G/419b/wu/HRDrHFYVJLG+n31TX1/rxT/i0L/dwdvaZ+U6U8U6U5GT/d/wkG8Yvxt3vZlY+Wdi3x9OxboVIjg+HLqPqdgi6uHhhzDvjvmY6WI6nkRxxBYrmhC+7iPiJHna1C12Cye6alHRrfcLbPSYWq0yNqMmV7ao6F1vlq7Cwcs42HYER7V/lAvwQoTWoI2eAm29q9pkd5y5u/EW2s3dc2J9L2gNOOHraxfrezmwvlDZ2J1boC2d7RT1uqxdTO23G1Da2SGWPNjkcWE7x6EwbwM2ygWtO64BBy3dr/K3ENt68YjYd1UkufQ7RG2if/dQ18/jzVfE3+T2Wuw5Hin+ucHhajXbK9sA7zy9laf1TB/qPg22zPg+HcSeM3fF0iw8Ocq0Amu9s7TusooG2R1nat2BWKeley4VlWtmaUtyfW9+aO0i9H16R60zBeseM7c+xVrPRIa+t0L38Q5q1RctUMch3NiOJ1E8MVjRBPDjjN98ggtq91/R/+FLzwpOHpmeqTf5+8/Zj2cSJ8iD3TKwiBNO5grnSSf9jSjtsl+vxajrc5CxAptkS5YIK4fNgcTsdrs21YAr2xmzbHwnUwWWjghjnCwhRHDrd4jWRP/uk0UEhQoZHixhZgR1DbdR8UsZPGLjHDoUnwg2prFXjjyzsE52Nw4M4finelGYT++iVTzliLAW6J6LtV7APTTJMVjqlZnR3WcrTseTKFYMVpQY0jKxVC0WimXJN+SUVoShXj2QmeqFiljfJKr12TGCQFox6u1mGtceZXpLUQRjXu+YZWGJ1pXZi8/GEBzd+h2iNdG/ezLxqfFDazfNRonWuqrIMUmb9FYiyxgjGz2RwonZfDW+aW46atQkm+GP2Virfdgk1npEUwyDFRFRogt0h+kDwANB5XkVVHx3nFuJiGhCMVjR5DJafYZ7cVUrCPKmZ6klGxHqxSri+uwYrSf+RtMs4w6PKKcZiK9MPBbDFXwJ9TvEYX3JQ29xss7PJAeJ30G13VQJsTLmgBJhreKt25Ef2vQISqz1iKYYBiuaAB4ssZ2uIDj429f7SSB4BMZdeTY4XFpvXy9WwfUVYqtWEiLD6EoLMfgJzsjB1I7bGWcZm3FIuzn0aFM6XMb72vgTD3YURLgRcka25T3Xf4dRugsn+ncPMyEThMZo2Wxtrqamd25jjyWkhA8SHzf/XXwkL6PzZqDS3O04mljrEU0xDFY0ITbmy5P/yuCJW07eqE0eKl904G3zYOPB03jbCAKrq3AoyxQaItWLlRGQUID9ReXYajqpF2aVo0nOv6VeWxmDqdV2yv2zBIJsbM0T9YvFd6oSN201TaDpzX0uYrg70d2in3zleDCxj7vNx1Rsp76fO1FvnlPMtd/hNv4jcDWf9W/AfKwn/HcPUVJWhLUL9OWcZ55C5SJ9ORHoVwWm4FGnq+lcNYK6C/rVe6XPz8feJ2bBawlKqSh5YjYOvDgbJapEF2s9oqmFM69Pouk087pv2GOZeDNIv7Q+/Cowo656GcapnghD2gzcHn2Kh2hPwBmbRbAo1ruZQg134OxQATY6zLxurM+RnDeqo8Gx3pi202TrcjkbvHoR4XgERNpHjd13xP47mDkeI9mNeuWyeiFN8O9uMlEzr8ckMJO4Mzmz+UcXhixTFUj6zOspYTOyj8ao50isT17FZ70aL5Z6aub1ufeCs8OHiHUfiCYDW6wo/oavoLrtdVR0doiApcoEOWHoPseT8i0c1Oq04KypjjyxytuSVLSMfjIfk8HTKL3YiKN+87/qctJPsa62BhwesvnXXmnvqsUqVdcSk7Vb9uj1Xd1WRbZCGcfG1/3z0dch97HlCPZ1W3+HyMfUnd9BHqMKuV71WiMDpz/0Cr4J/t1Nmhvb0KpN1y1Cysn3EydUSf67aPRFvqpPzmxeumke9o4yn1W0fB/2oeKdO2gS67WM6xpQ47oawkOVFGs9oqmCLVaTaOq3WBHR+IXeS8+OvL+evBWMCIVs1SGaVGyxIiJKZGrizR5fpEHqI5En0SSiCcNgRUSUBHJWz8beZalhY+S8InhVyhs0a+Oa7qKRrVVEk4pdgZOIXYFEFI2Sb2dp3XwROQwmJ6KJxRYrIqIE1/zL26g+M4TWgZAB4YK8GrDpTD8HhRMlCLZYTSK2WBEREU0tbLEiIiIicgmDFREREZFLGKyIiIiIXMJgRUREROQSBisiIiIilzBYEREREbmEwYqIiIjIJQxWRERERC5hsKI4ysbuoldxqbgKuzNUUVKaKvvhBuNYvIqmvJWqbKzcPp78fYgocTBYEVH0MlZgU5q+6M0txFZ9MQ5UWCrajEJVQkSUDBisiCh6g5/gzLC+6Otuxwl9kcYkEyXbnsaBY1WoNx5vVGLvtnyMdp9lIkp8DFZENAa3cLDtdaxqeR2lXZdVGUVt0XrsfaMcVc8sRo4q0iyYh7XPbEHNsUpULlJlRJSUGKyIKAFlYYnqcpwwWujRW5AObMtUhW7KROX3i7B2QT9aT55C9Wu1qNiuHq+dQutN+Zl5KC3L1z5NRMlpxrc2b3mglidVn79XLQXl5XnR1eVTr6aeqb5/+jiZndiR5sfRi7V4DyvxUsEGbEzz6G8P+3G2++d4+fYt/bWNwqzNeCm3WNRRBfDD5z+H6iuX0a5KQhXmiZNjLrR1HhwUBRkrsTt3AzZ5PIGuFp+/0eY7ssX6SlCTWwCvWp/P34K3u08Dua9iv0ffD+07Q9mtY7gDb3c04ITd54XYtzN6W5fL7QbOdr4ujrMqlDLEvoqn9kHrsdc/b+yn8fupN0P4uo+gtMv5txvz8cwqR5PpsxGJ47JKHBed9e9MbvfW5c/hBctxbBHH8XTE41iyqwpVa9QL9KPptTrUXVcv3bIoEyXoRbPd94pgd+DHRci52YbqV85jKv/LQDSVscWKJsSSXBEiVpcFQ5Ukljfm78Sl5XZXl+mDl+vzzaFKEidLTxnqo7wCTIaXS2K9O0wnWUkuh4YqeXKuz7ee2L2eYuxfXYUX0lWBDcd1pBWIuvLquWxV4iz67Rybq0N+7XlRmnkbxL4WiH1dvTNk27LxmNzP4St4zyEMRi+24xlVqIokfSUOifXuDz2OYr31iTAQ/rpDqJIenWftHiSipMQWq0k0fVqs9FdGa4XegpONrXnPYX+uHrRCW1T01hz5nl+8Z2rVkq06BSKAaN/ZgX0tDWEDqI26Z/0d2OgpEEFBfK6jWazXaF3JRmHGLbSbwoPRshO6vkKxvpfE+vRwZ9NilVWOSyI8aPW6z+FwV7B1qVC8VyODhV09IZbtHDNj+8wtPBmb0bS6WA8eduWW1qBwxnZHarGK+XgGiIBULD433IKKtsgtTaF/Z9r3inUeNNYpjoEMeFJYy52Z7ArUuuqAnpMN2HM8/N+kePAuykTeE+tQpo27ilNLGRFNGLZY0YTQTsJXjFAl3cKJrlpUdOstKhs9plYrcYKvUaFKnngtXYWDl3Gw7QiOalemFeCFCK1BMqzI9a5qk91x5gAQElbE+l5QISB0fe1ifS8H1hdKnNBzjRO2qGcKVVL77QaUdnaIJQ82eVzYzljcbsdZ+ZyeFWytSc8UoapDBDq5HFoufqshp+QRpZiPpwtkOG0RYc28TvE77NP/zEJa7kJcP483X9HHPMU9VMluP3VFYM2P5WD2ucCFU6jezlBFlOwYrGgC+HHGbw4MQe3+K/pYEpsTPPznHFozbuFgtwws4v/2M1c4d+/4G0cZA6SMuj4HxpxOwy047JRFVLBxZTtjchv/IUNMWiaW6gXYqrWO9eJ92U2YthzfUV2qheIz0vXhcW5LrMdz3ESQk2Pa1Cszo0s0cc1DTvZj+GZxPAbNE9FEYrCixGA68Rsn+IgtJ0O9eiAz1QsVbctLVOuzYwSItGLUF+uzkYc/yrBR+7CzcbcQRXQLnw3J5wI8lSWf1Tgqsc4TIlzJ1rQlarzT0nTZzNSB98e5OTEfz+nk+nnsUVcEVr/WgNqT19CDxSjdWR6nKxKJaKIwWBFNcdYB7Po0BlroUeFUL1+Jp2SuEmHrqniiieOTA9qPv4s9rzSg6SaQ88xTnMuKKIkxWNHkMlp9bE7o3nSticVehHqxirg+O0armRzs3aJPmun4GHUAdvwY3a3a/mUVai1oWnefmkVd66bMyIJ2LheBy63tHPPxtBOhRXLq6cVv2vrF8zyse4KtVkTJisGKJkCwu8kqOPjb1/tJ4IQeGHfl2eAwpYJ9vVgF1+dw7zsROmwnqzRu7+K4nXGWsRmHAjdEjjAoe/A2tPHQIuhs1brpjO4+1U0ow4sKqm5038V8PG1l4rGJOrYTMUHorvX6/xDYysQ3i+ZpSzd7JuaKRCJyH4MVTYiN+fLkvzI4gFtOmxC4RL4Db5sHbw+extta75UHO1ZX4VCWKTREqherwP3vCrC/qBxbTSdyeal+k5x/S722MgbRq+2U+2cJAXJKCVG/WHynKnHTVtPEqd7c5yKEu+AA9qfkOCpTK98Jv9x+Ua6u4nO6yGBMYj6eZpfxvvE3ULDZ8h1yctOt5r8Jl5SU6VMtSPHojvNuewqla4q029bsLVYtrop3UT4q3yhHqbb+a/igRSsmoiTEYEUTwA+f7HLKlRN7qkHdcjJMLRTIS/LDr+Q6ccW4JF9NIhplvdiIgNTRoreyqEk9jfXVy3mohtXUBHZuN6gpI8R2yv0z1b1UvBP75UziYj8mrNXFVnAA+0YZoMzdfVp3pth2eaUgevGZK1fxjeN4mpzoNr5DTipqOq6rxXHNL4lLWI0n3/E6VGuD1Odh7c5yEbD01jF9yoUtKlT1o/XIu2jWahBRMmKwovgbvoLqttdR0dmhBSyDnDB0n+MEkfrNfis6W3DWVEcLaf5GVMi5ity8lH/wNEovNuKo33zGl5N+inW1NeBwhMv127tqsUrV1YKAQbtlj14/HtMOyOBhHBtf988jrkNvmdKd9Zsm/zS6CSU3B66P43gGqO84K46jmbxV0NHOZpdCdVBzY5u6Xx/Qc/L9uMwn5ZOD1F87haYL/SJgmdwUr+U8Vq/V4U22VhElNc68Pomm/szrRERE0wtbrIiIiIhcwmBFRERE5BIGKyIiIiKXMFgRERERuYTBioiIiMglDFZERERELmGwIiIiInIJg9Uk4hxWREREUwuDFREREZFLGKyIiIiIXMJgRUREROQSBisiIiIilzBYEREREblkxrc2b3mglidVn79XLQXl5Xmn/JVzJbuqULVGvUA/em4OoPFn76L5uioiIiKipMEWq4QyDzkLFqPqx0+jRJUQERFR8mCLVSJZlI/K729B6YJ+NL1Whzq2WhERESUVtlglkuud+E1bv3pBREREyYbBKsH4egbUEhERESUbBqsE482Zq5aIiIgo2TBYJaQB3OD4KiIioqTDYEVERETkEgarhLQYVW+sR8ki9ZKIiIiSQop38ZIfqeVJNTw8pJaC5syZiy+/nF6DuQc+uYU/LMrBwmVLsHnTOvxV2Tr8+UPX8N4n4ceHiIiIEgtbrBJUjnomIiKi5MFglWiK16FqzTzg5jXUvtaAiu212HM8fPJUIiIiSjwMVglGn26hH03a/QIZqIiIiJIJg1VC4nQLREREyYjBKiHNxUJeEUhERJR0GKyIiIiIXMJglWB4r0AiIqLkxWCVYHivQCIiouTFYJVIFuVj2zPz1AsiIiJKNjO+tXnLA7U8qfr84VML5OV50dXlU6+mppJdVahao14Ybrah+pXzmNp7TkRENPWwxSqh9KPnQhtqf8ZQRURElIzYYkVERETkErZYEREREbmEwYqIiIjIJQxWRERERC5J6GDF8VVERESUTNhiRUREROQSBisiIiIilzBYEREREbmEwYqIiIjIJQxWRERERC5J6JnXJeu99PrRc3MAjT97F83XVRERERFRgkiyFqt5yFmwGFU/fholqoSIiIgoUSR8i5XFonxUfn8LShf0o+m1OtSx1YqIiIgSSHK1WF3vxG/a+tULIiIiosSSdIPXfT0DaomIiIgosSRdsPLmzFVLRERERIklSadbGMANjq8iIiKiBJOkwYqIiIgo8SRpsFqMqjfWo2SReklERESUAJJrugVNJkp2PYWyNfOQo0p6TjZgz/Fo6xMRERHFR9J2BRqhioiIiChRJF+LVfHTqN+5GLh5DbU/+wjN19lSRURERIkhSadb6EeTdr9AhioiIiJKHJxugYiIiMglSRqs5mIhrwgkIiKiBJO0g9eJiIiIEk3SBSveK5CIiIgSVZIOXiciIiJKPMkVrBblY9sz89QLIiIiosSS8PNYleyqQtUa9cJwsw3Vr5yHT70kIiIiSgRJ1hXYj54Lbaj9GUMVERERJZ4kvFcgERERUWLidAtERERELmGwIiIiInJJwnYF1h+rUktjU7G9Vi0RERERTSy2WBERERG5hMGKiIiIyCUMVkREREQuYbAiIiIicgmDFREREZFLGKyIiIiIXMJgRUREROQSBisiIiIilzBYEREREbmEwYqIiIjIJQxWRERERC5hsCIiIiJyCYMVERERkUsYrIiIiIhcwmBFRERE5BIGKyIiIiKXMFgRERERuYTBioiIiMglDFZERERELmGwIiIiInIJgxURERGRSxisiIiIiFzCYEVERETkEgYrIiIiIpcwWBERERG5hMGKiIiIyCUMVkREREQuYbAiIiIicgXw/wOuw7kH235yAQAAAABJRU5ErkJggg==;" vertex="1" parent="1">
          <mxGeometry x="390" y="1030" width="598" height="402" as="geometry" />
        </mxCell>
        <mxCell id="DjtESpJHfdfJX2ykLP7m-8" value="" style="shape=image;verticalLabelPosition=bottom;labelBackgroundColor=default;verticalAlign=top;aspect=fixed;imageAspect=0;image=data:image/png,iVBORw0KGgoAAAANSUhEUgAABCkAAAJFCAYAAADwEK18AAAAAXNSR0IArs4c6QAAAARnQU1BAACxjwv8YQUAAAAJcEhZcwAADsMAAA7DAcdvqGQAAP+lSURBVHhe7P0PcFRVvi98f5FMyagxBjJg5490RiYMMBeEDpI5lLGAqIUMk1jnCW8y5zy34JzxlKTeA4pioWW9aj2W8IqicusJPse5F5773pmk4JkyGQd5HQJcmfIIhobRGmDI4EkQkhYGCTHq4PvA+K6199rde3fv3X92/9sdvp+qhu6dXr3/du+9fnut3xo3e85d34KIiIiIiIiIKM9uUP8TEREREREREeUVgxRERERERERE5AkMUhARERERERGRJzBIQURERERERESewCAFEREREREREXkCgxRERERERERE5AkMUhARERERERGRJzBIQURERERERESewCAFEREREREREXkCgxRERERERERE5AkMUhARERERERGRJzBIQURERERERESewCAFEREREREREXkCgxRERERERERE5AkMUhARERERERGRJzBIQURERERERESewCAFEREREREREXkCgxRERERERERE5AkMUhARERERERGRJzBIQURERERERESewCAFEREREREREXkCgxRERERERERE5AkMUhARERERERGRJzBIQURERERERESewCAFEREREREREXnCuNlz7vpWPSciInIWWIotrdUoF0+Hjh/F1u2HMKD/hYiIiIgoIxikyKSSmeheXAO/ehk22oeWnhM4qV4WrIyuXwkebViEVcXAwKkjaDxxTk0fK8b6+uUat2f+1WD9yw0IqFfS0P6dWPfORfWKiIiIiCh9BdfdY0bVTGxtWIKPHmpSjyXYOrMSM9TfnbgtlxcyGKCWs3tmiZo4xpRUYJGocEr+6RVYrj/1EFkpFvugYaa7Y8Sr61e1wPQdcH547rjz/PFCRERERESZUFBBiuV1S9BZW4N7i1VtRVOMe6fXorNhgWPFxW25lI2cQONbXZgTfhzBe+pPqZhR4Qu3VvCXV3gnkJKh9dOMDOLAqP504NQg3tafjh1jff1yjdvTA/qwq6MfQ+oVLhzFVraiICIiIqIMK5juHjNmLkHndBlkGMV7p45g24kRvXtBSSW2zq/FvdqfYrsduC2XGWIeD4l5pPT5qlm7qBBsH/Jh1XRg+/59eG1E/dlT3KxfoYjshzG1brIlRa0vi8c8ERERERGRewXSkqISq7VAA/DekX1YYwQapJFzWNOj7ugX12B1lTZVcVsuj1Sz9oGhQbw2GMIAirGoYox2+fC0YnxfP3SIqJBMrcP6jW3o3NGGLc1laiIRERERFYrCaEmRzN1f4z2hI5hzSCXVc1lueV0TXvCF8Mxbf8KddbVY5dOaW+iBjrMleDRmmlbMhouWBmp53jvSJT43UXnr3X7ZOmT1/OmRbi2jeuuRNWejm2G4LRct2fVT83Oo9A+cOoDGE4nmVYIZVT/Epum3wB/utjOKgdApbBD7zXHeYt0enTEdi8T+MrrQDIyGcODUn/Ba9PqJbd893Sc+X72Ox3ycZWD9ZM6U1dNllyQ1Ie66WfffSfF6uTgmf25ex1CfKGuzT5L5TsRIY37KDDHfTQm2bWQ7ud2e6S+n0/Hyi97DeDvRIeqCv6IGzf8QQGByqZoCDF3oR+++XnQEo7pSBJais7Vaf368By3b++AP1KF5yTxRXp8MUbb7l3vQMahem1WUof7++9A0q1QbncOR+mxU1GHLY/PivHcY3a92xM4r3eUUUtouUerXtqFtrnohl/FZsYxn1EsiIiIi8ryCaEkxo/gW7X/ZusCxcvGFqNTJ/32RpHpuy+luwc9lhUdUVnQyh8VMPFoXNa02gzkthOUVogKJEPZqgY9z2BsS/xX78EC8xhSi0r5a5t1YXBsJNEji+b21i/BRXaWaEMVtuVyTXXPEvugUletIgEISFUlfLTofWoJHY7aPqLCKdftIrJvcX0aFU/KL7blKrN9Wm9YzSQUoMkpWrJtUzhQ1SRNv3RSxLaapbfNC9Dr6atDpNumnE5fz03PCJBn8yQSXyym7hjkdLy8sznQy0TLUr2rFpscaLBVxqXxyNRpbV2DLqho1xcb37kSrLN9qqvhLsuxjrWitUK8NWsBhBdoSBSgyLdXlTHe7EBEREVHBK4ggxbRb9drNmdE4tzJHvoB+s+wW3KnqEm7L6URFpXgU2/fLBJEHsF0m7SuuERWYqGnw4b6MdRWpxH1ajCKSGPDtQS1KkaDLhw/3ioqVvEv8jLZs+vI9c0plGhSVXbsKuftyqRrBaz3G50ceLcZ84hKVTS2IIp6OhrD9yAHTZ8hl1bvEfP9W/d1hVT/UKpvyLvgz+6PL6PONCTCdPWx6n+oKJFschKeZHuFWFJL79ZsxU1SKtcNUtsoxLef+I+r4KsaqxU6BMFl5lttGHJOmsi1H5DEjxOvGJP7WaTOqh3w473MX86taoAUK5PpZy/TpwUHIFkv6tEjriHSOF8ndcppz15j3uSwnl9U/vdY5YJSi+lV6wCCe8lkNWG8e79NMVtgdy5ei8X5zRb4Mrf8Qr0VEFqW0nBnYLsLBrqMIql09tHsvW1EQERERFZgCCFKU4E6tQcQo/uMLbYID8XdLHcZtuYgBUVnRE1aO4N0h/U3maZ98qU3KnKoK3Cv+e2/QVAE+O6hVlhON8qE1gT90wtQkfQRvn9gXrtjdW2HfKsJtuVyZMXO6tk307gmHo7poyGU9jMb9B2K73Jw9jJb9ouIryrw9El1mH57RKjHRgakcK5mJTapiLJOjWrrXjJwTFfVIIOznTnfxZRDmrX2W7XJSrLu+fsDU4gyvYIrzM1ozyW5R1jIn0KgFDTIZ5DNJaTlL8Oh0GR00ctdYu9jIcvqyZig/TEUdmmap50KwYyc2PNGOFvXY0NGv/gIEltRZWnVEk2W1cq/2IKimab43MVKuYhrmm1oxhMs8sRPtx9VEYWi/mi67ekiDh7BOLVP4YVq2VCS3nBnaLmcOYfNToszKdqzbxdFHiIiIiApNQQ1Bmmt2LTDM005/4RDdcMna1cOQTJePURwYjF1W6aSWfFO45VabIIfbcrlSggfKVSW+N04eAUsQIuKkMbmkBMurZmJr3RJ0NyzRWgu8oNVJbVpg5NKtqltB6JTD6C0jeO2UXqu2D1LJ7XLYdjjOhMemUwsR8XDOsZLG/OLIeCAl1eVUyWrlNtnmtO5JBguT4Z9TbWnVEGhdgU0vt6FTPTYZ+RykyaW4Qz2NJoMKm438DIN9OGwKODiXG8a5z4yK+0V8en5YPQfKfzQtbkDErWSXM1PbhYiIiIgKWwEEKYwWC4kqlNGjMbgtly+qq4dsqh7V/N6oUKd1F1f201dPU+K2XEYY++ZLfGIfh4hLJqPc2iC24eJFeEHmfJC5BsT6eEU4Z0q8Cr74mxYsyut+cO/kqN7cSOtaY2m8UImtMoGnELc7Vi4YwaI4XWA+kglitTen744p8bszWN2Gipi8DbrQeWsrAXPAwWLwElQDEqEUjY+1YcuTreIhKv6LTcvyl0uqC05mJbucmdouRERERFTYCqIlhXH3M+4d15JbMVV7EqnQui2XF6qrRzyZuIt73ZA5BoxklKMhLc+AzE3RovJTGM3+KcvCXSz05JPhSr/MGSEnh444t14g4TIGHUbASF4fdu23BgbKJ5eKh3qhGUb371Q3j4KQie1CRERERF5UEEEK425svEr6jAqfajofSTrptlw+6F09ZG4Cuyb4RuLOBKN82DHuEo+O4rQ2IUluy2VFqrkjjLv0YnvKxIk9h7U8AzI3xUmHriGOctCCwa8SvNry1H5wSw8WWu/SqwSV8YaPzRWjtYocVjbmuxf1SHrYVmfWlgT9aDflXYh97MFB9c50DLwTRPCCehFNDgdqN5RojuVjuxARERGR9xRGTgrVH9x5tIJKrNYSENonnUy5XKYlrOiqrh6jIbxrW4c2Enc6d/mw79ISSQjoNAyr23IWWavIq3wcYr1XzY8znGZJif3f5PY0J6MMK8Gd6lli2UuuGc774ZvuMGpEivvBi7TRPaAF3xotFf7YBJV5MzKIA/Lr5bgfMmvgo34MqedANdqeXIr6ijL1WiqDP1CH9Q9maqjNMrQ+KYf0FE8vHMWGV3dGHrLC/9KevAcopMxtlxqs39iGzh1t2LKWw5USERERFZoCSZx5DtvCw0YuwdaZpkqp7NveoJqOxyS+c1suU4yRQ+ToDJWWeVv656uuHvEqokaF1r5VSLFaP+s8Hm1YpIa3DOEX4eEdzdyWMyS5fml4+6QaqlLmC2hYgEerzB8s9qeoBHcvXoTOOptRSESZTeblMt4v10+v+8dhDZBY8ynIRJwZWMGRE/iFMY/FYj+YPzOl/eBdet6NYnw/E6NiZI2RoFTtB3nMWBZX7O+Z4rh5yGko2BQNHkKXJXmkqJA/tiKcILLz5RXY1DoPgcUBtGYi74J5dI/J87BJzCv8CM+zFVtW1aE+n3keMrRd/M0BBNT3u3yueK/en4+IiIiICkSBBClEJV0bNlLWiEXFerqolJr7tsuKnBxy0KYptttymREZutQ/vdYy7xdmRCrVelePBAkER76ANty/Q5ePgVG5ftZ56BVc2YXEfqQDyW05XXLrlxZRkW/cbwQqfFhVu0ifh/YQ+7NWdtcRy3rS3BImEpyyLFf4/WKfq1Ez4jEHSKz5FGQizh9mpML69iFjmFEZMDKtW0r7wQUZ9DHmZfewC/q4YATX5HfPdj7i0R0TfMqDs4fVsLvq+2De3+K4eWG6OG7EnzPVqubgdjn8p0Oiy7BSzJ9jbkngkiVxppNSlM+ah7bH2rA+oCblQea3i3jv3RnYhkRERESUMwUTpJDePrQPLUdEpUevfyqjGAgdQUuPc0XObblMkEGSFlEh1iq7htEQtg8aC2OM6hE99Gi0yJ392C4fozjQ2xWzjgOhPjyzf5/D8JaS23IRidcvA2Sg4q0DWmDBdh++Fbus2nJF73O5XCpHxdvJLJ4WIDmC90atbx7QPudPGTpuRvBaj9wHfWI+apLGed0KysggfqEFCZ35VfBpq22XrNyRx8wcsb+3i+W1Hs8qf4Y4bjK3Ly6KCnkHNrzag25RKY90cxAuDCO4v0f8rR3r3rGOjOFOHza/etQ6jzgCs/PZRSL97TKwK4hg4qgMEREREXnUuNlz7vpWPS8oM2YuQafMJyGT3R1KPp+E23LeVKK6BMi77alUZt2WI0qFOs5EJbnFsbVSCZbXLdLyVgycOoDGAu3W4mkVddjy2DyUyxE8bBNklqF11Qo0zlIvj/egZXshjfThYOFSdD5cjaHdO7FuVyaCPURERESUCwXVksLs5IlTelJMXy2668x5B+JzW46IUlRSgUXFSJD0cyQ8VDBlR/39MkAhyW4SNfpoMWEyGeU0zDcCFMLQ+UvqWWHzl98m/h1G74cMUBAREREVkoINUsjuD2tkc37xzO8z5x1YkiBDv9tyROSGzAsik4JGBwRnyOSgdaplUwEnBy0k5YsbTMkyI8ko9SCG1I+ujHQxybOpdVizrBQ4FkSHlsyHiIiIiApFAQcphLOHtZwBsg95StyWI6LkmUYvkUlBoxN1dsrkoL5iPVdINpKDkubg75LMR3GhH+2v7sFB9bIwlcHfvBRbnp+H8pBYn9fHQLcVIiIioutMweakIIk5Kcj7ZlTNxOrpPkwtLrZ0NZAJSA+c+hPePTuSpdF1KKyiDPVz5qPpR9UoN4Yj1Qxj6Hg/ej8+jY7gWOgWUYP1OxrgO9aDra+r0XmIiIiIqKAwSEFEREREREREnlDY3T2IiIiIiIiIaMxgkIKIiIiIiIiIPIFBCiIiIiIiIiLyBAYpiIiIiIiIiMgTGKQgIiIiIiIiIk9gkIKIiIiIiIiIPIFBCiIiIiIiIiLyBAYpiMaaqXXYsnEp6tVLIiIiouuVv7kVW9bWqFdEVAjGzZ5z17fqOZG3lMxE9+Ia+NXLsNE+tPScwEn1sjCVofXJFWicrF5GGdq/E+veuahepWDhUmx5uBrloX60v7EHB8+o6ZQHN2L9v9yKwOWvsWHnVxhQUwvGpJux5e9vQrl6GVao6xMto+tXhNYVpWi8TXx3//AF1n34jZo+Voz19cu1QtyeXv494/E55n+v0ySDFJuWlQLHetDyep+aSkRexpYUHlXU9AqmbHscE9TrbJlRNRNbG5bgo4ea1GMJts6sxAz1dwsZNJDvaZhp/3dhxkz9s7pnlqgplDOyBYUMUKAf7U9lOkAhLwK/h85/EY8VN0cCRz+4VZ8mHut/oKaR7gc3IiD+Gxr4xvEC0f+Dm7F+xcTwNuz8l4lYf/eNsYG5KG7L5YW8eFbLueXuIjVxjJl0I+aLCpJUfteNHmzFpL6/5u9uKry6fqbfn3gPzx13nj9ebCTxe5Y3hbg9PWXsn98HdnVgw+5hYG4DtjSXqalE5GUMUniSHxPu8gHnB3FVTcmG5XVL0Flbg3uLi9UUqRj3Tq9FZ8MCLFdT8mbkBBrf6sKc8OMI3lN/omhlaH1kHsoxjO5n9+CgmpoVl6/aXKRew7lL6ilp6qtvFP9eQ+8n9t/i+vsnYtOimxC4bbyaIo1H4K5bsWnFrY4X2m7Lpezzr7Du3/6ClvDjCwTVn1Lhv/PG8N29cr+HAikZWj/N59+g97L+dOgP32T3+5cPY339cq0At2ei37O84vGZud+zMXx+l4GK9mPiPLTsPrROVROJyLMYpPCkKoyfIv7LYpBCtnh4wSeDE6N479QBtBiBgP1H8N6omFzswwtxWkxQui6i46V2tDxhPHrcV5AEf/N9aPSJC7Tde9HBLh4ecCMWyNr4wFfo+FyfYua/eyLa/DLIcA3BPwxjg3Fh+WtxYSkvtm+7EW02d73dlsufIvxYLu/lr9H9h2va8v14kvrTmHIVHTv1fTE2m5p7fP1kk3bju2DzWPeh1yrWhXa8xP89y7+x/v2jTDn4urzWKkXjI3UeOk8SkR0GKbxowd1aN48rR3+vv864SqyerreeeO/IPqw5MRLJ7zByDmt6VIuF4hqsrtKmkqfVoFn2tQwdxdZdLvJYJOUqBtWdKotL1zCkno4Zk2RXivSaifvvvllrGh3st7tgvhHNd+mtIIIHLmGzqECF71x9/g0271R3wG67Cc2WJrZuy+WRaoYtm4h3fPKNOFbGY/6dY7TLh6eNR6VqDk+Uqvi/Z1T4rqPzO/qwS3b78M1D80I1KRlT67B+Yxs6d7SxuwhRjhRk4syiqnsw4SdNuHG2D8bl7tWPf4ORbZ3ip9ZBlV+U+VfcbCqD80F8tefX+PKwXQ9LP2557kXcfH4bzm+TwQJRvunvcfMDAdM8t4l5/t52nkULWnDz0vmYMMWnpoTE+3vx1W87ceWsmhR2D0qeazK9N54gRla/givqlStVC/BRrZhXvASUxntCRzDn0Dl9mpHIMk452UKjc3oxBk4dQOOJETVVp/8N2L5/H16TfyqpxKMzpmORrzgc0R4Q89sg5mefFLMSWx+qxb1ZSpzpf7AVmxaLyr6mH+1PmLtN1GD9yw3ahZrmeA9atpuSL1XUYctjsruFEP5bGeofnI+mxTJPhHJBfO4vxecOqtdh1s9PKXHmwqXofLgaQ7tFmURBiqoWTHr6pygSx65+XEdTx/2U2OOs/v7voU3sqKE/DEfuTIaTdX2D9n/7wqGZbRH8P7gJa+beiHJVURoa+Bpdwa/w6Z0TsekuoPvXl2Lu0MlWA5a/iQpva+BmzPePD2/PoYEvsPV3dn2kjXkWiXnqFXvZ+mBo4CuH90cY66m7Zrts8RlJ3By2ieznu+jG+AnNjPeI9WsRy2uZlmI5fX3ksnyNivtvRaPREkMGOv4sljVmmlbMhovEeWp5ggf+Ij43UXm13aD/Xe7v5iWicmTsv8ti+Y59IT4n+hfXbbloya6fsX/VyyiW74cjl8en3Xfg8jfoPfY1OqLXT2z7LabvXFzm4ywD6ydzpjTPlV2S1IS462bdfwPidb04Jpss3/OvRVmbfZLMdyJGGvNT/GK+5t8zO5Ht5HZ7pr+cTsdL1z7xu5T0b5qx/Pa/Zxn5fUnluM7n9nQltfNfvn6v3Z/f3SqDPzAfa5aI6yOVQHzo+FF0/e4QPp0jr8XEdnm1Ax0x10rquupHkXLAsCgbFPuuDwMx77ch83c9L67XUkiiWb+2DW1z1QutW61YNrZaJcqqAmtJ4ccEUXGa9PRqa7BBKJr9U0za9gpusbnzX7TgcVHmRZRElcGUAG5e+SImNdk0+qqqw41TgKuhs3rFbpsobwpQSEWzV6PErqyc38qfRgUdxLzFMpY8/QpKtHaTJlUVKEoqQCFkoAvIjOJbtP8HhgadK/pfjOonNV9FVnJTaAk2F9dilSlAIcnnmQ4+5Nz3JsJfUYP1T65AmzlAoRnGp8mcRFNQX1st/h1G74dJBDXKxbEm/tOOa1vOXY0+FZU9KTRs+svnVxGS/4u/fapNiKZfGG4SFQnzBX25/ya0/f1ErLH5+tiRAYvOv9cvzszbUz6PufgSF7zrw/M0KoCSKOu/FZv+ZSJas9nlQMxfS+I2YN832l+q/4rETUBn3MHyR5LAuS2nK0KTvEDXLm6l8QjMvVlc8EZNW5TBnBaC3o/9GxzWLqTF/3LBE3X5EPusWebdEPvbkndDPA8sKkXn/fIzbbgtl2uujk9ZOXH4Dojt2SjWzy6xXVIBioyS3/fvqZwpapImie+e2BZ3qG0juzRZ1lH8XmzKdDcml/PTc8LED1BklMvldPzNlF3C/j6FVmIJfs90bn9f3B3Xacnpceb2/Jf732t353e39NHNNrWaAw1iu8yah7bHWrHmR2pCDNN1lWVktFJRtgGbRNn1DybRyuHMafTKFZt7Z0bPd0SUWQUUpNDv8MpAg2yVcGXH0/h89c9wXns8jZF3g6JS5cPN/9wift5NtICBHlyQLR/MZT4XZaSiB/41NrihKnO461/1O8/ngxh58enI/D7W3oUiX3RBsZxL5f1wfRn196v57dCXccLKqPmd7TQt1zb97vX535immR7PxWktkqRpt+pdPc6MWls6WIx8AT1IfAvuzOhAHcX4/owFWmsLjIbwzP4DpsSYB9ByUrXaKGSTq7HmHxoQsBte9C+XEt7RSE0ZKm6X/1/GYBJR/SKffkl2NeSwFDJgJv+3CVIMmC9ewq7hnF0zUaVeXlRpF2fyrs9wuI/4hl9/jeBlcYFoqaTZGY/KgKjcyG4Ol79B+68jn9Hyb8PYEIxufiwuPrVKqngq3t9tmqd8f/sf9C4HlRP1d9s5GJTLpj+Xw9ml2gdbTxR5Dd0xy6a7Q62z5WIwmnFxKPZGharUuS2nk9tatgrRt0O3lr/iJnHBGzVNbL8FGasUGP3YI5Wbg1pz8URdPm5EQFyIy7uN7dqyGftOv4iGqOzaV1zclktVpP+7+bHBmE9cLo/PH8h9JdbN5jtgrF9MheXPX5jep7oCybuq4WmmR7gVheR+/fx3i8qmzfdd5kzRj6/xaBTrb18xkJVnuW3EMWn+rTigli1eNybxt01qFILoh/M+dzG/H9yqVWzl+lnLfK2axcs7zvq0yN38dI4Xyd1yar+Zcj+I3zDzPpfl5LKW33VrUsHaRL9nOpe/L26O63xsT5fcn/9y/3vt5vzuVv0qY/j1YQQ7doZzc2149SiCF0pRPtlo0WrlfzCgX1fJFqmvmnN67cSGjn4MibLJ3e67iA+ODov/b0NFkgk0D3aJZdNPrsz9RZQjBROkKGr6V9ys3eGVlffHMXJ4wFSJGsCVrlfw+YvbMPJfzZX4e1CyUm9Af2XHz/C5pWuGKC/LvCt/dXy4MWANaRuVOa2Fw7tP4/xzr+DKWaNiJ+b329+YPsvG+V58ZelGIuZ3WMxPBjhefBxfOt7Idq4kZkYJ7tQaUoziP77QJjgQf5cJNLPgXp9P6w4yp+cw3h4xB0pGcDJO3KRwyJOs/F8/AW8wn0h/l+nxuSeiUovbDSd1p6NIbHsZQLvm1NE0YUsLhyzfl20ygk+6GXpDI3lhJZulmr59n3+l51BI4gIo4L9Ra4LaIt5/UFTCI8Q8owIIRt9pvfn3F1FNha/i4IdfYJ24GHZuIitoy6ZfTNo3G45H5Y0QF90f2AY3ilChLlrjZ0uPvjh0Wy4iEnC5ig8G9At68zTbPsnpUEMWWvqx//kbrbKcaJQPrcnx774yNUmX++5SuCIS0FpoxHJbLldcH59/FhVNUTlZZ/MdkOvXrn35ogNTOSa+72tUxTj6+y5zpnTsjFSsmpzu4svK6r9dsmyXAbHu+vqJM7VqTZQxKc7PaM0km9lby3yFdVolN5NBPpOUlrMIrXP141zrDvChteWVLKcvazL5YRL9nkW4+n3J13Gdi+MszfNfzn+vNSmc392qqEPTLPlE/B682oHNwUgL0IHBQ9j8Ug+CF9QEB0N/7I3qMnsRA8E9WPdSe/LdZDWlqKxUTxM5I5btKXEdt1LMI2u5v4jIrECCFPfg5gdk5SqIkXgtCc7+3pLvoaipSUtAefXdpzFyWJ8W7WqwV/u86BYRemVOBjeexuddzj/PsZW5AVw9L/6b8lOUrL4HRTHdTwZsclKYqEpi9pJmekDoSEy+irFHRvr1E3Dk6BHPM9zVIzV+FGmBvl7HY3DCPD2oZ9vSQlzEtcgLO8vFqrqrZbkTq0wcrzeldcwILy6I1LO4BsRFdVLBAjWShLwo3BenD67lYjjDVMU8bpeMPLFrgWGeZjT3zRRrVw9DMl0+nIc5HNCSbwq3FdkEOdyWy5X0js9wQG5SEep/cDPW3z8RW1ZM1FoL6DlU4rcQyrqE33fxW3FM/52wD1LJ7WLf7z3hsenUQkQ8nAOSacwvjowHUlJdTqN7htgmu5zWPclgYSq/Z25/X3J/XGdnv8dI8/yX69/rlM/vbt1eqm+X40GbfBPSJcftMvBRv94KaPF9WP9gDfwV+nQ3BoayEuUhogwqjCCF0brg4w9TShhp3DX+JphqdUFV5sRp/BvbpJriswPztWWyq8xd2Sa7g4S0nBWTnv4Vpmx7BSVN9+jrkIBeSYxzpzttI/jkS/l/Mb5/qzbBgfi73isk4wa+yFITDQ8Jdtglx8wzlWfFuZWOcdxn5vgL51BI82Iq+fLiYlZrbXAVg7YXhdmnV8ydK8vasmnXRokuvI11Mbgtly+qq4f4v83U9N5c8UhrlA/Zr1w9TYnbchmR3vEpk1Fqo878fSnaZM4Hf7zm4rmX1PfdyJmS1/3gntEkXuuCYA6yyRwHi/TWC3aVy5wyKse3OXeB6ZQJFbU3x5f49yx9Xj+u3crU+W+s8U/RT1BD5+M2CbQ3eAjrVJeQwGKZg6INnS+Lx5MyF0V6QQsi8p7CCFIkbIJux6hwDeFqEi0XrJ/tnDzQEL/Z/ACubHsc51+M5MqY8MBqLbGnbaLNsCSXOU2nVZBganGcZBMlt0LvqvclPolu9FBcjGnqKRWQhN8j47h3bmlB8Rg5GJzunOmMO2Bx77hOKlJ9ayMVWrfl8kLdgY0n4V1cipA5BoxklJe/0fIMyD78G1Q/fqOZOmVZuEuAzGtgqvTLHAdy8sAXzq0XCk5yv2dp4XFNqdK6hLSj5dWdaN/fj+CFYQxNjgQttqyqSeq84s99VmEiSlEBJc7MBiPJpay4mc6GC+7WuokkvuOcIJhwVuXKkAkvX9yGK+dlsMImSWeYqiSm2GIkVSdHtaYU4ke6AjO0Z7FmVPj0H/rQIN7WpghJJNNMKilnIaqYmGRCply7hHNaWpXShHcmEyXNLEp43LuT+7ti+embb+QbsORgsGHcjY1XSdeT1QmmpJNuy+WDcQdWT/IW/TASwSUY5cOOcZf4corZ5t2Wy4pUj0/jLr3YnjL53s4vtDwDsg//QKpdl3LQgiHu991T+8EtPVhovT+hElTaDrGaY0ZrFTmsbMx3L+oRZ2jKZH/P3Mvgce1hY6FVSDaUT0mzD8/gRRx8Zw82v9SBdTLn16t6Lgs5yseaZEb40Azj3BjI1U40VhVGkGJIrzQVPfD3eiXKTlV0dwqVG0KcZm9coE2IYU7G+ZUpZ4VRmXPOC+HU0uIePQ+FemVx9vcY2SN7gfowXv/4WEa3lmw7O4j35P/FNVhtGzCpxGo5+obw3qD5F9xIplmMRRV2UYpK3KfV5BMl5UxTTlpyVKPJONHJ4UQfm6dfXOdI+eL5qA83XSyL04zxIgY/k/8nzlIdr/VPUdMr2ig4UmotlpyF8wCISrVtNv9Jme6aoPIdYDwal8QZRm5SgrwEk1Tz439JYZg+8c3V8w1E52CwofqDO2eRV8nqBLukkymXy7SEFV11B9Yx2Z6RCM65y4d9l5ZIQkCnPvJuy1lkrSKf5vEpt6cp+V5EEZJv5Zy9AF7k+36zw6gRKe4HL9JG94AWfFtnqfDHJqjMm8+/Qa8MAjruh2Sk8HuWrowc1zmU5Pkh9+c/BzkITKbCyCuBWQ7Df1ZMRKXdyGiCPxCnlcRgHzbv69eeJg6AlOHH8+QIIsmNiqYT14Eb29C5ow1b1taoaUSUTYURpDh7CN+ogEPJc49jQpXpZ0o8n7D6FUx5enVMV4orR7VLekxY+QpK9A7Suqp7cIsoM0lLxhnCV5YRQcSpMdEICOqO89U/HLKWk4k6ZR6K5/T5WU5fYp4lqtVGQrObcItpeYu05W1xDtCk7By2ndK7fNxbuwRbZ5ZEWlSUVGJrQy3ulc9H+7DNUl8dwWun9DGY/NMXYWuVKVBhKRfCu1lpSGEESXz4+cxKyzIvz8AwqeGTp1K+eIXe3/GxBr0pb1b14fBx9VRTjTajv+XLK7BmjvOdgYNH5Im5FPPvTubugQ83/8QUSJPH5XO/0r4LVz7W963j8KSpMi6WRaW1bYW1D7dfXOxvMZpIZ5AcPlTbh7I/tphn6w/M30JR+dPmW4pN9+uVJTv1AdX8WEh2mL5wsrqkWjB8g13h4fUmYr240A1/27Xx+9V2iUl857Zcphgjh8jRGUytOcS8Lf3zk0i2Z1zA27cKGa/WzzqP1hXGcH7foMs2karbcoYk1y8NaR2foswa83IZ75frF7sRo1gDJNZ8CjJhoXNlK2mffwU9x7QcZlTsB/NnprQfvEvPMyAql+nkU8k6I0Gp2g/ymLEcv2J/3y2Om39xGgpWEPsr+d+zNKV1XOde0ueHPJz/rLL/e+bK4Gn0aqN3iGucJ5eabsbIIMRSbHG63qqow5rWBmx6uVXv0lFhvd7xy5tJrdXa84T5LqZOw3x5mX/sk6SPb39zAAHtJpzY73MDaE1y6FIicq9AunsM4Mv/qob8nBJAydMvYso2mZBSPMTzktk+XP34NxiJHoXj8CsY+Vg+8WHCSnOZ1bhZlNECFDHDgSbuyuHUbP5q1+P6kKZT9PlNMuan5jlB68qxzdJqwyIcjBEVSdPyTtKW96eOLULcOHliH54JyRp/Me6dvgidDzXhI/lYXIt7ZSOK0RCe6TmBk9q7Tc4eFuX0p/fWLtLLmMthFNt7bcplxAjeHdKDK/7ptZZlfmFGsuNIxTF4CF2WQIHJhX5075fjamfPwe09+p1yG+U/mma6iIvy/id6pvZ5cd4jGEE7yECa5biU34Of4Sttv2Yyaau4WN5nVMqsfbg3LboR5bIPslMt1i1RUVr368g8GxeVhufZ+S+i8ifnK5sXxx3zP3V6N4vkP3dAG15Pb00QuEssl7GM2vj9YrLYNu02TbHdlsuMyFB48uLcPO+2QKRSrXf1EEdSvASCn18VR5rg0OVj6LJcP+s89Aqu7EJin5lfcltOl9z6pcXV8RkJTlmWK/x+sc//kPi4MwdIrPkU9ISFjhXWFBz8nTHMqAwYmdYtpf3gggz6GPOye8QJSqbCCK7J757tfMRjS0zwKQ/k0J7aMaO+D+b9LY6btrvk76+o9zlUVlP9PXMnM8e1d+Xh/GeRg98zVy6i45dH9e0y2Xwzpg2bWqtRLq61gnbXYeL6bGuHnjRTdunY9Ji6iWSUNYIbF45ia4JhSP13i/mI/4NH3A4Jn+xNISJKR+HkpDjbic9X66NmWC59zwfxlRwmdJv90KRXtv0Mn+8Iqq4fyvkQrry7TXxedIBCSi9ppgxUyPwTX0Ut51U5T205f+/4uVow5rmntbJmV8U6johKpNMwqm69fWgfWo6EMKDX+5VRDISOoKXncCQXRZS3D3U5l9u/D69lMR2FDK60nBLzVq81oyFsH7QsjGsHt+9E93FzMGIYwf092PDSHnSc166+s6gPm1/tiZq/qHhdEMvwx3h3Bvqwa7co45uHNc1xTpxa0M58bFm/B/pxneGkrVql7At0q4slneq/vfNrnNMqLhkm5/lvw9oFrnWUsWsYGhDzjRlmzUpW5ozx6yPj0sejulnIZsspJJg7+LtL2HDAYRl3Olfk3JbLBBkk2SC3q3qtEevd3W/sX2NUj0TNxCN39mO7fFxD776/xKzj0MDXaP91vH3ntlxE4vXLABfHp7Zc0ftcLpfqy38wmfip+i4GVQJWw5D2OV9n6LjRhyzcID7P+A7pkvvued7n36DL8lsWq1wFn9bbdsnKHXnMtKjfXuvxbPz+Ov22ufs9cyMjx3WOpXR+yMf5zyQnv2duaKN0RF/rGNdavTj3PTUpykBQT5q5QQtWRF8n9aO7Y6cofyhBkL4GzctKxeXPUex6X01KwsCuIILWS3MiyrJxs+fc9a16TtexGTOXoFPmoQgdwZxDzCRUeMrQunEFGn3D6H62Ax1J97PMpyLVBFzeXS3gyssPbkXnohvFBesw1rlsxu6/eyI2yYqBqMilMia923Le5PZ4GCPHEXmcOs7wtahgOrVWKkL9/aVa3op0fg/yKgO/Z5QM/m7ZE9cyT4prmcniWuZVcS2T4aHc69e2oW1uGtdJC5ei8+FqDO3eiXW74rfYIKL0XOeje5Dh5IlTejJNXy2660z5HqhAXETHG7IJpbjoeX5pRppuU3KMkSx6P3F/QT/w4Vd6Vx//rdhyv7l/dnxuyxFRilSehvhJP6+GhwouVJn4PSPyIn9zK9rmiu/w7r2ub+ToQ5cOo/dDBiiIso1BClLOYY3swiGe+X2mfA8PLcGjGUhKSTlw5hDWvSmTf1ajbSMDFbmhujcMfJXmnbBvsFk2exbPyv3m/tkTEyTudFuOiNyQ/ftlUtDogKBfJge9X7VsEt/LwkwOmqnfMxrr/A+2WnJCxH/k/3pEBig2yW4ex3rct4CYWoc12mcEC6S1KlFhY5CCIs4eRuP+I9iuJdSkgvT+Hqx7ViWlYvbprPPffbOWrCsjQ37++Qub/stJcFuOiJL3eWT0EpkUNDpR5yaZHFQO2yn7/IvvYzZzw2RLRn/PiDxm6FgPWl53kyyzDP7mpdjy/DyUh/rR7uoziChVzElBRHnCPrlkxpwU5H3+H9yM5rk3wnfbeG2EAINMQNp77Gt88OerCRL3EUn83bKX3ZwU7tRg/Y4G+I71YOvrffx+E+UIgxRERERERERE5Ans7kFEREREREREnsAgBRERERERERF5AoMUREREREREROQJDFIQERERERERkScwSEFEREREREREnsAgBRERERERERF5AoMUREREREREROQJDFIQUXqm1mHLxqWoVy+JiIiIiIjcGjd7zl3fqucUVoJHGxZhVfEotu/fh9dG1GRXjM8CBk4dQeOJc2o60RiwcCm2PFyN8lA/2t/Yg4Nn1PTrVhlan1yBxsnA0P4erHunT02nMaNkJroX18CvXoaN9qGl5wROqpcFK6PrN9bPfzy/Zxa3p3vi3LNRnHt8w+h+tgMdaZ2Ljc8S57Hd4jy2i+cxSlYmj0O63hVcS4oZVTOxtWEJPnqoST2WYOvMSsxQf3fitlzaSiqwSJxwJf/0CizXn3qIvCgQ26NhZva3BXmIPJG0oXNjXWxlJFmyBYUMUKAf7U/FD1D4H1yKLS+L+cnHk0vRWqH+MNZUTMP8yfrT8sV3XvetS9zu94L7nXdDBgPUcnbPLFETx5ixfv7z6vpVLTB9B5wfnjvuPH+8XCemivOYT39avsyL5zH31y/+hXVYv7EVnTtEefXYsrYO9VPVGwpaBq7riDykoIIUy+uWoLO2BvcWq7OYphj3Tq9FZ8MCxxOa23IZMTKIA6P604FTg3hbf0pU4MTJ8JF5KIeMlu/BQTXVjv/BVmxaLIMZyuRqND42RruHDJ5G7wX96dD+T+Jul7HO7X73/O/8yAk0vtWFOeHHEbyn/pSKGRW+8IWkv7zCO4GUDK2fZqyf/3h+zyxuT284I85jIf3p0O6xch4T1yxrxTnp4XkI+ErVNF353Hloe74V6xeqCUTkCQUTpJgxcwle8MmLz1G8d+oAWowLqP3iAkqe1Ip9eMHmbojbcpkzgtd69Hmy6SKNFf7m+1RT0L0JmvPVoHmxvCAYRver7Wh5oh0b9g+L19VYENDeMMZcRMdL+npe31093O33wv2dT1UJHigXyzvah+2nxAKK5XtgTDamGOvnP4+vn+yiY3wXbB6NJ9Lqy5oFvF7yBnEee0r8bq8U57Ex0dVDtjBYgca5+jkp+OZObBDrJtevZeVOtO/uxxBKEait0d9ORJ5QIEGKSqyeLi9AgfeO7MMacWIN94sdOYc1PepOT3ENVldpUxW35a4nxfi+volSN1U2m1PN5ZrL1MQkuC1HGTQRlao5Z+pEBXSZONmHjmLrrotqmoOKidBmczyIjkFtCgY+khcENKa52u/X0e+8atY+MDSI1wZDGBC/w4sqxmiXD09L4/xH1yde93hAitcvC+drN1Ugu6Y+24HN718Uv7mGizi4aw/WPbsTLa8XekAmnes6Iu8pjMSZsn9lrfjmxUvcZbwndARzDqkIfCrlLO8xkjfpiTPflRfB86dHmhGPyrt1R7DmbPRdiEjSJzsDpw4kvnNRUolHZ0zHIl9xuCnwwGgIv+g9jLfjFi3BjKofYtP0W+APN3cexUDoFDaI7WFZd7HO3dN94n3qdTzm7Rmlfm0b2uaqF1qz/+SS5LgrVwa/ONGs+cltKA831RvG0LEgtooTS+SEYyX7Hzb/RDbvUxPillHRdhzFhqcOib+XiWW9D01zS8NN1oeOiYr56/JvZm7LmUytQWtTAPPNZUL96EqYjDKF7SKTXP6kWrxPvY7nWI/zCVt8TufD1RjavRPrEgUpUIP1LzcgcFx83nb98/RuAED3q2K/qwqsowqxXe4X22WWabtcENvll2K7xJQV+0EmrZT74SW1H1aJ/WAue1zsh+3O+8EfWIo1S8Q2Unkl7AztF+v9jlxvNT+H90beFy395Uxtu+SDi/2ei995U7nldU14wRfCM2/9CXfW1WKV0RJDBjrOit/ymGlaMRuV2PpQLe6NN/9oanneO9IlPjdReXVegf53eY5I6XyUcrloya5fBs5/qZzHzBzOmwdO/QmvRa+f2Pbuzn/pr5/MmbJ6uuySpCbEXTfr/jspXi8Xx+TPzesY6hNlbfZJMt+JGGnMT5kh5rspwbaNbCe32zP95XR/nZXb6x5X1y8qYeEH8mbCI4FI14bQMIK/3atV0K2McupllKTO856+fomsX/DNdrH+anKS/M3ivLVMnLeM/WW3rmJ+tvvE7XZxKNf72150RO+/TFzXuVpOY99F5i2vc7u6DgFN8lhP/rtB5KQgWlLMKL5F+1/edXI86XwhTvbyf18k2dLyCv2bk1Q5cUE0TZtg9f0ZS9C5WFyghS+YBPH83tpF+KiuUk3IDNlk+SMxL3lhbJw4Jb9sqrw4TpIrccLdKk7aneKiJHJhJ4nP8dWi86EleDSqaFIXaF4hfkDXi5PMJpmk0dKXUPygzm3Aph2taI1JeiRPTG2q/6GapIlXRhHzuEPNs830oy3JvoubnJISuSwnT4KdzzdoTREtZXzVaHs+zl0XF9slqRNZAvW11eLfYfR+mODCRXMJ52SOhll68i29oiqWVVSoP0hQmZbv7XxMbBdTRVwqnyy2y2NiuzzosF0mi/0gKvHrnxT7IbrsLLEfnrTfD/WrxLK1im0ZJ0CRUS6X0/V2yanU97vb33m35XS34OeywiN+c3Uyh8VMPFoXNa02s7mL9HNTCHu1wMc57JX9vxN1+RC/7atl3o1Uz0duy+Wai/OYVmEV6+Z03lwl1m+rTeuZ3J//ZMW6SeVMUZM08dZNEdtimto2skuTZR19NejMdDcml/PTc8IkGfzJBJfL6fo6K6fSuH4RKpvE7624prDkXhDPAw+vQOfazHZp8Pz1SzgJaD8OpxigiOa4ruIRHaBwt13Efl/rXK5R7D+7vBnpXNe5Xs7wvlOTBCO3R9PtagJRmgqiJYV+x0s25ZV3ndTEGOJkJe/2wBg2NBKlj1/OeJ95uNFIWUlG5X9x8oSKsJdg+cxavBBuXhzvs3XypNgp3h/3Totx50PetTt1CttORO6saHcn5Mk/vG7qDxpjvYXRELZb7hzJZf0hfj7dhzOOy6nKp3THRZHNFx/RT6LJ3VVXUionTmQ7xMlWPg31o9sSSS5DffN8NC2rRigqQi5/eDfJLgmiMh1803T3QJwYWx8RP8jaD2s/2lfuMSWFikTcdcPoFmWN+fkXLtV+lCVrRN5tOUG1StCWc3cQu3ZFovGy3Bp5EpCfFxORdrddIlT5kNH6I1nGukZvO2fhCmqYKPtEgrIBsV1a1XbZL7bLO6btIls7yGCC3C6Wu/Ji2SwtG8TfO8R+CKr9IMrJIIQU7BDbJag91ZnmZy1TJ+YlE4QmscyKsb4JW1KkuZzJb5f8SHW/u/udT7+c/M2NPmfYTXP+/FR/Q9X7bVqD2J8j3J6PMnUeS+McISR1/gvvHyGV85ix3bS74H8S62YuY6yfbC1z2CEJY3rrJiWzfsZ7tPP7EVPrFVHJfnS+qDBruyF6Oa37TzsmRVlju8jrAhkUkGL2X/h6wlnsPs/E/KLLzBTXLnI423j7wCrx9szMcqZ2nWWSg+ueTFy/GHe19Tvh8prgPrRpn5lciwJjGeIuayFcvxjLGK91aBzGdgge60dgrvgcsbztb/SK7RpZXv/Uixgwr5/b7aLK6a0YrPOI7L/o/W6W4nWdy+WMtAqyHp9+cXw2i+NTD6zZ7Xei1BRAS4oS3KndKBvFf3yhTXAg/i4TpMVIVC4+7UR5yLiwk0bw9ol9aJHJzoR7KzJxF0qcdMUFmKT3qbY2/Tx59jAaj2i32mL6Lc+YOV1d2MmLrMOmCztJLqsou/9A1MVIhpw5hM3h5EoOJzE7KZTzNwfUiUz+6O4xncikSF9Cy4lMXAysUSd4+SNpad54pg8dT+1Et5a5uhpNTlF+eSJaKX5gTWUH3t+D9mP6c195JsqJi4qfyBOEvGgQy2k6QUiy3Lo3+8WzUsy/2zo/V9slI1Sfx9AwPtUnJHb+ciQXwQWxfV6NOsFW1GHLk62mFgBiuyxR26VDbBdTRVwaCIp161DbZY7DfpDzeULsB1Xxl2S59uP6c9+UqO055Tbtfzk/a5lDal5ZSvSZ0nJmYLvkUkr73e3vfLrnB7HdTokKjvazOYJ3h/Q3mad98qU2KXOqKrTf7PcGTd3ozg5qeTMSjfLh9nyUm/OYe67PY+Lc2LK/C42iTCRAIenr94z2O38L7sznzfESUVFXAQpZ+bV0rxk5h9d6DmC7tht8+LnTXfxRWckXFWdTWXldoK+fOOUVZ3gFU5yf0ZpJXr9Yy5xQ1y4+3JeNfDApLaf76yyLbF/3ZOD6RQssvG4EKCR5TdCBDbtl8mJkKEFkYVy/+Mv1c3u6ZIBCbtcWbbh16/JaAhRpbBeIv214VhwfNvOQ+0+/jrwNFXFa0STP5XKK47NJBSiij88BcXxuDh+fROkrqCFIc28UBwZNFxQmJ7VkZ8Itt6bf1NIYG1xcoG1zCibYXsSqDPHy4qc3zl0gy8VbISnDj+epk/UbcaLClh9zoVI1WzsWdIjiXkTHb+WPL1A+b5qlyadOzs8+Uv3pkH6St5diOaMZojhR73I6Gb//CeSNdOtyutwueaDdTdfu7ktieW1yJvjniL9PLkXovFreCrFdZCuDC2K7mFsRmAXVdvmRw/6T81GvzD49H2//xRcd2EhfisuZ9nbJHVf7PU/OjMb+Ppqnnf7CIbrhkrWrhyGZLh9uz0c5Oo+5lt557KQxuaQEy6tmYmvdEnQ3LMFHDxktZYrx/Vu1d+THrapbQeiUw935Ebx2Sr+qtw9Sye1i3woh4bEpgz5RI3oYD+cbF2nML46MB1JSXU7X11k5loHrF6eumAMfquTFt09M//xwHVy/WBzrSS4o5Xq76MIBj6llqF9Yh/VrW7FlY6uWcFVvvVCKykzElN0uZ8LjkyhzCiBIYdzJSnSh4ZSlO8sXKLJfpHrqmnERU1yDTnFhJS+uYh+qKayFsc5f4hP767cCZ2QqvozBFH4Mjcj50NAl7X9b54b1k7XMI6FNyAPjx943D5vECUiehGIfqkmkhbvtknOy24KWh+AoNjzRjvbjpWh8bCnqK9TfNeKC5UfygqUfh42K9+1qu0wW2+VlsQ1sH3bbxb2B85e1/wOtUcsnc0Zo3SvEuTzPlel8bBdXXO13t7/z6Z4fcq0S92nfXR9eiPqNNyrUaY3y4fZ8lInzmGvpncdkl4KtDWIbLl6EF2TOB5lrQKyPV4RzpsSr4Iu/aZW1vO4H906O6s2NtNwtlsYLldiqul7YBQNzyvV1Vm7l5PolE9c9BXL9MjCkn9vTDczE3R9mrreLTiZL1UaBeX4F2mROEpkrwpKzI0NcLmdSxydRhhRESwojKh43El9yK/QWUMaFTqSZbvxyKro+Ziv6RPlgdE2Qd9H1uyUHt/cgCJncsRWtRoU1MF/LzTC0v9e2RUHOhLtY6Mknw5X+x9RJ+niPc+sFMnG/3939zrsvlxeqq0c8eb2LW2i0/AMqGeVoSBut5Jn9B9AiHrK1gNHsn7Is3MVCTz4ZrvTLZK1ycuiIc+sFomzywg2pZC2U+cv0vCWy63Bwdw/an92JDXJ41JXt4W7DRNeLgghSGFH6eBdvMypkwiMhNBhu/vf2YLwmlLpwudFRnNamJMmIyqdazo5xF0UmUotqkhnzsE3ulYE+t56+g+OuD155+UT1zIYRRU4lt0KmGSdPmdBJnIDiPmyTIGWgb2LKJ+5LOCe/VgnLTUSllhjyMgbDzfz7sPlVWWGVd9ZbsT5Qoyq0/egyJ5j8TG0XOXzlE2Ld4z20ITwzRe9ioc07bBjB/T3YsN3aXzMv8rZdUuF+v7v9nXdbLh/0rh6j2L7f5rf9LZWbINEoH3bcno8yeR5LW6rnMeMuvdieRw6Ic+NhLc+AzE1xMtUujjk4//nFtnbkqf3glh4stP7u6MPctsQbPjZX0r7Oyq2sXL9k8rqnUK5fzpxGr1YViJODLJNcb5carFdJLLvf1HNfyDwRMjfFQKpdX5LZLmnuv7jHJ1GGFEZOCtVPUDbTW22bfKkSq7XEVPbJyJIqd8rupOTUhDiSgCnusHfJGhnEAXl+9013HobMlurHLJZz1fw4w5CVlDj/LcxFoENmq5bN0nbEGWbKTtLl+nBYixyLys0jDsN+SlPLLH8L97ucG3AYpiuSMGjo6Gmbk2eOGCdPx+V04m672Ev1QuEiBj+T/ydbTrzP3Mx/MFJhDbQ2aHfTgx1ReRkGxXbRhq8U28XSRSCLAkvRNgvofrUd6ywV/o6YBJV5k7HtIi6GjO9fhoeji3Cx33PxO28ul2kJK7qqq8doCO/a1qGNxJ3OXT7cno8ych7LWkU+zfOY3J7mZJRhJbhTPUsse8k1w3k/HM/vGb6eyIeqBVp3JRl8a7RU+GMTVOaN6+usKFm+7kn/+sUpZ0GGr3sK5vrlIj44qt+AKF92n/OyypFTFmYgiOF6uyihfnxgSSRqKEPyp/0ktovL5Ywcn/rw4jGmGt15EsnFdQgVugJJnHkO24ws5LVLsHWm6WJFGyfbGLosOiHSOazRsjWnWi7i3lo5bnalpVxk+KsQfuE4pFoqjMRZ4iJtsVxOMT/LSVQOp7YA3Q/FjtX/9klVgZL9LBsW4NEqc0GxvuLioXvxInQ6joVvvUC09ieVicicz+b1TapZmhD3xz9KKuUOdh3VfxBlv7mNS6NOIuIktnAptjy/ApvMP3JnDqHLOAk+34r15jLyRBQepqsfXalk5844IwGWWs7mGvgt20IOOyXWb8fSmJOBq+1iYb1QqDfPV0vY5HyyPnjEITO1hfh8rfuE+HzZzD9gfe85WdlWAkui8xWI7bJPbRd55/1BsV0sfxfL96BYv5djt4tb+uge4uLOC6NiOMrMdtEyqxvfP7cXUo7S2e/uf+fdlcsUY+QQOTqD9Vxh+T1VXT3iVUSNCq19q5BitX6pno/cljMkuX5pSOs8JspsMi+X8X65fgkvlt2f/5I2cgK/MOYhz+/mz0xpP3iXnnejGN9PJ59K1rm/zjLL+nVPBq5fAg/LQIgc+lXJynVP4Vy/DOzaq0acMC2r9hfJmF8DGh9Ofn86c79dNGKbrLFbPrn/tMSZ8aSyXVwup6llSpvYd+Z5GNsxmbxY2b0OobFi3Ow5d32rnnve8roleMGn3xGLIYeiksOQqZdmqZcrURcOoxgYLYbftqhsshtnLG2T5MaJj7zPkVhWmc06Zp4lM8UFnPlHLVqCZY1bXg7xZb9dI2MlS8NJj4mccrmpdeKHb57eTNGW3WeUWcYMjxWvjPMy+W3HDndbTmf8zVGoXxs1JOZzXW0Xk7jl5VCq9iNPJD8Wt3jfk+J9WvP/WEPHj6JXnOgaZ6l1l90YtkfGMddGiJAJGJ1cENvll2K7hLsViP3wpNgPk8V6vyrWO2o0Ccn4zKH9Yj+Yu5jI4TAfi7ctxfKK+fXu67UMF2rHcR5haSynkPp2sYo+3uKOg+9Kevs9V7/zy+v0ZJXvHYmMdGD8BieaFs3xt1s2LT+kt96wm1+sSmzVkveZf7ON85G42B4V+892Fe1+492Wi5XM+jkxyiY6/7k5jzkulyT3uagJvTDdF3+buzz/GZJbv8i+sBdv/znvI8d5Vy3ARyphZVyW/ZfG/BLuO3kMhnDg1J+ihpeNlXh7prGcgvE3R07XWUpurnvSu34ZCslki2qyRfLLG++axaxwrl8Sb1NtKM6okS6S3Q7R3GyXuGXE+9uPAm3LqsVytjsPz5ridnG1/+LNQ7w/+Fk1AnPj77/o+Wb+OoTGggJpSaF7+9A+tBwJaRdcEaMYECdaOba604WEXq4P742aC6q+knHKyZPVhp6umHkOhPrwjMPJMR0nT+zDnP1HsD2k+k4axHIby2o7z5ETaHzrAJ455bBt5Dji8ZZVlhfztW4f/aJi+5E/OW4fGQ0PahFV+QOz1/lkEiXlcmcOYd3KnWjf3S9OvmqaRpyMj/Vgw0q7H8KL6HiqHRvejMxLF69Mfgzs6kDLsz3oPqb6CBpC4qS5WyyrHEfcblldbRcTWV7MNyjmYzYkT0pvxktk2Yddcrx1LeJvvWNh1YfNL4nlO25dL1nZ7+4QJ6Tth9CxXay77AZwQbznvDVb9MA7+t+6o8pDvFfLE/GSc0U8ZYOn0SXmE0/5ZFGxbl2B9cncJsiidLfLwK5g1Hci09Lb7+n9zqdeLhPkb3eL/P1VrzXy93PQWBhjVI/ooUejRe7sx3b5GMWBXjfnI7flIhKvXwa4OI9pyxW9z7Xzlp6j4u1kFs/l+S81I3hNu5aQ1yFqkibJc7TXjQziF+K6JR5/sQ+rahdhq22XrNxxfZ2l5Oa6J43rF3H+3qqVtV4XDB07ivYkAxSpKJzrF/M2NZeR89O3jWPF3wU320WWid5vWpBA5ag4aPkgByluF1f7T81DlomIvH9X3KH6ddm/DqGxoKBaUpiFo+HiBJ/oTk6+Jb4zQFRoIndtkr0z412qZQOOigq+U8uQMtSvWqHlrXBuIVFgFi5F58PVnr6D4fZ3vpDOD4klvnNsz205olSo4wx9ooLvlHCyBMvrFmktiXgdVBjctiAgSkkBXIdQ/hRUSwqzkydO6cnSfLXorjP3R/WeafGyehMVpIvoeEP2K5X9GR36VhaKimmYPxkY+mO8ZGIX8en5xHcHCok+3vkwej/07oWB29/5Qjo/EBU0NYx7/KSfI+Ghgqkw3FEepwsAUYYUwnUI5U/BBilks1iZFFNWKvziQrTTGJf7oSXpZW5Oh0yCVWVK2ibIBF7y7oFs1nlgkHcPaAyRTf5k00QjgZKaXKjKF9+H9YGymH7V/ooatK5qVXkgooZLLVRT67BG9gc9FvR4Kxi3v/MePD8QjWH+6bVaUtDogOAMeV1UZ+SBCBVsctAxS41qYT7vyQSIev4MVh4piwrmOoTypWC7e4TJE+CM6VgVTpiWv6at8RIyyX6njQXf7JjIhkyi9Egput7Yg4MFeqKpX9WmdeWIK0FCysIgLkab54sLg2qUh/rRLvu5qr94mtvfeQ+dH9xjdw/yNiMpbFwyx0echJSUH/ESJ8rcEOtejyQ1JsqMAr0OoZwr/CCFl8ghy2bU4ufigjgclVbJmNYkyGhNRPnlD9SheUk1fJNLLVmrjVE9PghejNMdpFDoI7P4xMXnVnHxWfjrcz1gkIK8b0bVTKye7sPUYtP1j2CM6vGuuAZy7g5CeSOHpmy6D01zTec9mTTxt3ux+X22oqBs4HUIJYdBCiIiIiIiIiLyhALOSUFEREREREREY0lBBCnuuCM6ld3YwvUrbFw/IiIiIiKizGBLCiIiIiIiIiLyBAYpiIiIiIiIiMgTGKQgIiIiIiIiIk9gkIKIiIiIiIiIPIFBCiIiIiIiIiLyBAYpiIho7Jpahy0bl6JevSTKu8BSbHm5DZ3isWVVHTh+ElEBGIPfW39zK7asrVGviLxl3Ow5d32rnnuWHALx008H1Kuxh+tX2Lh+lA/1a9vQNle9sOhH+8o9OKhe5VxFHbY8Ng/l6mXYhaPY8NIhxDuSMr5OC8VF5cPVKA+J8m+I8mfU9LwowaMNi7CqeBTb9+/DayNqsivGZwEDp46g8cQ5NZ2yRlRQOlur1Qsg2NGOzUH1IiU1WP9yAwLqlTS0fyfWvXNRvSLKoZKZ6F5cE1vhHu1DS88JnFQvC9aY/t6WofXJFWicrF5GSWb5ZJBi07JS4FgPWl7vU1NzpQz1zfPRNE+co31qUr6vX8hT2JKCiLLO/2DkDkTnk0vRWqH+QJQtsgWFDFDIi56n4gcoZlTNxNaGJfjooSb1WIKtMysxQ/3didtyaSupwKJi/al/egWW6089RAZRxPZomJn9bUHkUlHTK5iy7XFMUK+zJaXfCRk0kO+J892ZMVP/rO6ZJWpKYRqL1wX+B1v19dEesS34LH9/Mv+tMQZ2dWDD7mFgbgO2NJepqblRv3YF2paZAxREVgxSEFFWyZPypsWysqhMrkbjY2x+nxnyrkM7WiyPPN+FGDyEdU+I5Qg/epDsjauDrxvrEHloF1ApK0PrI7I1xzC6n42/PZbXLUFnbQ3uLVa1fk0x7p1ei86GBY4BALflMmJkEAdG9acDpwbxtv6UCkIfdnX0Y0i9ki2MtrIVRR74MeEuUTs6P4irako25PV3IhkjJ9D4VhfmhB9H8J76UzYV3nXB2P3eykBF+zGgfNl9aJ2qJmZdGSpu158F39xpOuezFQVFMEhBRFlUg+bFpeJ/UVl8VZyARKV1w35Z6azGAnO7SaIM8jffh0ZR/xjavRcd8VpQzFyCF3yy8jCK904dQItxob5fXKjLIECxDy/Y3NF0Wy5zRvBajz5PdvUwkU27PXB3MpGB4J5IIC9BFyjKliqMnyL+y2KQIv+/E15VmNcF3vveXkTHS2p5tEfyNwSiHXxdli1F4yM5/v0MHcWu9xmkJXsMUhBR9lRMhNaS73gQHYPaFAx8ZLobQZRx4gJY9rEVFz9bd8W7+KnE6un63c33juzDmhMjkf7XI+ewpkfdUSyuweoqbarittz1pBjf1zdRTvmn3KaeZdswzn2mnlJhWnC31s3jytHf668zjr8TjvJ2XcDvrbM+7JKtFn3z0LxQTSLKMybO9ACuX2Hj+sWjkk0d70HLdj0pk97ME+h+tSN8geKoogat9wcwf1ZpuFno0IV+9O7rRUcwugKqkkhBT9Aoyzb/QwCByfKOjXBhGMF9e7E5Y+XyS08ymUSSKSORpWPiSiP5lryrFbtPYvaX3T4R+3er2L/2R4k6BpJInGlHT+x1OflkWguXovPhagzt3ol18YIUVQvwUa24VI6XIM54T+gI5hxSLRZSKWd5jzVx5ruyEjN/eqQZ+Ki823oEa85GZ9SMJMm0M3DqABpFBSiukko8OmM6FvmKw3fJBkZD+EXvYbwdt2gJZlT9EJum3wJ/uLn6KAZCp7BBbA/Luot17p7uE+9Tr+Mxb88M0o7VH/UnfZz5A0uxZkk1ysOJ54bFsRzE1t+JYzn6t8mSgE9+V/Zi8P770BT+Hqiy0d8Dp0SyYfbfu3wrqroHE37ShBtn+1Ckpl39+DcY2dbp3PKgyi/K/CtuNpXB+SC+2vNrfHnYbo/4cctzL+Lm89twfpsMFojyTX+Pmx8ImOa5Tczz97bzLFrQgpuXzseEKVqVVwiJ9/fiq9924spZNSnsHpQ812R6bzxBjKx+BVfUK1fc/r4YiSzjlJMtNDqnF9t+9/W/IZKc1+67L+YX8/0Nq8TWh2pxb7zlTlt61wVe/t7q66GuHWR3zCes5y3L36PPieZ5hrdNGeofnI8mc9cYcQ3U/kvxuTHbyZrcM+XEnjKP0/Ni/jlKoqldw9wutsFTXmiVQl7ElhRElEWXcO6C+G/WnVpf0/AJWpxkP4h7ISIqzqta0flYAxpNlWGpXPZdbV2B9U7NQieXolmU3STKhgMNkngeEOU6VzkMt+W23HVE7j/bfSIeXrnIqK+VF6TD6P0w/sXZjOJbtP8HhgadL8S/EBVy+b8vkpxyeYVeyUmqnKjYT9MmWH1/hqhILBYVAXM/dfH83tpF+KiuUk3IDFlp+UjMa5WpkiL5ZVPzxXGS74nKzdaGRegUlahIgEISn+OrRedDS/BoVNGkAhQZVC++r+sfjBqZQHxf71BP/YE6rLdNyCcu5p9swyZReYlUdCRxXM9qEL8B4nMD8ZLIlaLxsRVos3wPVNkC6G4Snx8TRAV90tOrrcEGoWj2TzFp2yu4xebOf9GCx0WZF1ESVQZTArh55YuY1GSzVarqcOMU4GrorHjeIj5blDcFKKSi2atRYldWzm/lT6OCDmLeYhlLnn4FJQuiylRVoCipAIWQgS4gbn9fMsnxuy8e2Qk+JMvtdcF19L393kT4K+T6iuU1Byg0w/g07nZy6cxp9IbE/3P1/ZITvsjvNVE0BimIKIsu4oM/6n1N214WFxfaHYR+tCe60xmYr1WEZauJ9ld3mvpc7kS71ndVvKXVKclWNQKy7PGjomxsOYgLEvsAh9ty14NSVN6/NHwhGb1PNvwu10OXOTGScV3GYILhRqfdqteoz4zGaUow8gX0j7kFd2oV8hLcqdc9EpQzElsa5cyKca+oNAyE+vDMftVH/a0DeOaUyoTpq8VWSyUwkn/C/Ggx3h9P1QLtjqts/SBbaYT7xMvyR0Lad9A/vTYm2KDdTdWCKOLpaAjbjxwwzVsuqyxbjO/fqr9bc/aw6T2qKbu8GxueZnpkqBXFp+cvw7dYVDC0TPmtWPMj+ftyG5rEc5k9f1PrPO2uovV6XrYckoFI9dKWDEze5260gcnzsObB3GbJzxy9ZYMMNMhWCVd2PI3PV/8M57XH0xh5Nygq7z7c/M8t1kCEFjDQgwuy5YO5zOeijFT0wL/GBjfKK/TPuetfMenpn6LofBAjLz4dmd/H2rtQ5IsuKJZzqdyz+jLq71fz26Ev44SVUfM722larm16K4nzvzFNMz2ei9NaJEnufl8yRXw3Z6jvvvj+PrPf+v1tOZnvPDZurguus+/t5Gqs+QeH9f3LpfjXT66J/XJU7pfbUJGzBJpEzhikIKLsEhWJSEZsWcGNarYvmziKSsUW8wVCcA82vNqOdS/JJo3mO+IXcfCdDrQfl8/FidThYkRr5rj9kKk5pF5OT84FBGbbt4pwW+56EJhVrW2fFpt9EtPENm8molKrXw3jU32CAyPYMIr/+EKb4ED83TYWkKhcfFoz7UMnTF0tRvD2iX3hwMO9FZloTVGCR6frd471PvHW5t0nzx5G4xF526wYiyqsNaQZM6fjXvlEa/J9GK9ZuqDIZRVlRcVnTUyT+twaeGcP1r3ag+7j4vs5uVTdXZX/68G07g7jeNXerpMBUPOF//EebFABtw3m7P3icxr/Id7dVdncWwXqXj1q6U9fvnh+JIAaM9qNeIj5eFFR07/iZi2ZpKy8P46RwwOmyvoArnS9gs9f3IaR/2quxN+DkpV69PbKjp/hc0vXDFFelnlXHmc+3Biwbs0in35/WGvh8O7TOP/cK7hy1qh+ifn99jfxgwXne/GVpRuJmN9hMT8Z4HjxcXzpdHzKVhXy/6wlzUz39yV99/p82u/MHPH9fXvE+v09GSdukjOpXhdcd99b4/dsGEHxO2asa25uCpSiMrMN+qKUwd+8FE1zxdOE52q6njFIQURZozXjlE0ztVfi4sCmH6V/jmy6WYrQeWvz/HDFt6IM9bLZ9ipxwaLukLbNkn8QJ1I1hJXVMHo/sm/qH07OJZtSalPM3Ja7ToiLwpT6t5KDURwYtK8lnBzUWzfgllvTz/hfUoFFWkuIPmxzqqydHdRaPPjLK0zzK8ED5Xrri+29cfqkWyo+eTTYh47tHdYKhKzAvLTHJm8NUD/b6J8uicqRqS+6zN7fpQVAlcnV+LFDIDTYYeqPLio0W40WVxrnAKp33YObH5BBrSBG4rUkOPt7S76HoqYmLQHl1XefxshhfVq0q8Fe7fOiW0QUiYq0pLXY6HK+N6x1B7EYwNXz4r8pP0XJ6ntQFN3QQgY44gXQVAuO7CXN9IDQkcS5avLEzXXB9fm9lcGbDi0fVuTbkd2bAgNDl9WzLJA5L3a0oXPHCmxaJvZvqB/dbzAfBTljkIKIsiNgdA84qt0FaD8u+4MuRb3lIqAMP9aaaPfjcNTYWXp/cnFCk31IZbNt2Y9U3iHNBPE5rvpBui03Bgydv6SejQUj+ORL+X9Ul4UYTqNUJCqXJodcFim5VfVDL65B50NN+Mj2Uau3mLAw1vlLfOLNOo6NMrQukZUYcdErKx2zAg6VlDJUfE89lS7E3sU7+LG7u6UD580X904BVA8zWhd8/GFKCSP1QEMI3wRTrWr4USRbbSCIb2yTaorPDszXu5CEYv9+ZZvsDhLSclZMevpXmLLtFZQ03aOvQwIT5uldRa6Zb6NnVLq/L+kb+CJLTTTS5eq64Pr83gY7YoM3Y4n8+o3h1aMMYJCCiLLAqDTIuyR6pPzgdjkOdzXaHmuN9BlVTTiH9vdam3rKCxkZmJDNHS/0I7i/R8uDsEHlQtC7exC5d1pdxE8tjtMZvORW6F1zjQq7UflIVE61Yiioin7h8j94nxqdZg863tmL7guJmnxnWwEOdahaF8S2WojHCDQM4WoSLResn12F8VrXEucuF0YAxD6YMIAr2x7H+RcjuTImPLBaS+xpm2gzLMllTpO73xeTTAQqPSfN64Ks4xCl/vIsDuN85hDWrWxHy8qdaN89jHKf2O+PFHqiYcomBimIKAsmolLrT3kZg+FQeR82vyovSOSdE5mFuyZ897PL0o2gButb1YWM6lO++Z0+LQ/CgCUXggu3l+pNTG3uxMTlthzl2CWc07q/J27xcnJUjzZYuzpYzajw6RdQoUG8rU0B3h6UM0iy3OgoTmtTkmS0fki1nB1j5AA5vKE5aaXdw3aowQwk88tFRauiDmsWl4oKzV7VjPsiOl4SvzO2ifAuYvAv6qlk0zLK2qw8eW7LjX1GksuoFhEL7ta6iTgHKZIMJpxVuTJkwssXt+HKeRmssEnSGaaCIym2GEmV29+XZJJpJpWU05PcXhcUzvfW2jIjtvvIHVNMrUGzlgAzXcM4l9XcqhdxcFcH2o+Jpxzdg+JgkIKIsijqJD0YuSAJtDZod0u0Jo3qzxYX+vGBTZ9yremneubEvsmmcRdHXPb+8bTtxYHbcroarN8o+1u2YctaDyXYHLwErVrt0FVFvwutXmRTTrrKiItZ7U6YOO4SZSdX+Rhkd4jVthWaSqzWRsYA3hs0XbGlUu6UXeXfqQl4JNFl3GELk2WMMOKbbjN6RzznsFc7YIqxav5M59wYJSXOfwvL9KgFsfy3i4v+mHwp4ndG5qiYMk2vBJpYm4VXo21VZAhTf2ApmrR8N4r8DXJojxxojdz5TaWce1n+fRHHnJY34oG/14MHdqqiu1Oo3BAI4MYF2oQY5mScX5lyVhhJM53zQji1tLhHz0OhXlmc/T1G9sj+AT6M1z8+ltGtJdvc/r6Ek2nGJrTVVeI+7WciveS9CWU1wJj6dUHBfG+Dn4j1MFhbdMn56fm0dNnuQqklAg1v5zL4E104iff8eJ4MoiQeHYsoFxikIKIs6MNhrUuGfnekNWrscm2MdCWwJLo/qqLdCY1ciGgnWXGS3/LkCjSaLyxiyAudVqw3l62oQassp1XGo1tuGNyW0/mbAwjodUyUzw2g1TNDeKkx6aMu7GRC0tZVanz6rIrMvylq29ru9zQdPCIvZksx/+5Ew8mdwzZjNI3aJdg601TpLqnE1gaVryEm8eQ5rNFGxUi1XMS9tU3onllpKfdowyKs0uosIfwiIwnvRvDaKbmcxVi1WC6nmJ+lzlOC5TMXoPuhBViuphjePqmS0sl8Fg0L8GiVuaBY3ypRbvEidNY5pYC3BjqWW4qL+Vo+Lz0yad667TbZ7rXpNknZgr3oNv3+yKGFtSFMtSFLjWR+UqRJuj3522ZXTsxiX+aTwWX99+XsIXyjAg4lzz2OCVWRX16I5xNWv4IpT6+O6Upx5aheJZuw8hWULDCXuQe3iDKTtGScIXxlGREkUVcOQbW0uPqHQ9ZyMlGnzEPxnD4/S8BBzLNEtdpIaHYTbjEtb5G2vC3OAZqUuf19Mb63Yp9PX4St5u+KpVwI72alIYURJPHh51G/UZbvsStpXBcUzPfWWEdFXMeYlzMi/vWEO1Hz1rrR6PPufHkF1sxJcE6cOg3z5dfy2Cc57mZDZG/c7Dl3fauee9Ydd/jx6aeZPuV7B9evsHH9nNRgfZxxzYeOH0WvOIk2zlKV5OM9aFGVDS37t1Pl+UI/2v8ItC2uRrCjHZvDty1EpVsFFIbExYw+fFc02W/dlN1b47aclb9ZLPOyyDIP7d6JdbsyfRESUb+2DW1zxbZY6dASxSywFJ2WC6QIOaxo15QVaJtlv47GvtCGZ3V5UeW4P0373Im+XS8nt54acdztEMdd6Cg2PJX4onN53RK84NPvaMYQFYFn5BB+6qVZ6uVKVCBiFAOjxfDbFh3F9v378FoSlY8ZM5egc3qxPpxpnKCG8T5HYlm39x6OnWfJTHQvNgcJoyVY1rjlxfZ5y3675kb83yb5fQ927NWy6oeZv0MXhjE0WXUBi5LU98TyfUz82yLl5PelqgWTnv6pY0uDqx//BiPbYkf+mLD6VyiZrV7ECOGrmOFA/bjluRdx85QgRla/YtvtoqhJD3DIYU2jRw0x/ubo421RQ6GaGfNWL6PYzS8d7n9fmkQ59SKG83cv2d+FeBx/M2TXsUPp9gNwf11QON/bRMuJqGsXRQ67+ti88PLZvichMe+XxbzVKwuZrPQl53Oi8RsTfFPM9301MWvEdddGcd2F5M7TdH1iSwoiypI+bH5pJ9qPiwsDNUUautCv5ZqQdzm1oQNlM0958WBq+jjwToc+9rn5zokqJ3NUHNTu+DkZRu8v1djppvLy4kcO5+VcGXBbTjewK4igfgPMe4J7bLdn+6vt2oXZp+fNw7BlnrY/96thXA1yf36cjeaufdi1W6yPbx7WNCdqTQG8fWgfWo6EMKDf9FRGMSAuyFscKhCSXq4P742aC47ivVPxy8mKyYaerph5DoT68EySAYpUnDyxD3P2H8H2kMpRYRDLbSyr7TxHTqDxrQN45pTDtnkrwbLK8mK+1u0j1lMGRY78KY8BCkn+NsV+1+VvwJAcvlR83y0VnShDf9yLdU/sRLf4bQszftcyfndUl5Pfl7Od+Hy1PmqGpYJ/Poiv5DChNgEK6cq2n+HzHUHV9UM5H8KVd7eJz4sOUEjpJc282iUTZm7DV1HLeVXOU1tOpwCFNIAvn3taK2t2VazjyIuZDVBI7n9fYn8jwuWy8DthJn8zWuT3Xr3WyO/toPW77I7764LC+d6qdZTnvOjlVOfd1IMPyRLzFtvOso7CkNiWwT/GO9/WoFkGQUNHsSvrAQqi5LAlhQdw/Qob188rjBYRyd2ZjHBbzsHCpeh8uNpbLSkKWOotKSR1l8Yn9umzYp8m2b82fAcxI3cMsysTd0wpP6wti1L83cnR7wtlXiH9vlCstL63HqdfT6R2vkwPW1JQYmxJQUSUQfoQXsPo/ZAViPy5iI43jmJI9j9+finq1dRETp44pSe789Wiu87UH9uDjAz/5HVlqA+UWXKx/PhHkW4b1pEOEuPvS+EqpN8Xyuz31svkjYC2ucDQ7r05ClCY+OaheWHiFo90fWJLCg/g+hU2rp9XeKAlxdQ6bHl+HsqP9aDl9fi5FtKl3/lQLywKt3VFxtdp4VJsebga5SFR/qkky8ukkLVqaMCw5HNFZJxMqnnrKN49OxIe8UMmruwUy5jX5aLkxMkHo0kiL0tYDn9fKEu89vtC9jL5vfWwcK6bPPymROfZ0Y391qGUPLakICJKW5k44YoKsaxAyAoxKxDe8P4erHtWtqgQkh0N4exhLZeCzOHgBTMqpmNV7SJ0PtSEj9RDD1DIPBanWLHxuPrZcSo6MpFdUhUd/r6MGR77fSF7mfneFoahPAU9B3Z1YMPufgx5NZcX5R1bUngA16+wcf28Ip8tKWq0ESV84mS/VZzsx+7RQDknh+ycUYuf+4ojd19V0ss1Zxmh8Dp/oA7NS6oRmGy6Y6glsQti1zvJ/lbw94UolzLzvSWidDBI4QFcv8LG9SMiIiIiIsoMdvcgIiIiIiIiIk9gkIKIiIiIiIiIPIHdPYiIiIiIiIjIE9iSgoiIiIiIiIg8gUEKIiIiIiIiIvIEBimIiIiIiIiIyBMYpCAiIiIiIiIiT2CQgjJnah22bFyKevWSiMjr/M2t2LK2Rr0iIiIionzj6B4eNmH1KyiZ7cPVj7fh822/V1OTVHUPbvlJE24U5YvUpKsf/wYj2zpxVb3OqIVLseXhapSH+tH+xh4cPKOm50UZWp9cgcbJw+h+tQMdg2qyK8ZnAUP7e7DunT41nbKmog5bHpuHcvUy7MJRbHjpEDjOT6rG+PchzeNFBik2LSsFjvWg5XV+v4mIiIjyjS0pvKqqBTfP9mlPi6ZUhAMNSRFlJz29WitvLlc0+6eY9NzjmKBeZ4xsQSEDFOhH+1PJBChkRacNnS+3orVCTfKqimmYLypkUvniO7PWSsT/4FJseVluE/F4cmnS28VtOSJXkvk+yKCBdjzWwa8mRfM/2Kods1seLFNT8mdgVwc27B4G5jZgS3P+l4eIiIjoescghVedPYRvzssnIVz5w6EUWj/4ccs//1QLTmgtMFb/DOfV4/MdQfFZv8YV/Y0ZUobWR+RdzGF0P7sHB9XU+C5i8C/qqdcNnkbvBf3p0P5Pkly/1MgK26bFMsijTK5G42OJu824Led5g4ew7ol2tIQfPQiqP1Ge5eD7kLIMHC8yUNF+DChfdh9ap6qJRERERJQXDFJ41gC+fE4GFx7HSFcKDdyr6nDjFPG/6iJiDm5cPfxKap+VBH/zfWj0iQrL7r3oyGsXj2y5iI6X9MpPdpq216B5can4XzbF1+ezYf+weF2NBQHtDQ7cliNKR7a/D/lz8HUZ3ChF4yPOLUCIiIiIKPsYpBhjigLztVYUV46mmMPCFVFRln25Q0exdddFNS0VlzGYVv/4MaBiIrROPceD4VwBAx/1Y0h/6sxtOSJy0IddstuHbx6aF6pJRERERJRzTJzpFQsex5SVNrfAz/8Gnz8XL9nlPSh5rgkTpuj5K5wFMbL6lcx29Vi4FJ0PV2No906sSzFIUb+qDW2z+tH+RHJdRPyBOjQvmYeA6g8vWxAMiQr61u19NonxrIkCP5DBlH8IiLKy5YFwYRjBfXuxORi9zJGkgHaG9ov1fMdNMCaeGqx/uQGB4z1oEesi6d04kCDJodtyLhiJCR0TEVq3d/S8Y5arogat9wcwf1ZpuKvKkFgP+30pqXXNWuJM9fnqVTzBjnZx3KgXrsulz9Pfh4THi3FMlNp+Rl6PF5lf53mx7EyiSURERJQ3bEnhEUW+mNz0mquJ8lFUVaAoYYAiO+prq8W/w+j9MNMVdzNZUWrDplZzhUwSFZZZDdiUIPlm5f2iwvOYqLAYFTJJPA+0rkDnKi8MO3gJ52Qf/1l6EkKj8oYL/fggbqDBbbn8ksvZKfZHo6nCKcnnmQ8+jEVj/ftglfPj5cxp9IbE/3OzlySXiIiIiOJjSwqvUi0rruz4GUYOq2kJ3YOSbasxIWHri0wQlaWNK9Do60f7ymQTZkbolerLCVtShCvfGEaww3S3V95d/QdRedEqatEtMqx3gIeOH0XX7w7hoFZ5L0P9g/ehTfvM5O5wG8uQnZYU5nU0JNfCxG25lGWkJUUpgsf7EZhVrQVS2n/ZK/aHsS3L4K+4iAHH4Eq2W1IUjoL4PmSkJUX+jhd9SFKg+1lxLI/JPDtERERE3saWFB6lt6wI4VoqSQZkqwr5//nBLAcopImolA04QsP4VJ+QeaKys0ZVyGTl19IcfbAPHS/tRLc20kA1mhyGMtQqQduNCpl0EQff6VBJJoHAbA/cPT5/OZJLQlbIXo0KNMhK35OtscM1ui2XJ7LCKfdHy0tiOcMVTilehZPCrpfvg5Lf46UUlZXqKRERERHlFIMUnuTHhLt8ohLaiytn1aRklOtBiquhVAp52O2qibcpOaTVRXTs69eelf9omk1G/mH0fmSu3ESEk0x+b2JeM/lrd41bjWFEReXzl7JCpr0I888Rf59citD5yLq4LZdXx3uy0hLlunEdfB8s8nS8DAxdVs+IiIiIKB8YpPCkKoyXw4im2CJiwjyZwi+Eb4IF0iD+QvxWGP4pt2n/D52/pP1v67NhvXIlKuN3aBNS5LZcJgSW6k33ZbP0J9rRfrwUjY8tRb0lp0AZfvwjefe8H4eNZvhuy+VZ3P1ICY3570MUHi9ERERE1ycGKbxowd2YIP5LbRhRP4pkYENUUa4WQEOKgXc60HJd5xcoQ+sSPfFo9y/17XBwew+CqEbbY6bkh4H5Wi6Bof29qiuH23LkTOYwaENnEo/1lqE83Ja7Tngo4JEKf7keDCIiIiKi/GCQwoNc5aNw2frCvUs4J7Pg+7JfESmfMlE9s2E0gU/QKiOG23IZMxGVWiLDyxgMN93vw+ZXZcBBtoxoFRXbGhWQ6EdXuNm723I0Vnj++zB4Sfx6SbehwmGkkTumyFY+4lfOK12RYgzj3Dn1lIiIiIhyikEKDyryyYyUKbaIyGnSTOkiBj+T/4uKyFRtQgpqsP5JeYdZVqjVJBvhfvKzAg7DKhqtCsTW+uNpm1YZpai8XT21SFQul6IqcoORgEOgVR+tIdgRlRBT47acC0al0+HOuP/B+8IjR2RV1u7Mi233RDtaknhYR75wW86dwvk+qOFxxfzmz7FL4FmDBbPk/8M4p/2GZImr46UMP54nAyiXMciRPYiIiIjygkEKzzG6bQRwc1MkhV3RgnswoUq9sFEUmK8FKVLrIpKeg0dkkj5REbk7tdEj/A8GENAqtaJCvaTOOVHf4CF0HZdPjBYCpvnIIRfDwyo6txgItLZhy4M1kXkkWS77+nDYtG6t5nUT9EqeLrDEnG/Cbbl0GJXOarStMm9LUbldpQ8XmV2R+TdF7cvMrF+BKJjvgymB5+IVMcu5/skG8esmXOjHB7YJQNOVxvEydRrmyxjxsU/YTYqIiIgoT8bNnnPXt+q5Z91xhx+ffprf+925VNT0CiY9IK+Ura7s+BlGDqsXUSas/hVKZofw1YuP48uc5aQQFY4dosIROooNTyWfX0IbmcKo2Mrkj3FzU4iKcLgSZUcfjtE62oFRZhhDF0pRblvWrpw9Y3m14RszGtRQFTaHdRs6fhS9oqLVOEttq+M9aNneJ564LZeGwFJ0tup326PJ7dI1ZQXaZtlv00xsP8sxY5aJdSsohfN9qF/VJo4J9SKG8/zyebz4m0W5ZaUIvtmOze+riURERESUU2xJ4UFXu/4LRj7We3XrQrjy7jZ85RCgEJfWeUqa2Yddu4cB3zysabbe0Y9n4J0ggtqdzmEE9yUKblxEx0vt2NBxVJUxiAqXqHBseCJOxepCP7ZqZftF5UxNE2Qlvj3JCll29WHzSzvRflyNyKAMieXu7hAVtO2H0LG9Ay2yG8cF8Z7waAduy6UhuCdmO8rt2/5qu1aR/PS8OA6ySCZa3bBfdXcwyPX9+HobAaJwvg8Ht8fOK7ycWf7+uTteatC8rFT83B7FLgYoiIiIiPKGLSkoTWVo3bgCjb5hdD8rKh5jsB93Ju7sEo0VY/X7UL+2DW1zx+7vGBEREVGhYEsKStNFdLxxFEOyn/zzS1Gvpo4lxkgERDQ2vw+ym0fbXGBo914GKIiIiIjyjEEKSt+ZQ1j3pmxaXY22jQUcqJBJBANlkUR7gj+wVPWrH0bvR2xFQdeR6+T7YOShwLEerNvF7zgRERFRvrG7B2XO1DpseaQUXW/swcECvBvpmGxPkP3o111XCRrpene9fB9kkGJNeRDrXuf3m4iIiMgLGKQgMlSUof7++9A0qxTlahIuyOSee7E5yDusdJ3h94GIiIiI8oBBCiIiIiIiIiLyBOakICIiIiIiIiJPYJDCA2RLESIiIiIiIqLrHYMUREREREREROQJDFIQERERERERkScwSEFEREREREREnsAgBRERERERERF5AoMUREREREREROQJDFIQERFlytQ6bNm4FPXqZb75m1uxZW2NekVERETkfQxSEFF8JTPR/VATPop+NMzEDPWW5JXg0Qa9fPfMSjVtLBnr61coytC6sQ2dO9qwpTmHFfSFS7Hl+Xkol8+nalM8oXxuAzoZqCAiIqICwSAF5dSMqpnY2rDEVNldgq2iMpdMZTe2rKgI1s3E8hL1hkJnCgZ0zxwrKxWlpAKLivWn/ukVWK4/9RAVZHAVgBE8v37XianTMN+nPy1fdmcSrRpUUGNjHfxqSspkC4qHq1GOfrQ/tQcHz6jpeTawqwMbdg8DcxuwpblMTSUiIiLyLgYpKGeW1y1BZ20N7i1WtThNMe6dXovOhgVxKnSi4mhbVlQEfTV4YfESbK1SEwrYjApfuILkL69wV0nOhpETaHyrC3PCjyN4T/0pZSODODCqPx04NYi39adjx1hfv0Jx5jR6Q/rTod2f4KD+NIvK0PqIbEExjO5n92R1fqXf/RZ3VV/DP869in+s/lZNjU8GKtqPyYDNfWj1UAsPIiIiIjsMUlBOzJi5BC/4ZIBhFO+dOoAWo8K7X1R4ZaWu2IcXbO9eyzvbi7DKKHvEVPatA3jmVAgDMtBRUehN60vwQLlYx9E+bD8lNojYHg+MycYUI3itR99/jSfOqWljyVhfv0JxER1PtaNlZTvW7epT07LH33wfGn0yILIXHVlqQVFdfVULTCz74TX86LbkghNmB1/vQRClaHwkjdYiRERERDnAIAXlQCVWT9dbQLx3ZB/WnBjBSe2VMHIOa3rUnfniGqyObhFR9UOs0oqG8Mx+UfasqayoEL594jAa9x/AnEMFXiFU3QQGhgbx2qAeeFlUMUa7fHhaMb6vH6pj19Q6rA/na0ih+b/bcgVhIipV95DU1aB5Wan4iTqKrbsuqmmZd/mz8Xh/QD0+G6empqIPu2S3D988NC9Uk5Ixpvc7ERERedG42XPuSv2WTI7dcYcfn346oF6NPWN9/VC1AB/VihrAaB9aek6YggwmxntCR0wBB9WKQlQa3zvShTVn1eQUyDwWq6fLbiJqAkYxEDqFDWIetsshyFYfndOB7fv34bURMaGkEo/OmI5FvuLwHcgBsZy2n2H33tEQftF7GG/Lz3Ki1l9fz0psfagW9zpuL7VdRKVD/l3Oc/X86ZGuMKOytcoRLaBj5bZctETLZ4jsPzsDpw6g8USieZWIffhDbJp+C/zhrj6J96HTfjhw6k94LXr9xLbvnu4Tn69ex+NwfNpJZv1SOz6t+++keL28rhY/txyXfaJsvH0C1K9tQ9tc9ULrntCR1N1/V+Wm1qC1KYD5c0v1ZJLCUKgfXW/Y5WyQeSFWaC0Sgm+2Y/P7anKY8ffoeUfK2RnavRPr7IIHMsnlT6pRnkxw4lgPWl53aJEhPqfz4Wrn+WRD6TX8o1+cui+Px//oTyFgIfNmyMSe8dYnitvjhYiIiMgttqSgrJtRfIv2v2wl4Fh5+kJUzuT/PlOywXASwhD2phygkBW6JpXHQk3SiAqdrxadDy3Bo0k0VJABi48W12rdTcxNpOXz6HVxfK/syrI4fjLM5RWypmSs5znslf3pE3X5EJX21TJXh5inJVeHeH5v7SJ8VOfQBcZtuVwrqcRWUSnvrJUBBPNOjLcPxX4X6+a0H1aJ9bPLX5JUgCKj0jg+xbaYpraN7EJlWUdfDTrdJv3MMDn0ZefzDWg0BSikcl812p63uysvu2jILglA4OHWmNwJ2ehSkVSAIoH62mrx7zB6P8xRgCIdRq6OuckkEyUiIiLKD7ak8ICxvn7L65pEZSpRawh1dx6jkRYMtq0rkqO3hpC1P5nHwtQ6QN5hny8qsFrFMIRn3jock9zQKPteKIR7fWL+o+J9vX/C2yPGXfESzCgZwUnzTXJjWeX8Tp3CthORO+EzxN82yYq2ed0s1Lqb11N9nv3deOsdfHn3/BcnT6iWGiVYPrMWL4S715i3udty0ZJtSWHP2L7xWxoYx4Mgtv92SwsIuaw/xM+n+3AmejmN7aa1XrHus8j62e93XXrrJiWzfu6OT+v+k2W3i7LGdpHHmQzoSHH3n2y+/8g8BMRbU7r7n0o51bpAVt6Du4PYtatPD0IKfvG3NdooGA535Y2yoaPY8NQhvZzRAsA8LQEZJNm0rDTJdazB+h0NCKTw+TqjFUc/2ldmN2GmhduWFIK+XZB8iwi3xwsRERGRS2xJQVlWgju1hhSj+I8vtAkOxN/VqAgGowVGykpmYpOqAMqggKX7wsg5vNZzANu1efnw8zitG2SAQlY05/TIrhrmymZUgEJWHkWFWdJzblib6p88exiNR7SmEfZ5JqoqtMr4e4OmQMzZQS1PR6JRPrSK8CEj0CDJPB370CKTbwpOCUXdlsuVGTOnqwCFDBYcjuqiEclFElMRF9u6ZX8XGm32mVy/Z7QRH27BnfFaqGRbJo5PGTh7a59lu8jjTF8/Ua8sjrOCZw5hczipZAoVzqTLiYr7T2SAQnbb6MBmU4BCGnh/D9a92S+elWL+3TY5DsTf5UgUMnfCGq21hfg8Y+SMN1IJIOSCymURGsan+oQ4arD+5TZ0JvFYH1BFsqYUlcl+xd0eL0REREQuMUhBY8+tqgl86JRNqwVpBK+d0mtzcYMAoSNJ5EwQjG4pokK9zenudZygg7WrhyGZLh+jODBov3wnteSbwi232qyf23K5okY6kZX43jitGSxBiIhwAKmkBMurZmJr3RJ0NyzBRw/pLXpksOj7t2rvyI+0j0+5Xexbgpz+IirSlw9Tp2G+dkgfxa6YvBLK+59o3TrK502zdFcx6CNR6ENmrl+rd/OQAQ/mQkjfwNBl9YyIiIjImxikoCwbwSdfyv8TVQxjR1U4OaoVTLnCHM6BEa/CZuTAkP37tQmx4pY3MyqdxTXoFBVhWRmOfaiuCzEqcZ9WcfbhhagyRoU6rVE+4qxfXG7LZYRxLHyJT+zjEHHJZJRbG8Q2XLwIL8icDzJvgyWnRX5l6vj0rEqVg8I3D5t2tGmjQsQ+GhC/sUAfNj97FEMoRWBuqZa4MjaRZqER6/REO1qSeGyWERoiIiKi6xSDFJR1xt3duE3QS26FnifPVDEt5IpaslRXj3gSdfkgEy0vg0pGORrSRit5Zv8BtMhhat/qCneHIO/z3y3zVii3T7RtcUGp85ffpp4REREReRODFJR1RouIeJXtGRUysaQQGow0Yx8ZxAEtvhE/d4QT/61x7p4brR9GR3Fam5AGI5giE1+KinDcR1QyRr2rh8xNYPPet1RugkSjfNhxu36Z3C5pSzV3RCW2quSl24/ouURkfhCZm+KkQ9cQRzkIjOXs+My1c8MYkv/LYS5Xtsd/OCWpXLhUS3opP6N997ApP0WW+Upxh3qanEs4JwNfKZfLt2GcSy0XMREREVHOMEhB2afyMcjuEKtthn+UlcvVWiLBqOSRGMG7Q3orDP/0WuchGeWICFWRP4bzKvimO5SJJLqMOyxqsoxgiuP8nKiuHqMhvOuQm0Bff+cuH/ZdaBKvn9tyFlmryKt8HGK9V82PM5xmSYn93+T2tCTaNJTgTvUssewl18z58RlNjtawUe92ETsMaBzJlgsPcxmIGUY0OTVYr40M0o/21/twcNdedIvPK1+2AusX6u/InttQkdIyX8TgZ/L/VMvlSxl+PK9U/H8Zg0nn9xD7w9jva2vUNCIiIqLsYZCCcuActhmjRtQuwdaZpsplSSW2NhhDTcYmnjx54oga6UBUWBfLspWmiqn4nKoF6F5ci1W1piDGyAn8wqjkyjKmAIYW0AgP4xjCL5JJjJmQkejQtIyWyqcc/lIs50MLsFxN0aiuHvEqokaF1r4VSrHanqZtktT6uS1nMEZikS1crJ+xPEMV+7dPqhEhZJ6PhgWWIJTcnvp+X4TOOpshCkSZTXbHiVw/ve4fhzVAYlkfLRFnBlYw58enVX2TPpykJBNTJhtISL7cRXT8Vh+9o/H5VqxvroHf8t4y1DcvxZYdS1GvppjVr9XzVQTfNIb0FJ/3hsxPAQQeti+Tvj4cliOKyGV+pA715uWdKpZ3oXNQ5uCROCOVeI2R1PTYJ0kPl+pvDkT2u+vAExEREVHyxs2ec9e36rln3XGHH59+atsoeEwY6+tnWF63BC/49BYTMeSQinLYSPXSqsRUcbMzqg/9aQlwJC4jh3+0G11hxswl6JxerA/TmUIl0SjnSKyjHJXBmOfyOj055ntHumKH0gyrxFYt6aZ5eSPrNjAqKhG2s7RbP7flYjmuq+zycih+O/Kkt2/JTHQvFhVc9TJW7LLG3QfyGBM13Rem++Jv87jzlUN/Oh2nuuTWz83xaZRx3kfJzLt+bRva5qoXcljPZ5MbNSPVcv7mVr3LhpNQP7rf2GP9jIVL0SlbUciuIq/3qYm68OfZ/M2O8f6h3TuTGzpzah22PC+HOrXTj/aVRtAkWg3Wy0SgoaPY4NR9JU3V1VexMJlUEpfH43/0j1MvYhnbJPhme9KJSKP3Y9Lbk4iIiMgltqSgnHn70D60HAlpFeSIUQyIim2LY4BCGsFrPV2ibB/eGzUXlmX78IyosMVWOM1l1CSNmt9biSviqTp5Yh/m7D+C7SGVo8IgllkmcJTrGJmnMapH9NCj0SJ39mO7fIziQK9cR+s2NbaJ8/q5LRch17XllOq2YJBBmEHLxk7PyAk0vnUAz8j5JLkPteWKPsbkcqkcFW8ns3hyvmI/Wo81GdiRn/OnuAGK5OX++DQc7DqKoHZMyQrn3qSH9Uy13MCuDrQ824PuYypHhSE0jODuHlGhjwpQyCCBqZtHNPl57bK1w9yG1LqpJOvMIawTyxsUy2c2JIMpb/bGaXnQh125zJvhWg2aZbAh3tCwNgZ2BcP7nYiIiCgX2JLCA66XlhRm4TveSdx5p2iJ76jbc1uOiOIrQ+vGFWj0Jd8yJdf0ljBpLJ9q5cKWFERERJRtbElBeXHyxCk9maavFt115vwBRESFxsibIfNwZCtvhnuyy4bsqpNKy5lo+tClw+j9kAEKIiIiyi4GKShPzmGNbJYvnvl9teh8qAkfaY8lKY6QQUTkAbK7yJv9GEI12jZ6J1BhzuXhugXE1Dqs0T4j6MlWIkRERDS2MEhB+XP2sNb3X+ZwICIqeO/vwbpn9ZFI4KFRMIaSTDYaqwx+ORKLTCgass8VQkRERJRpDFJQfo2cw2uH9mHOW13qwVwJRFTAZIuKp/bgoEdaHMiEo+tcBxcmonmZPtqKTHSa7LClREREROlg4kwPuB4TZxIRERERERFFY0sKIiIiIiIiIvIEBimIiIiIiIiIyBMKorsHEREREREREY19bElBRERERERERJ7AIAUREREREREReQKDFERERERERETkCQxSEBEREREREZEnMEhBRFRA/M2t2LK2Rr0iIiIiIhpbCmZ0j/q1bWibq15gGEOhy+h6Yw8OnlGTiArATfeMx+wF43DpnavoO6EmkieVNY3HtGnj8NfT1/BRl3d+JmWQYtOyUuBYD1pe71NTiYiIiIjGhvFTbr/9OfXc06bWzcd8n3qB76K4uBTzF5XhQtdpeDFOMaNqJv5fd8/GpjlzsHrGD8WjAjNv+L8x8JcvcFG9x14JHm1Yiv/j+zfgvf/4S4L35tnkcaj5f4zHD5aMR+Xf3aA9Jk0Grl36Fl9/pd5DJuNwe8MNuPW73+LSB9/iC9ttNA5l94ht2jAe1Uu4TdMlg0KBFTfgyr+L7aemJWXyDfjBohvwHfFUPi4d+xb/t/aH/Lt84o848p1paKifhb/7Tj/ePZHSmhEREREReVrBdPc4+Ho7Wlaqx7M96A7JqbehYqr2Z09ZXrcEnbU1uLe4WE2RinHv9Fp0NizAcjWlkMnKX91/Ho+JE8epKbrvTrsB08T0KlGxpljfnSj+ufQtPr+gvza7aeZ4zHliPKYtGKe/TzG2aZl6Tckah0k/EMenDPCoKUm78C0uXZJPxP9/dlE+ywZ2daD9GFC+7D60evA3kIiIiIjIrcLMSXGmDx8cHVYvvGXGzCV4wSeDE6N479QBtLzVhTnysf8I3hsVk4t9eKFhJmZo7y5MRpcFrQL3zjV8/PJVHJKP/34Ng6flO8ah4ic34Cb5lCImj8N35f82lWZtmz6o/112L/j4v6tt+vI1nD4suxqMw7Qma0CIEjOCQqkHGb7F2f+mb/++33uzR9zB13sQRCkaH6mDX00jIiIiIip0BZs4c2DosnrmJZVYPV1vPfHekX1Yc2IEJ7VXwsg5rOk5gvfk8+IarK7SptooxvfNDTBSMbUO6ze2oXNHG7Y0p3DfPZVyshm8ClAM/ndRgTthqgBeEBW7rmsYlHegJ47TuimQSZkKQnyuvwwzbVOZq0LmP/g63NLiW1z8/TV8/M7f8LGH8iIUhJk3QItR9I3V7daHXbuHAd88NC9Uk5Lh9neCiIiIiCgHCiZxZjQ9eRzQ/WwHOrySlKJqAT6q9QGjfWjpOREJUJgZ7wkdwZxD58LTuqf74E8mOGEuFyU6uWiy2yb5cuNQ9U/jUSFqfvESPxotLf56+Bo+Mu5Ci4r4nP98A757+hoO2Va2jc/+Fqdfvmabi0N2h/hBnbkrhKjUH/4bzol5xNwpz/X8wsahrOkGVExTrSaEv57+Gwb//W/4erpd0szktqmjyWJ+f2edn2w5MHjobzh7Is56XzK2i8yBIcqL5Yos7zX8WQZK1Gud23IR7ranKCfWcZJYx4lR2/TPXWKbqte6caj5J/G+qC5I9qL2u1i2ugdtyl36Gz7+b9HzsZGz/RBlah22PD8P5Skk0XT7O0FERERElAsFPgTpZQx66OJ6RvEt2v8DQ4P2AQrpi1EMyP99FZbcFEkFKPJNVMQmygqmqLidi1OZ/lq1FPjuJP1/jVMrAhPnpvmy8lmkd4cIV3AlsTwLRMVfVExjupbken6SDIzInBLmiqpg5JSolPkRZMXcvO1mioppEtvUjpbDQnxu9PxkK5aKB8Xf7rGpdKt9qG0XY3lNFWPpu9PG4wfRZd2W07jcnuLvcoSN2WIdLZV/QW7T2WIZLLlPxDJ+N6kAhRC1328yH6smf00iH0VO90O0M6fRK/PzzL0T9foUIiIiIqKCVjCje0S7bdZ/QkPNFfR6aHSPH985B4uLgY8GPsKeL9TEaN/ciL+bUa71IT8T6sehb8STLwbxxp/+pB5fYqb8u2yN8c7v8b+Fp6vHOacPFp/32XhU/9CHcrEMQ7vfxiv/nqh6pUu23E3zbkBl5ThcOnANn/1FTbTzPfE+lbDw3J/0STf98AZMEWVHP/4bPrcrKypqlXPG4TuDf0O/KqMTFVxRgZsoR8Q4/Df8eb/4+15Rof938Tj9LcZV3YBbRWXwO5etn5vr+WnlVo/HrfLppb/h9K5r6FPlLl0eh1vF9rhV1kDlNjGNFFG2UCYfFZMTbdNoomIcEJV+OfKEvON+8r+J5ZTL+O9iuceP09b9O+IxTiyzZRSRqTegWizL1ZvG4fa6G/BdsTynd/1NLeu3uCK2i1ye71yJ7DuN23JpbE/Z0sBfISvpouw7omx3ZB2viHX8rli/iVVi2xnb86tvcV77u/6em/5OLuff8PH/fk2VMz2iRuv4vz8Vy23+u9hn8hh2PH4Mud4PMb7GlxOnid/CCRg69kf8cURNjsPt7wQRERERUS4UeEuKarRtrEO9J7Lbl+BOrSHFKP7DOY4giL/LBJrZcOYQNj+lj4CyblcKg5cmVU6NlCAqjH9N8qPNrRhumpSgrEPLB3knfaJsmi/zX8huAeZRMWQOjN/+DX8VT7+rfX5EruenlxNERfWQqKheNJX7+sQ1fPSOWBb5QlRGI1VCUcmeJv8XFdqUWlGIir+oGEvhHBbaK0k8lzksVLLNidOjt4v+v9bi4LBc1mtiWY3uCN/ioqhga8sZxW051/tPdn2QG1QGGWTySnPuEzk/sY4fic88LcrbVrFlqwr5v2V7J09f30THeu73g7NSVFaqp4m4/Z0gIiIiIsqBwk2cuWsv2o8NY8g3D23PMwlcLhhN9f9qrmjaMCpgf/3cqHSJCqNW4bQfelMqq9ErcZEyklGJH4dp/7kIdU/YPGTeCe29Zjme32SZi0D8LyvUWn4Be3ZBEU2KFWlZgZerJ3N+OOWw+PqUHhSxdLkR9OCNrFSb8oXYiF5Od+Xc77/KBXJ+3+J0vHwQolJvDgZZqCCUu6SZkaFLnY4fKR/7wY43kwgTEREREblT4C0pgHL1f/6N4JMv5f/F+L7W5t9JGqN3eEHCCrVNiwvV/965rAoqRN+5VqMzpCzH87tpul4hjpe/IDZwIxh3+1NktBK5JCrAqYms9yXbZI6mdYkK3rgql8b+07bL6b/ZJjRNhh6Eitq/KTCCXPGO9dzvByIiIiKisa9wgxQL56NtbikQ6kf7szs90XT59Bd6P46pxSXa/7ZKboXeO+VLfJJE//GCYwoQhO9Cp5DE0nzn2qjYy6b0h16O/7Dcjc7x/BJXViOBm9S6ddgxKrhi/eLc5XfaBokq38a6RFfu3ZTL5v6LL8lt5CSpoUvzsx/s+MtvU8+IiIiIiApfwQYp9AvzYXS/sQcHz+Q3OGE4Oao1pRDLVoEZ2rNYMyp8WtJMhAbxtjbFQXExtJbyHvLXS+KfieMcRmLQyWEYtUqZqVWBbSsCk5uMO+4OlbbofAWJ5Hp+ybCtlF4QlVD5f4JtmrpxqKrT18G2ZYNj5dih4u22nJKN7ZmItjwuW2Lox4/7VhgRGd4PcQ3jnP3IxEREREREBaXAu3ukOgRpDdZvVPkr1taoaRl0dhDvyf+La7C6SpsSpRKrp+t9Pd4bTFSjuAV3xmmQYWtqXWT9UsnPkVQ5UWmTQQpRgapwGBbxpnvkMIziyaW/4c82LQ3sKn2yjByaUoq+2xweyvQHzpX4m2bG/i3X89OJiqXtptOH0bSvlH6LS6fl/87bVP7NOr/Ifpg4U5sQw5x00jysabhlQ5wWAnbBFLflXG/Pi2IdxX/fXXADHI/iyc6f6bYbjUE/fhIFCHK/H+yV4cfzSsX/qfwWZvl3kIiIiIgoDQUepLgNFSmM7OFvDiDg05+Xzw2gNeOjgpzDtlN6l497a5dg68ySSIuKkkpsbajFvfL5aB+2ndWm2jiHvSH5fzFWzZ+J5eZARUkJllc5Ry7qm+ZF1m/ZfUmvX7LlLqpKlaw81ojKZZioFFaJivhslexw0HbEBVER/ztTxVKUqfmnIq3MpdP658a0fDjxN2j1wIk3YPY/iQrrZG2q5iZjng+OR6VtJTF38/tafc5E8TdLmZliO/2TCtwIdt0XjFEcvrtgPOY0WSveN80U054Q8xTLYp5u7Ac5v1T2Q8IuBOoOf3RuDbflXO+/C9/ikgoATBPbr0y8N0w8l0Gfuv88Hj9wDOwo025AlWn76POME/jQGK0YrIEjGUwxL7+U6/1ga+o0zJff3WOf4KA+JaHs/w4SEREREbk3bvacu6JqaoXB39yKTcuA7mc70JHkHUS9jLzrqBvavTMreSyW1y3BCz6H7JijITzTczh+V4+SmeheXKN3C4khyr9lX75+bRva5qoXsitMktsmlXKygjhtmqlCZiEql+/YjHQgKtt1qvWClajA/fdr+Hy6rNBBe342+u61Y1ndX09fw58tQz8KuZ6fqNDWPKFaS0S79C1O/1nUl53mJ2itO7QKrR19maPLlTUVhYMfsezKiIqzqPBXTBTL8/I1224QxnLIHBKRfei2nOJqewqTb8Ac25E/dH89/TdRzmnkD2OZ1csotstp4rQ/7Mrlbj/YM37Tgm+2Y/P7amICufodJCIiIiJyo2BbUrgZdm9gVxBBrZVCdr19aB9ajoQwoDeqUEYxEDqClkQBCmnkBBr3H8F7o5YPEJ8XwvYjf3Isf7DraHj9hnbvTTp4k0q5i13X8PE7enN8M1lpPC0qZLaVqhPXcFq1XtB9i0uHxeeISpqswMVtXi/KHhKfe0lU9s30+V3FR3YV3FzPT3x+nygzaJ6nKC8DNh//t2vh9zt1H/j693bzFNtYVOCNZY52seuqvh+0FgeKnKdpPaMl6kLgdIffbTmNq+0pXPgbPhLrIfej5VgTnzMoh+10DFBI3+Ks2O6W/SH8VZSV80xU8f/692LZbI4fc5cNQy73Q6waNMtgQ+godiUZoJBy9TtIREREROTGddWSImzhUnQ+XJ2TO4gzZi5Bp8xDETqCOYfGUmY7o/WA8x1hIsoevQVU8i2mYuTwd5CIiIiIKFmF2ZJiqrqD6JIxMkjvh9m/MD954pSeTNNXi+66SsdRPwrPtzh3WMa3ZN6A6HwD6gkRZYUM0souWqm0mIqWy99BIiIiIqJkFUxLCmveBCV0FBueOoQB9TIpU+uw5fl5KD/Wg5bX+9TELKtagO5aNfRo2Ci279+H10bUy4Lk0Pf/0t/w8X+L1xyfiNwK55RI5zcsH7+DRERERERJKNCcFMMYOnYU7W+kEqAoExf3S/UL81A/2nN5YX72sJZjYnvImmOi8Ol9/6PzBkTnqyCizBpyHVzI4+8gEREREVESCjYnRepqsH5HA3zi4n6ruDBPqfUFEdGYwN9BIiIiIvK26yhIQUREREREREReVrBDkBIRERERERHR2MIgBRERERERERF5AoMUREREREREROQJDFIQERERERERkScwSEFEREREREREnsAgBRERERERERF5AoMUREREREREROQJDFIQJWtqHbZsXIp69bJQ+ZtbsWVtjXpFRERERETkHeNmz7nrW/WcsqIMrU+uQONkYGh/D9a906emFyBZSX9+HsrVy7DQUWx46hAG1EvvE/tko9gnvmF0P9uBjjNqcjwLl2LLw9UoD/Wj/Y09OJhMmWypEPvhMZv9cEHsh5cS7wcZpNi0rBQ41oOW1wv4eCQiIiIiojGHLSmyrWIa5k/Wn5YvvrPg78Jfl2RwRgYo0I/2p/IcoMiAgV0d2LB7GJjbgC3NZWoqERERERFR/jFIkW2Dp9F7QX86tP8THNSfFqYzh7BuZTtawo8eBNWfxq4ytD4iWy3IVhd7vLH/BsV+eEJs//Aj9f0gAxXtx4DyZfehdaqaSERERERElGcMUmTdRXS8pFcmC7qrx3XK33wfGn3A0O69yXULKSAHX5fBjVI0PlIHv5pGRERERESUTwxSEDmqQbPM3RA6iq27LqppY0kfdsluH755aF6oJiVjah3Wb2xD5442dhchIiIiIqKMKrzEmRU1aL0/gPmzSsOJA4cu9KPrl3twcFBNCFNJK2EkFCxD/ar70GQue1xUQLc7Jxv0B5ZizZJqlKu8EnaG9u/EundkJTaSJNNO5H3R0l/O1LZLptRg/Y4GBFJInOlfWIfmn8xDwKcmYBhDx4LY+npf/PJTxfo1ifWba1q/UD96f9uLjvedAghlYn7zseYnYv+p+Q0dO4qurkNAUxva5iZInLlwKTofrsbQbrHf4gUpjESWjokrjeNCzO9VMb+o/eF/sBWbFiPyN7t9ebxH7H+nbST2w8tiPySZONPCSIaaQhLN+rVy26kXWjeYJJOPEhERERERJVBQLSlkZa7zsQY0mipvUvnkarQ91oYtDzrc1Z1cijtExW+9qCi2RZedNQ+bnrRv7l6/SlQeW+MHKDLK5XK63i45JSrqG9uw6WFzgEISyzy3AZt2tDrkRhDl1or1e16snylAIZX7qtH48Aqst20FIOe3QswvEqCQyufOQ9vzrWi6XU2Io762Wvw7jN4Pc9eKwnFfikdKwYdknTmN3pD4fy6TuhIRERERUf6Nn3L77c+p594WWIo3fiprm8MI7n8fW//3/y9+8bte/F/iceTzMsz8T6JSV12O7xz/I/44qhcBbsJ/WjgLP7y5FPN//H2U3zyM7o638dz/+V64XIMoh5t9KP28F/8uK2sGMb//92J9ftYy48W8fCiWIz080YFXxLR3//y1XgZf44/v68tkfhwpmoaG6u9itP+46b1m6S1n6tslUyZhYZNY3i9D6Nl3DpfVVDv+5kb8P+d9VzwTy/nm21j3X8S6dYnlPDaC7/zw+/hh8Xfxw0VluNB1Gpab8gvvxTPLfFqrif/Py3vxitwmslxXPy58pxzza76L8kBsufq1K/G//kA+s87viJhf6Q9nYboWuLiCU/9TbJcR+TxaGf6uSeyT4s+w//+MWqZot1bigR+LY+IrsR3et9sOxv4V8zsUux9u+8F/EsdHKb66tQz/eYFYsAvi2Po3sa6/1vf///W7fhz5y1lcdtx/Yj/cL/aD4/zj+RpfThTHZ80EDB1z2hZWZz4bj+of+lBeDAztfhuv/LvdMU1ERERERJS6AmlJUYbWJfKuNhDs6MDmd6zN3geCe7Cuo188E5X8OQ6tBmTF74kOdAQjd8Vlufbj+nPfFGs5/5TbtP/l/KxlDql5VWNBQJ+WUSktZwa2Sy5MrcMamdtBBnyeFctp7p5xpg8dT+1EtxZ4qUZTdI6D9/dgw7PtWKcN/Wlu0XARB9UIFaKajwpzKwwxvyatO0Ls/AbE/DaH5xfPRFTKQEZoGJ/qE7IuMKta6xLU8pLsomNd14GsddkxlKKyUj1N5MwhsQ3l6C5iv4zJXB1ERERERJQvhRGkqJiG+bLLxYWj2OU01mLwE20YxvIfTbPpEiEqqzI3g3pl9un5YfUsddGBjfSluJxpb5ccqVRdF44FHXIXXETHb2UwRSznvNjlHDDKTC1D/cI6rF/bii0bW7XEjXpuhKgKdsL5edTxHoecJdk1MJRa2wsiIiIiIqJsKYwgxe2q0jl5Hja93IZO20cDMtmwYeC8XnELtC5FfYX2VCdzRrTqrRdC5/N8FzkP28UNf7neKmVo6JL2v61zwxiS//tKcYc2IUIm29RGk3h+BdpkTguZm0K8z0lS8/OgofOFtbxERERERESZxiFInYS7WOjJJ8OV/sdUpf94j3PrBcqchUsjyTZD/Qju7kH7szuxQTxkdwO9uwelwwjqEBERERER5VthBCk+U3fZj/eg5Yn2+I9Uh2CMS+9ioc07TCao7MEGx+Egcyhv28Wd8vKJ6pkNo4uGJQdEDdY/rI+w0f3mTrQ8tQebd/VpuSkGLPkp7MWdX0KXcE7mrbBp2TE2DePcOfWUiIiIiIgoTwojSDF4Gr0XxP+zAmg1d73IpsBStM0Cul9txzpLhT82QWXeZGq7VNRh/ZN6SxFXw5UmqMgPfNivB1PmiuV0Gmb0J3oXmqGjp2O3bagfH5iTbYaVwW61I/NzGFZzqkqKGddFDH4m/49Kymln8BK0PJxyCFltgpX/wfvQmIthbB3mH18ZfjxPdp25jMGk83fU6N1vdojjZW2NmkZERERERJS+AunucREd+/RRKhofa8X6B2vgt9ROy1D/4FJseXmpfaXUBX10j1JU5nNUjIQys13q75+HgKpEly++L4WAh2ptoI3KIeatTROm1qDeXLE/cwhdWrcMsZzPi+VcaNqm4r2tG1egUQsa9KPLbrQI3zysMX++WC//QrFespyWODPKmdPoVcvVtlGsu2lZtHLPJ5en4+ARNTLK3YmOAbEdZLBIzm+VaTkrytC6qhWbFjvnz8iMyPyb5DGgTRMqxH5ItC+nTsN8ue2PfWKbsNWOvzmgd78Ryh0DT0RERERERKkbN3vOXd+q557nfzBBhe9CvzY6Rkd4uEZRSXxSVGQnD6P71Q7T9AjjM+XQj5aRFSrqsOWxeXoXBAdDYn69+3otw4XacZxHWBrLKaS+XazqV7VprUZ0zstgx98s5q0NLxrlWA9aXu9TLySxjuFghB0x32fFfKPu5jt+vhTqR/tRoG1ZNYJvtmPz+2q6NFXsv+cd9p/MbfFZNQJz7ecZUYP1OxoQCB3FhqcSdJcJLEWnSqgaTe6zrikrxDa237aJj4/EHI8B2RVou3k/WBnbN2b7xRG9T4Z2i+XmUKRERERERJQBBZU4c+CdDrS82oPu4yoXg+GCyhPxknNFPGWDp9El5hNP+eRqNLauwPo8D5+R7nY5+LujCGp34mWFem9K23BgVwc27FbdKwyhfnQfiR6p4iI6nmrHhjfFvLRWDgaxzMfEMq60DxZon/+m+HxzGfn5KkfFQcuMTc4cwrpnxTY5Zt6HYnvsFvMS5XYNJTP0bB927Rbv01pyJGhNEdyDDR1iOdV21FzoR7vsLvTOxbSGuk2GPAY27I/aDzI49XG8EUNq0CyDDaGj2JVkgEIa2BWM2odERERERESZUVAtKXJHtWzAUVHBd7qDXob6VfLuuH6n3O0dcPI6owVIolYXhad+bRvaErYmiWPhUnQ+XM2WFERERERElDEcgtROxTTMnwwM/dEmiWNY9u+OkxdcRMcbRzGk5dPIXM6TfJNdNtrmyq4ae10HXvShS4fR+yEDFERERERElBkMUsQhk0iuD5SZEjbq/BU1poSI/ehiK4qxTXYdkV1OjEScanKhCueUONbjvgXE1Dqs0T4jOKZalxARERERUX6xu4cDazJJBwkSUtIYI5NxPlKKrjf24GABV8xlkGJNeRDrLIlNk1Umys/HmmXVKJeJS2VeEPUXIiIiIiKidDFIEYc/UIfmJdXwTS61jBJhjOrxQfBi/BEfiMYcfcQT37EebH29j8c/ERERERFlFIMUREREREREROQJzElBRERERERERJ7AIAUREREREREReQKDFERERERERETkCQxSEBEREREREZEnMEhBRERERERERJ7AIAUREREREREReQKDFERERERERETkCQxSEBEREREREZEnMEhBRERERERERJ7AIAUREREREREReQKDFERERERERETkCQxSEBEREREREZEnMEhBRERERERERJ7AIAUREREREREReQKDFERERERERETkCQxSEBEREREREZEnMEhBRERERERERJ7AIAUREREREREReQKDFERERERERETkCQxSEBEREREREZEnMEhBRERERERERJ7AIAUREREREREReQKDFERERERERETkCQxSEBEREREREZEnMEhBRERERERERJ7AIAUREREREREReQKDFERERERERETkCQxSEBEREREREZEnMEhBRERERERERJ7AIAUREREREREReQKDFERERERERETkCQxSEBEREREREZEnMEhBRERERERERJ7AIAUREREREREReQKDFERERERERETkCQxSEBEREREREZEnMEhBRERERERERJ7AIAUREREREREReQKDFLk0tQ5bNi5FvXpJRBQjwe+Ev7kVW9bWqFd03cvS8cLjjIiIiPKloIMUE1a/ginbfoVJq+9RU1JQdQ9uEeUnifLyM/TPaUGR+nPGLVyKLc/PQ7l8PlWbMkaUofXJNnS+3IYtD/KCdmwS+3ij2Mc7WtGa9rFrfJY4Xpp5vMRI8neifG4DOvNSgeT+85QsHy/5O86IiIjoejZ+yu23P6eeF5aqFpT8L7ValOUGhPDN//wj/qb/JTFRdtLT/4gJU4otUZobpkzHTfP9uPY/P8BVNS0j5J2ux2eKC8l+tP/rHhwcUdPHgorZ+KcGH4rF0+Lqcbjwu9M4o/+FckJWGlfimYbxOLLvHC6rqYn4F9bh4bZ7sOZ/rcf/0jRfPKah+jv/Pwyd+NzmM27Cf2qYhR8WX8Ep8T37YzrH71RxvCxXx0uNOF66vHa8uNueGZHk78TlE3/Eke9MQ0P9LPzdd/rx7omv1V9yINv7T1S6O/+3+9Ux6fzI+Xo7GrvHS16PMyIiIrquFW5LirOH8M15+SSEK384lEJQwY9b/vmnWouJqx9vw+erf4bz6vH5jqD4rF/jiv7GDBEXsY/IO13D6H5WXEiqqWPG4Gn0XtCfDu3/ZOyt3xhUv7YVmx6eh4CvVE2RShFY1oBN2e6OdEYcLyH96dBuHi8Rqf1ODOzqQPsxoHzZfRlo3ZIC7j+PyM3xkrfjjIiIiK5r42bPuetb9fz6oLWi+CmKPt6G89t+ryZmj+zXu2lZqbig34l1uy6qqUSZIu/krkAjjmLDU4cwoKY6MY5HiMpNcPde7BLHpFZmag3WP9KAgE88D0V/lpqHT1aIOtAxppvKpLY9M8Xd74TYZzvEPovZXwVMtqR4uNrmGPSq6+F4GYPHGREREXnadZc4sygwX2tFceVo9gMU8uKuWVYIxcXdVgYoKCsmolIGFpKijkch+GYHNhsBCulMHzY/1YOgfO6bh+aF2tTrUCrbM1Pc/k70Ydfu4et8f+Xb9XC88DgjIiKi3CqclhQLHseUlQH1wuT8b/D5c51xunvcg5LnmjBhSqIrySBGVr+S2a4e6q5gSne7KmrQen8A82eVQkuGJgxd6EfXL/fg4KCaEFaG1ifVXbyX5B2uMtSvug9N5rLHxYXsdue7X/7AUqxZUo3yyWqCjaH9Yvnfkcuv5ufw3sj7oqW/nKltl/TodykRaTUwVcy7Scx7rmnex3qw9fW+mOWVuR6afyK7UqgJGBbvDdq+1yylcjJZ3k/EPkumciSWs0V8hiaZu9S271F3i1VLig9kJemRQKS7SGgYwd/uxeb3o/e9UU69jJLU98Ju24fEfn9D7Pe4LTrKxDadjzU/uU1sJ7WcTtvU7fYME8dz83w0zTN/hppXl5hXopYnbn4nDDIvgUycaLtc6Up3/7nYLskco1Hq17ahbW4/2lf2omLtfWgUx4qcjxaIe1+sQ8w0rZig1k+1gpDHWlLHtcvjRV9OGSBsNy1DNGOby/Vx6MaRj+Mlq8cZERERkVXBtKQo8hlVFKurifJRVFWgKGGAIjvqa8XFtrgw7v0wuQtJ/4Ot6HysAY2mirhUPrkabY/J0TPK1JQok0txh6jEr39yBdqiy86ah01P1sGvXpvVrxKV8VZxsR0nQJFRLpfT9XbJABmw6HxezNtUSZbkc2sFSlYu2lSuBzVJI8rNbcAmx5Ex3JVLqoIURT8eReXy6Gnnyt85UYmU/4uK2h3aBKvKJnHMiO1hyWchngceXpHxUQAct71P7Pfn5egSDvtddl0RFb1NoiIXCVBIztvUzfbU6fNqWxZdaVXzer4V652WU0n1d8LCyBEx906PDW2c/nZJzW1okpV7LRghiWPyJ3VoXRs17WGbnCviGGmWeVpSOK7dHC8Hu45q3y25XHa/c5qp0zBffvYx53wfeTlePHucERER0VhUuDkpVMuKKzt+hpHDalpC96Bk22pMSNj6IhOSuCNmFliKzlb94jO4P4hd70Tu9mqtHWQwQfyt+9UOdIRbDoh5WFo2iL937EVHUL94leVkEEIKdrRjs9aWXzHNz1qmTsxLJmQTy/1EEsstyCDCpsWliVtSpLmcyW+X9Bj9vYPH+hGYK+YdEtvijV4cPGOsWxn8Uy9a7gQbZbTlfNN091W2BHhEVLS1Sk3sseC2XISoDCbVX9w4HpO9kyu2aTj/RKSsNHTsKLq6DqmWDPJu+X2iMqpX7uJ/ts5Y57h3go076nK77Bb7fZdpv4u/rZEBCLnfY3JkqO0hn4r91v3bXnSE74SrO/ui4hxyXM5kt6cuvP+0Y0Tso/CyGC05xDocjXfH29i28fZxfPoymFr+ZFky+8/1dgnvd2fRx5jRQkH7XdG2gfl4jZ0WKZ+J4zq14yVRawr973bHtSF/x0uujzMiIiK6fhVsTgq9ZUUI17TbvkmSrSrk/+cHsxygkFRf5dAwPtUnxCEuPJfoF+bBjg5sNlXEpYHgHqzr6BfPSjF/jsPdxwviovUJcfGoKv6SLNd+XH/um2It559ym/a/nJ+1zCE1r2ossOldk7aUljMD2yUNMkAhK2ItT8lKlrkyZQ1QyKbQa7TKjF65sDQPP9OHjqd2olsbEaEaTea7x27LpWUY586ppy5oFdPXjYqcdBEHd3Vgg+yzLgRqM9GaQux3WYkV9NwZUfv9fbHf31T7/e6o47o5oAIUstK4xxSgkOSyirLP7nSocLo3dFQGsdQLjThG5HI+1Z6gSX4qvxPxlKKyUj31EPfbJXVDu/eqyvNFfHBUPx7N0wY/0ybZys1xbWpNYft5NVgggy2hfnxg2WZm+T5evHmcERER0dhSoEEKPybcJa7Uzvfiylk1KRnlepDiaiiVQjlQMQ3zZSuDC0exy9yKwCz4iZbUsPxH02yaCotKrszNoF6ZfXpev8h2Izqwkb4UlzPt7ZKmYz3JVaQqS/XuCMeCDncYL6Ljt7JSLZZznmk53ZbLG+cm5gMf9uvdRG6fmP5yGk3eQ2K/OwUT3lf73bJdyvDjeSro80acu9qWgFN6jPWWQzSub66BPw/DNA4MXVbPvCPt7SKDTCvb0WLzcAowhYZi96t52qdDTr+FOTqupXC3iUBsN66Fd2oBtrjdsTLA7fHixeOMiIiIxqYCDVJUYfwU8V+KLSImzJOXgCF8E8zmJaALt6vK6uR52PRyGzptH6oJe4YMnNcvOAOtS1FfoT3VyZwRqutF6HzmKnOu5GG7mA0NXVLP4vOX661S4r7fJteD23LpyfKd0EwspxG88Yn9vkPsY9uH3X43Rlq4jEHHO9EZduYQ1j17FMFQKQLLZK4FtXwbZc6F/AQtPGGsbZeMff+MwGN0KyCj9VA/ujLcwoSIiIio0BRmkGLB3Zgg/kttGFE/imRgQ1T5rnqsIUVehLtY6Mknw5X+x1Tl73iPc+sFKkCR5u6+8jgtZIxWDLms6Bc6USHf/FQ7Wp7difbd/aJiPowhmXRRVc63rBWVcvXWbDCCXZ6T5+3iWe/3at24ypfNjyShTCJhZqa4PV48e5wRERHRmFOQQQpX+Shctr5w7xLOyWa9ydyB+0zdLT/eg5YnxEV9vIc2hGemqH7b2r8GmaCyBxu2W/MA5EXetos75eUT1TMbRusAm77kbstZJHGcHTySuOuI/26ZkFJItc97ssuZDKP1iBzu0Ka5v+Vhm6zwNlSke6fezZ3zM3rOi81PdWCdXLZne0TFXGzvuQ1Y45hTJIXfibjSyzWSVa62i0dk8PsXYeTMqMaChfoU/Xs3jO6uRMN75vt48fBxRkRERGNGgQYp5C2nFFtE5DRppmTcuU6iwjR4Gr0XxP+zAmg1d73IpsBStM0Cul9txzpLhT82QWXeZGq7VNRh/ZN6S5FsDFca7rdu189cE0kEae5v7racvSSOM5XHQXajaFaVI6saNBujGfzWrvLv1FUkleVMQrx++3H14fAx+X8pGh+JN8xjWRJ38JMLdPgXxmkNcKYPm42cIo6BqBR+J2wZeThSaPmS5e+DlP52ya30j+vU9t/ArqD2XdSHI1X7MG7CTEMejheN23JEREREqSvAIIXRbSOAm5sil8FFC+7BhCr1wkZRYL4WpEiti0h69DvXsSMQxLqIjn36exsfa8X6B8UFvqVSXob6B5diy8s2Y/y7pI/uISqdWRgVI3Mys13q75+HgBr+tHzxfZkPBJ05hC6jcvy8WM6Fpm0qhxIND3MY1d/cbTkLa8W83lxxEZXxevNnivdu1kbFEN+eh2VuAFNlXcxv/UbV1SdOwsrAw6JiK3MKqNfJL2cqIv32te0Sk8NADg8p9vuO2P1ujJ6g5bPYuBStlvWXw1+Kcs+vwKa1TqM1pLA95egsDzdg045WveuC+LuZX25TNZxmvLwjyf9O2HDRTSDr34cMbZfcKVXfBzfHdSrfP7M+7JIjh/iq8eNmfR8mG+DL9fGiyWF3FCIiIqJxs+fc9a16XjCKml7BpAe0q0eLKzt+hpHD6kWUCat/hZLZIXz14uP4Mmc5KVIbQ9//YCs2LdbvZNu60K+NjtExqF6LSlfrk+JCevIwul/tME2PMD5zaP9OrHvHdKFdUYctj83TmzI7GBLz693Xaxku1I7jPMLSWE4h9e1iVb+qTWs1onNeBoO/WcxvmVgWOSxh0pVusY7hSo0dMd9nxXxj7kK6LWciKoVbnnfal/1oX2kdUaV+bSva5jpsz5B4vxxyVb3UGcs4jKFQKcptlzWJ5VSS3b7G+xyJZe1+Q+z36HnG3R5SgmVNYXv6F9ah+Sei0u+4/4SE3//UfifMjG0UfNN51ItoqX4foiWz/1xvl4VL0akCGHHJrkCv610j6teK9Zkrh6uNbAO77RI7LfLdG5LdT9we1yl+/yLUfteex3tftNweL5LbckRERERuFGR3j6td/wUjH8v24IYQrry7DV85BCjEJVaekmYad8vmJdX3euCdDrS82oPu46pPvuGCyhPxknNFPGWDp9El5hNP+eRqNLauwPpsDZ+RpHS3y8HfHUVQdhsRhvbvzdw2tLiIjqfaseFNOaKBmqQRyywqVBtWOlV03JYz0UZSkP38rftzSFbi3+yNqfgcfL1Dzc/8frEtd4v5xQQoTMTnbdWWtV+r1BmGjh1Fe5IBilQM7BL7XaxX97Go/S6W21hW23nK7bFST9ZoXs6kt2kK23PgfT05ZOz2NN6/M4mKZGq/ExGqe46orDoO1WojF9+HzGyXXBlG7xtpHNcpfv8ijFYYQkotFHJ7vLgvR0REROROQbakKCyRu9DJ3mnOPrFMsmUDjooKvlNFoQz1q1Zod1ydW0gQpS6ZO/HXn9R/J/QWBF76XSk0+f9tdr8Pc3e88DgjIiKiXCvMIUgLykV0vCH7ycv+9ZnLKZGWimmYPxkY+mO8PtAX8el5651Boky4ozxOF47rVmq/EzLQI7s4DO3ey4pjoZpahyaxD5NLmBktN8cLjzMiIiLKBwYpckE2B5ZNiVGNto0eCVQIMmne+kDsSAf+ihq0rmpVeSD60cVWFOSGTD640Hp8ycSVstKjNbH/kMeVRZK/E0ZLFJmXgS1RCpPM2WHksbAfSScJWT5eeJwRERFRvrC7Ry7JBGuPlKLrjT04mOe7UtbkeQ4SJKQkiidcybEhc0OsU4kPKUqC3wm5XdeUB7n90pbj7h42CTYz8j3I0vHC44yIiIjyhUGK65g/UIfmJdXwTS61XjirUT0+CF70SGI7KkhyCMam+9A013R8yaSXv92Lze/zzizlW46DFOaRS/g9ICIiInLEIAUREREREREReQJzUhARERERERGRJxREkOKOO6JTOxIRERERERHRWMOWFERERERERETkCQxSEBEREREREZEnMEhBRERERERERJ7AIAUREREREREReQKDFERERERERETkCQxSEBEREREREZEnMEhBRERERERERJ7AIAVpippewZRtj2OCek1ERERERESUawxSkODHhLt8wPlBXFVTyL3S736Lu6qv4R/nXsU/Vn+rphIREREREVEiDFKQUIXxU8R/DFKkpbr6qhaYWPbDa/jRbQxOEBERERERpYpBCgIW3K1187hy9Pf6a3Ll8mfj8f6Aenw2Tk1NwdQ6rN/Yhs4dbdjSXKYmEhERERERXT/GzZ5zl+dv+d5xhx+ffjqgXo1tMjfEpAeAr158HF+eFROq7kHJPzdhwhSf/obzQYz811dwRf4tStGCx1GyNIAi2SpCE8KVd7vwVdfvo1pIiM98zvSZcYn5rRbzU69Q1YJJT/8URR9vw/ltdkENP2557kXcPCWqnJL6+qnPO2/Mz48JTX+Pmx8Q66m/AVfFsoyIv3mqFUjpNfyjX3y1Lo/H/+hPLmBRv7YNbXPVCwyj+9kOdJxRL4mIiIiIiK4DbEnhMUU+WVkfwlVRSdeSWT692hpMkAGImACFDDr8CpNWmgMUkg8THliNSc+1hCv0mqoK8b5kAhRCdBeQclFW/Hc1ZBMl0cTvOpLy+lXV4UYxTZufDJBsexElpgCFVDR7NUqa/OoVERERERERFSq2pPAU1WoAv8Hneyq0oIPWSuC3v9cq9VorggXAlcPmbXEPSraJir7RaiJovFeouge3/PNq3Cwq+Vd2/Awjh9V0C1X+vJjnc50JWyPoLSF8zp8Xt6WFi/Vb8DimyPedDwFTfCjSWlr8GlfOyveI969+ESWzxVPHlh154qIlhdbd45F5CPiAod07sW7XRfUHIiIiIiKi6wODFJ5iBAxCuCpbD+z4LxixBCRiTVj9K1FJFxX3F+27gBhBA7z7ND7vsvmshN03rPT5hSLdNaIZQQXb+aW+fkZQRLL9zBSXP74arH+5AQH1Kp5gRzs2B9ULO26CFERERERERNc5dvfwEtkNQ/4/xScq8I8nrMDLSv+NshWBqFaXPP0rTNlm85AVeO29DlT3jeSSZvr17iTne+0DIsKEeXoV/2rILiCS6voZ3UNkSxCHIIvi3P2EiIiIiIiICgWDFF5i5Ht492n7rhTR1Kgc6dCDCiFcG9Jfx6XyQzgPVaqCGE6fl+r6hT8viG8cAhpFgfn6Z9oFRVLWh81PtKMliUfcVhRERERERETkCoMUHmIEDL4JJlfhLvKVa//L/BDnV8d/2LdCMIIAeiLLhJJOmmnf0iLV9Yt8nlNQxGhpkWSQhYiIiIiIiDyNQQrPSDFgYFLkczuyhQoCfPxhzFChdoygiFOrhSKjZYdtUMHF+sX9PMn9NiMiIiIiIiLvYZDCMxK3Goh2NaQ3Hyi6q07P9WCjaIGoyKvnMYwcEUmK12pBS3C50shHYRcxSH39wi1FHPNlpP6Z3laD9Rvb0LmjDVvW1qhpRERERERE1w8GKbzCCBikUuE+rFpATPkpJj3XgglV2lRNkRx+dLUMHLyImxeoiU5mN+GWBZHWGHpZ8XnqtZUPN//knkhwQ7y35Llf6cOSfhzSJsVNmplSkCJBVw7V0uLqHw6NiSCFvzmgDT8qlc8NoHWq/pyIiIiIiOh6wSCFVyTM92Dn9xjZoTI4TvmpZYSPSU+vxs2zfbj68TZ85ZSk8uwhfHNePvHh5pUvRpX9KW6MCm5cOarmNXs1Jqn3ThHvnTBFDkn6M3ylxSgSJM1Mev0Sd+VI1P0kl6qrr+If55oecvhR6bZr1unVyY74W4r5d5ep50RERERERNcHBik8wnWF+/ArOP/iNlw5r7diMFz9+DcYefFn+Hzb7+O0MhjAl889ja9UCwjD1fNBrWzMCBxiXiOW94Zw5d1t+Hz14/jyrNHywT6okPr6XX9JMwd2BRG07goiIiIiIqLryrjZc+5K9tZu3txxhx+ffpr/u+VEObFwKTofrsbQ7p1Yt+uimkhERERERDT2sSUFkcf4y28T/w6j90MGKIiIiIiI6PrCIAWRl0ytw5plpcCxIDrOqGlERERERETXCQYpiDyhDP7mpdjy/DyUh/rR/nqfmk5ERERERHT9YJCCyBMmonlZNXCsBxue2oODaioREREREdH1hIkziYiIiIiIiMgT2JKCiIiIiIiIiDyhIIIUbEVBRERERERENPaxJQUREREREREReQKDFERERERERETkCQxSEBEREREREZEnMEhBRERERERERJ7AIAUREREREREReQKDFERERERERETkCQxSEBEREREREZEnMEhBRERERERERJ7AIAUREREREREReQKDFERERERERETkCQxSEBEREREREZEnMEhBRERERERERJ7AIAUREREREREReQKDFERERERERETkCQxSEBEREREREZEnMEhBRERERERERJ7AIAUREREREREReQKDFERERERERETkCQxSEBEREREREZEnMEhBRERERERERJ7AIAUREREREREReQKDFERERERERETkCQxSEBEREREREZEnMEhBRERERERERJ7AIAUREREREREReQKDFERERERERETkCQxSEBEREREREZEnMEhBRERERERERJ7AIAUREREREREReQKDFERERERERETkCQxSEBEREREREZEnMEhBRERERERERJ7AIAUREREREREReQKDFERERERERETkCQxSEBEREREREZEnMEhBRERERERERJ7AIAURpS6wFFtebkOneGxZVQe/mkxERDkwtQ5bNi5FvXoZzd/cii1ra9Qr8hzuPyKiuBiksFWCRxua8NFDS/BoiZrkmvFZTeieWammEeVBYKkWVDAe6wNqespqsL61GuXqVfmseVjzYJl6RWSnDK1PqqDWg7zwHpvEPt4o9vGOVrROVZNcMz5LHC/NPF5iLFyKLc/P03+D42zr8rkN6MxTRde/sA7rN7Zq+9B4yEp568J454rrZL8XwP4jIsq3ggtSzKiaia0NS7RKv/5Ygq2i8j9D/d2J23JpK6nAomL9qX96BZbrTz1EBVEaZmZ/W5AzcwBhVfIXJX7ZokFV/vRHK7aI8v4K9YbrlcvtSVlSMQ3zJ+tPyxff6Xj3kLJFVf42ptbqKbai2Yr1ovKY9ZZTU8Xx4tOfli/z4vHibntmhLwD/7AMEvej/ak9OHhGTY8ysKsDG3YPA6Kiu6U5x0FkUQnf9PA8BHylaoKu3FeNxtqJ6pWN62G/F8L+IyLygIIKUiyvW4LO2hrcW6xq/Zpi3Du9Fp0NCxwDAG7LZcTIIA6M6k8HTg3ibf0pUZrExdKTbdgkWzSoyp+uFOWzGrDpMVGZcN1SIpE+7Orox5B6hQtHsfWdi+oFkY3B0+i9oD8d2v8JDupPycPq17baVDRLEVgmfl/iNFPPiDPieAnpT4d283iJEL/7j8g78MPoflZUcNVUJ7Ki235MVvjvy0DrlmTVYL2ohEtDu3uwYWU7WozHszvR3nVJ+5utMb/fC2H/ERF5Q8EEKWbMXIIXfDLIMIr3Th1Ay1tdmCMf+4/gPRkEKPbhBZvWAG7LZc4IXuvR59l44pyaRtqd7ieZy8Dgn3Kbepac+lUr0GgJTkQTlYnWVrRmqUXFQHAP1j0hLjrl46VDGFDTvSLV7UnZdhEdL+nHy7p3+tQ08irZH75trgxODCO4e2ekovlsD4KyEumrRltWWxGI4+UpfZ7rdvF4Mfib70OjT1bg96LD4Q58tIOvi30mzgeNj+TofDt1IrTGEKGj2Cr2neXccOYiDv7/27sfMCnKO1/0PyJeEgh/BgaGmSHSk8QRQVBoUZJxR/m7C5owiQ6XOTnPc8OTg4tz9w4rx+HBPHmOem925REXI2eXsLo5ejfXZ7hgzIwRifLPEFEUm9EEVEY9DMrMIAwMfyIJe0Xu71f1vt1V1VXV1dXdM93D92Mq9FR3dVW9b3W9f+r9w4u3/h3vBRF/AAB5okAqKcbRPdeYrSB+99YOanj3DL1n/MXOHKWG7W/R7+T10Eq652vGWiXsdpeTofR1awOTXoJCpN1VJfZmsb6i86l+knotju+n9Y+ZBcBVO3vUSsEZm3leXR166Ogx9bIfSis8Afq9kTRONaNPrZJqbzd/P7Enm2jN5u5EQfNIG625XwpNrHQa1VYZay9D6YRntqh4MQr/6bRca6PN0m3gso6vbMkk3ns5/sZLVy2zmxa6iwBAIRow5fobLqnX+etrN9M7N3LKcK6NFm9/N1HRYKU/0/UWXb9XtVhIZzvbZ2Schpm0ZOg5emrnDnpJKjumX5PoLnJOWmW8RQ2fnDH/jtPbqT8d2g/tooXvOrdxGD6O/v7aa2hm6dB4rXn7uS76t31v0G98Nx1O135tAq2+5qsUiXdrOUftXYdoFYeH7dz5nFuuKeXPqb/9WMMziyIL6mj1dYdpVa6ewpfPoLX3qoGpDm6nxU/JU5liql4wnWpmJQZ9pOOHaf0zW2l3h/pbkbEeGmZbu1L0UOfBGK17uY3aHZ+1Cr5dMdUtmUsLJwUsTB/fHw+r6iX1lkqKHmp5rImaLN9tf5/P7z7VrFRar9SZzXDN7bZRx7y5VMPHYIaHOlYOK1ucWMPSVfIxOEXKOYP2gyhFxyTOt5PDft+OfdQU88uwFXOYTucwHcFh6rdt+PAMr5IaH51DQXrVxJrW0xqjZJclHJ5186I0PR53Zpg0u1zLRtisXEQLSZ8z/w44rBLxztse5IzzU97hkXxdJ+vcuYlWGN1+1P48Ppv4nFPmx5leuGRGWhusvp2o5QG+9uWp6Hjedw3ve6pl363bad3jjt8Tk7Eeau+QrhRqhfz2Wvm35/JZq7S2k8H57uA4i3/WBx/nYv4OA2+3UZrrc2Fq1f0eYe36GY6/hzn+SqUpexO9LoWyZfyb191Funoo9sI2WrPHGfd6O/WnQ+cWvl5SFercwr6L430Dx7vvE2u+v1Tx/eUOvr/Eu7V4hGnY8Izj67mW059p1u9Q+2rmfaV6sq7CPFB4OMk4CDJQo+txZS5Sy/eH2/m81N+ebPvPLN7D//7SjIeM413p5firXs75gKnqDz6/eDgBABSIgmhJce3Qrxr/tnd2uFc0iLNcIJd/SxODU36n3ExVAm3HBftvGivsvn7tbNo460b7eBb8+tYbZ9I7M7I7W4d0TXmH97XEUkEhItIlZZbMDuIx1cjwcbRuzkzaeKNUPFhrHvh7Sm+kjS6zlASqoMii6iV11LjAMeAaFzqvUi8j0RnUuHJ+bronjB5pFJIbuQBUb62gMPTQx7bCi3wu1VgPbk8lQmw3OmCB2qaYykerl4ILYK87Cl+7/3BYvRIVdLNrKbqIFt7L4WEpzMWPNavdcKSgyZnJe7kwb6lkEGVjKmhh3SJjoE9XUjny6CIVpt7bxo81VHgWHqng28jhKRUy1mtZwqT+Xpk9w+Opmfze9O/Aue2kaZ7xbsRf0nWdQyGPM3S4ZIEUmDY+xPu2FJCEvHYWkGTgPXOsB7XKwNtN5d+e58wY4bYLVLByqL5RjSew/0PHsVsc5UKd/MsFe30PtxpXw9cMh4dtPAt+HV26KOuzFXiGvXRJecjnKTIXahu5kLyaC46JCgrhHaZhwtNk7qteCvJu8feQDEjqf32a8dJD+95Ms4Ar9FgPU3M1GOUIW9j3tuC/v3DxED7eE/I7/gAA8k9BtKT4zowa+iknEr97q5kaPlErk3BB/Xs30q1ktn742ZlEqwb/7eytJn5mtFawt4ho72qjf3vvXdWSYTh9Z+KN9NN4NxK/7zZJ5cNG/rxvSwrdosMYO+MQ/fzdROuHa/m91VIBET839YZBnzc710VPHXqffhZv4SHHOoH+yzWldMTzONX2fq1NsiCyYD416AqC45LB5UzBGP73OGcAdAGUC9xurRpCsT39l/3I/ow/7OKtLAQXBHyeACc4Ww6E2S7oNkr8yT9nsqxP723HrzhaPsSfXNtaUvizPe3OoCWFvVWHt6SWBin3aUpsFzY8C0w8DnsotjNGm19MPCU0WjtIZULK65Pfb9oWb4Ui20klhEiKB8v+7NvM4H1J/Fha6qRgtJ6aVZS6JUWGxxk8XDJjPsktoljrYYpO5X13cVhs2Gfpc19MkfHdtiezehvjOJ+0tCqQp8DLuJBlFIb4e35oD9Ow2yXwfeNpvm/4tY4wcByop9uxJzmM96jVSfTnOEzjT2gT24rO1v3U3LxXtWSQp9dzuXBo3uv9v9ukz9n3ybNu0SHhsoXj3TIGQoTfa5AKCIn3pKfIKjzkJcdbywv7qCnewkM9aeeCbJfncQYNT1M8/oxrxNq6Q7fk4HPY7/eEXYetXxz7M4/B0vIgV/RT/4Bh4xQo3pn+XKjfX+h4SC/eE/og/qS7xzKzUjNU6w0AgD5WAC0phtM3jIYU5+h/njVWeOD31Swadqm282dULOzVFRTiDP3m3R20+JC5s1vLs9GaYjj9/TVmzs4cO8PePeO9T96ghW9JNfpQmllubxJx7cRrVAWFVDK8YamgEHKsvO3OXSkrUnKt/cWttOKx7dRysMd4UmpWGMi/nGE4zpnEpk20+BFOvLNUgLDT++OMLO9nlR7w8T5+/bKlgB+dbi/kHtwe/+wq62wW/H0Lf2B5mhtqu8RAgnIcLWrmA4NUPKjt44suUJerQcmUzk99RkpPSQpt6vsf2285TqKyWdMTT2w69iYGydQLn1dK5TOoxlJBYQ97M2y06Gzr03HO0P3AXkHRaQlTI94kXHldoqAaMjwLCofLbCmQSVg20RpLQVwYg5kaYVpE06/3eCorFYH3cSbX0sVGtlt/0HxdWmLfTo8dI/uzb8PXhLEvr5Y6GUrrOLMQLhmQApIUAhYb0wlaCwL2ApIUGhqkgKQKzbZuD0faqOl+vm6NmQ0qqMb6NDfsdhnpoaMZ9PIzCkWP6woK0U279ZSKLHpjNlpTcLxLoZKZY2c44n0Px/uTKt5vclzXtVFVQSGFza2WCgohx8rbPrApZUVKujr3SyFa/WHga0SO834ZKNJ6DE5qLISuHvrYXBFSEY3LbgPQPhf492cRPh7C6oP4O7KX1sQHIc3FOQEA5FZBTUHa+87Rrg73lg/vdXSZGaKvDst8ZpDh5TRTGmaca6Ofe1UmfNJhDPIZKSu37G84/XWZsSE9tc+nFcQZ93PodR2coX6qyV7AlcLnI5xJtBRGcoMLPY9xRpb3k8jI8mtLpUj1FDPDa+LPW8ZmkIJOsyogGcZU0LdU15Sw2/U1o+Cpz79jL62zDbo5gsozPM7I9arljBKtW0SrH62njWrRT8UN0sRfvaTyb9J0R6XPCts4GRxvUvB0tiDp73S4HN9Pm62tCKxiHxmDGpZd902XLhFcyJWWSuovq48/tcZ9epwVG5lL8zgzDpcMtfL1GaQQMK7I/D20xjyehHZT0wvmvbFsmuU4w27XZ7ybtLe/qSptx47M/DjHc7wbBT+Od6/KhD0q3m3hUkzfmqYqfTb4VFb6zkKRHn3eMpVkY20lRfpgOsn2ztPqVT8T9PfH8iEewuq38QcA4KEAKinO0Ed/kn+H0teHGSs8eM1SkWq7DHmMZZGWYWoMiqGVtPF7NfSO66K6dNjoc/4TfZQn9RCp6aeeh6lFCsWTor1SaI81pWql4RzrIfmJh32sBy3sdiF1nCLjoalSVjJSvfLW9WnADNyn1kxQEY0bq16GlN4MG5ZKkbGqUKbE/nCZVUZ40eEyZpqtsse+WLoCZYG+JqJ186na+juVMSNUJVPQ6ytn+iBcrDo7g7VmipSZrVJ8P+8y1kPY7TKT4yfu2ThOXXlTyvH+NMex6+IW73qGhtPU4fGkPeuO7KUVD+ynWFcRRW+XsQ/U8T0sYyAUVmE53wT9/RkQDwAABaMgWlJ8eNbsWjF+qMfAkWL4MDLTF11g15UbqbZTrRgKqqBfuCIL5tLCMT3U8thWanpxG7Ucd3SdgBRO0VFrVwYZFFS9jHMU8sPp7SlKucCQk64+ucQFddcCcfLSmKsScq7Fu1iYg0/Gz0kGQpXVB7eTZ+sFKEDd1KF+96VlPi1kdCuG3izoFzrd/P6BTbR+y2EuKPdQpwwmqgrLa5dbBgHOAV3Zddnr43gIC/EHAJebgqikeO+cWdtg7+pgd225DCzJujroN8Yaot90mM+cA2137hx9aKwJSLd+SHc7N3qGEZnu89fN/ovr4JZfpW/41MMEko0WIamUz6AGY+C8baqbgYwjsJ1iY6ZRQw5H3g+GM+cn1Eth7X6g2Lt1aGG38+FW8RDn3F9y9xFn95M3AhYi0z7OFOxN82WMATUehOtiad5/TD0VVqJTMuy/7hueBUSHi9sYG84lq2NumPFojRNZF9u5nVbZuuH0kT4Ll3DKynxaP+nWAS5918NuZxOgBcPut1J3HYncpLpypdvHPuhxBqFbj8i0jD/kuPVbXAc5HEHlmT45D9Mi5Ig55sWa+5tohRzbA5wGclZFZpdo8BxT5BQdlexMxi1QMhtrpF8JFQ9K2vGA+AMASFdhjEmhxmOQ7hD3fM1Y4zCO7tGzbXRY7uDpbHfIrfDv1VUkMdCl7/SmQZ3poF3SWKT0mqSpQv0dpW1GPcxQWjJ9ovfYGMOHBxg3IwsVHSlExhaZ4wvYRvZvozUyRkVJ3/eldk7dWW+Z3lJmCLAOAmmd+jPsdgnOiodpVGubrrSYIuWJv3e/bB3k0myJopviywwKttk0Dn7kOZJ4tK4uPuVrsONMT/s71kFDOVxWSpcBx3nJ1LMLHJUQHR/SPmtrkUlz7FONGtvNp7WPJo7fLr3wDI+vXbeCsMtim4kiLB0uk6K5marXDYezXE8ywKp98NTkASr7TLbCpVymQTZbiuRiutL4eAxT+ThdC8eJgSCt03+G3c5dgIK5GsdBulHUVhlrHCqp1hjIkyj2glvh36urSDrHGUB8WkavcPHSRm+0yr9871zm04pvPN8n1EtvwSo6IlU+T+eP8H1EjyniWRHF9zSjhUvYihU9DkcaLV9y/HvoC5nHg5ZuPPRB/ElLv4c5/p42W4cAABSaAhk48yj9XM+mceNsWjfRUugePo7WzdFTcDoHnjxKDcasGOlul3DrjTXUMnGcbbvE9KRd9G9eU4qm5Qz97JAc51BaMkuOk/dnqzCQqURvppbv3UzfUWu037ynCgoynsWcm+nvv2bdkM/3a7zdrJm0cYZXB2N7Rcd3bJvzfm3flxnPwQ6N9X3/hJNi++yzQnDhWPdxl0EeE10oZGA/y/GG3c7COW6FDDJpNKs3lkW0+geWSpyOvY7BOKfFm+LLFI8J5iCe3jiTrrezHSef0o4sxEfScUqXAcd51U2j6Cxn4bKbmnbYw6PMEqbmdnK8fPzz3DNfaYVnwdDhIvFWZ1TuRGzhVkzVC6TyZn7W5tI3Z/fgQmcOZsXInuyES/U8vhbVgK1ls+ZmvyLoCP8edOH4IT7OKkuYylSi8ek7D1OzdSDAsNvZ2Avm1daCEhfGq63fKZVvxqwY/LtZKn31LYV13l/jw6qrj8+AldGlXDCSPv7q7+DHmQ49YKgKl6QxBWQqUY73p5PjfXezquiV8Swenk91tvPn863i7R7i+4Rn4S6N8JTZWZby/evpOrMrAb9vFZEwNaZRJd/xFcwWLskzlQSiu+e0eldaO+X899DbshIP6fyO7Ho7/owZbIzfG8df2hV5AAB9b8CU62+4pF7nve/MmE0/LTVbPiQ510U/2f5GvKuHVfrbDVcVEeeo/dxQirhueo6e2rmDfhagjuLaibNp4zVDzelMfSo19Oc88bE+te+N5H0On0gtsywZwiQpjtV3ew6fX7uHa14rn0Fr701MYxlrCvo0mzMqKzkTbp1dwkamMd1mzBJiF3Y7rZjqVnIm3nN76S5hnfEg1edl3A/L7B0iOp82qsEOZYDPTpkK1vzLpnPnJkdrFxfW73LbVxxn3JbMpfpJ1sqTZG77lNYSDY7KEyeZhnSda5eDdMOzcEhrGXtllMPxw8bsGIn40GHhHU/6O5PiwfE7ctPJ+9u3Y1/KGXo89xGXwXGy9MPFrnpJvaUVkt81bYrU8v5u52OR6TYDF7r5HOOFdTe83wd4v0lPS8NuZ8GFtLUPecUl/x5+aP89VC+vo/qpHuHZxZ+XKR/VnyZ9jHxv6eJ7i+uxBjhOJWj46s954mNt2cDx7tynb3iIFMeaRnhGqmZQ7R1c6PeMP2ZMh+pXOcxpjAwEmvJzyXQYxZ7kdDDgtKrp/h7idLiEOE6Rbryn8/vLSjyk+TtK6N34c/4u0rtPAQD0vStKxo59UL3Oe21HD9PvPhtONw4dSiMGqZVcAG/v+iMt2/0eed27ze2+RKOH/i8UGaQ3PEe/O/RHWvWG23Zfphlfr6Cp/3GElm3/PT3r2Gd7Vxs9uu9N+veAjShGj/463VU8iE6fbKeNJy6otcm6TxymDV1/oi9/eSgVDR1E8WGSzvGxtpvH+oLb5hdO0Mb3u6jjS1+mrw9yCZvt77hvp8n2vN+JxUMt4cPnea6Lfv3H9+nfz/ptnKeGjaO//lYp6SqfrgP76DWzUU0KJ+m1PfvorZPFNLGkiIYOUas5k9Z5cA/9wzO/oxcPnVfrrMJup52nA3sO8/aDHdtLIbCH2t44SK9/cJIS82/I5/3396ozQ1l2Nd012cy0dL7xG1rxLwfpyvIymjDmK8Y6oxD3/Db6p90BMjKW7yL6Cx3ae4AOmI2dHM7TkbcP0FsHz9Bnw4poGO8rXg3H5xV7Yw+ta/4t/b/7k8PmdNeH9NLBw3T8z4OpfIjzHN+jXz7za3pitzVMrNINz8Jx+oMD9CyH55Ve4fn0G/SqLS4G0+SqSTRhiHc8jbh6Ms2p+AqdO3yQXvrAEhfn/kJ/5mtkur5GXAzluJkweRJVnPT/jXnuIy6D42Tph4vdkRNXUMU3SqmMr5XOnb+hf3K5Jq1GTOJjqeRj+YCP5V3/zybwdbmDf7e8ryIuxRszSBv4mm7l3+39/Lt1TVfCbmdx5ii91HqGKiYU8faJ+OzkQvzOjftoyyf2czjyBv9ujf192fJ5DsstHJbr3qB31JoEjr85HH9/eo+P59e0/QTfm8r4t6eOtbN1P/1yw29pS4AKChE0fE+/y/HO53XlCI73Uku8d/Gx7jaP1TVsJDya+f5yJd9fhiaOM3CYphGepz85Sq/F488anvrz2+jplOO7nKTOK79Jc6Z9nSZeeTiNa66Slq6cZFQarHvqaOB7Xrq/h7gRnPbO5LT3T120fUfw/WlB4z3M7y8r8ZDm7yihd+Pv9Lv/QRU3f52P0fw7vfsUAEDfK6iWFFbxVgcy2OTe/B5JKGhLCoBCYX9qncZTNiggqmUD7adVngNOSkuZRcYT10AtcAACCvOkvP9LtFYJ2iKlenk91U8N/nnIpT6Iv6r5tHFpBX5HAFBwCmRMimTvvXvIHBSz9EZqmWEZMyIPfXNY/BENQAHigmjU0i+9vJK+dZ21efXpApw+FFIq/yZNH0PUecBvkMNuxywuANlxVZn1HgOmbmraIONpyDgcqceekYqe+qn8G96yDRUUeaH348+curSH9r2JCgoAKCwFW0mhB8WUzHOk9Eba+L0aesdYZqc5Q0YWyaCaX7PPpCEDV/7U6P94jnZ1oBUFFKDodKqvW5QYuPLeOfaxHnxmEIHCJ4PmNVorqZRIeSXVLdEtag5TM1pRQBjj+Tqqsl9fMnClFM5QuHJxZC+teFJmfKmg+oe9C7rxMQlat+MJej7pzfgbP4MajO+IoZIKAApOwXb3iJOKgWuvoSXxgTGDD2iZbX4DX7Z3vUUL87xbCoAb+wBqDsf9ugJAofONey3FgJQAfuKFMRedUkB73G+GosuYDOC4rIiaN2yl3S4FUAnXhrIYwi9f5TT+inn76dRwewWVdbkNcgsAkP8Kv5Iin8iUndfeSP+ldGjiqZAMennoLWr4BK0ooDBFojOodnYFRcdYChIyGOGBGG1+MdVgb1DodPyXOmaD0bN6vB7rxjUA4cnUjTVzqWaq5fqSQS9f2EZr9qAFAED6zJlESlu307rHkUYDQGFCJQUAAAAAAAAA5IUCHpMCAAAAAAAAAPoTVFIAAAAAAAAAQF5AJQUAAAAAAAAA5AVUUgAAAAAAAABAXkAlBQAAAAAAAADkBVRSAAAAAAAAAEBeQCUFAAAAAAAAAOQFVFIAAAAAAAAAQF5AJQUAAAAAAAAA5AVUUgAAAAAAAABAXkAlBQAAAAAAAADkBVRSAAAAAAAAAEBeQCUFAAAAAAAAAOQFVFIAAAAAAAAAQF5AJQUAAAAAAAAA5AVUUgAAAAAAAABAXkAlBQAAAAAAAADkBVRSAAAAAAAAAEBeQCUFAAAAAAAAAOQFVFIAAAAAAAAAQF5AJQUAAAAAAAAA5AVUUgAAAAAAAABAXkAlBQAAAAAAAADkBVRSAAAAAAAAAEBeQCUFAAAAAAAAAOQFVFIAAAAAAAAAQF5AJQUAAAAAAAAA5AVUUgAAAAAAAABAXkAlBQAAAAAAAADkBVRSAAAAAAAAAEBeQCUFAAAAAAAAAOQFVFIAAAAAAAAAQF5AJQUAAAAAAAAA5AVUUgAAAAAAAABAXkAlBQAAAAAAAADkBVRSAAAAAAAAAEBeQCUFAAAAAAAAAOQFVFIAAAAAAAAAQF5AJQUAAAAAAAAA5IUrSsaOfVC97gem0F0/uYdqJg2ktrf+J32m1qYWdjsvY+m2e+6j//Q3Y6ln9wE6rtb2V9ct+jv6L99bQBPHnqLYwU/VWgAAAAAAAID09KuWFCUzq6mSuum157ZTOkXlVNuVTJ5Dd93zd/TjnzxoLvz6rslj1btuxlDxKP7nZDedMFf0XyVzqKqy2Hg5atQYKjFepVYyU8JzMV2n/obCgvgDAAAAAIBc6D+VFFxYrqniwnLbbnolrRoK/+2kMPajhbdQ5SizIG7g15ULl9GP75njXigvGUNSR0Enj6dVWVKQPj1Ah07Ki25qe/9AwPMdS9dO4PC8HCpx+iXEHwAAAAAA5Ea/qaS47tZbaBS9T89v+oNaE4zvdroCQwrgLRvoH3/6oLk8+Ry9JgXzUbfQjxZNMT5qVTJxglFJ0fZeesdSmI7RKz+XcPlnenbXMbUuFd3S5DKoxOmXEH8AAAAAAJAb/aOSYvJi+m4ll5n2vEIH1KpAUmynKxtO7nmWnv2jpQD+6R+Mgvnze16l53+XXBExerRZsdHd3wejCGvyROJgv0wqcfohxB8AAAAAAOTIgCnX33BJvS5QMkjlMvo2vUq/+Hk6Y1Gk3s7o6lFVTG0tD9Kzf1QrU1LfO+p9ev6nG+kA/33dzNuoqsqs8BAn256j5k1/cD/WEv78rXcZ4zzoz9PJ9+m1V1+hV6wVJUn70Xj7yWP43+N0wPZ5GRz0+1TJ+/7HNFub2ExeTD9eOEH9YXHSL/x53/dU27vMeHKeT0IJ77vmFg7HeMB0U9ue3fT7Xc6wVGFzks/1d0S33VpN35ZxMyQcn9tIr/DxJK0LfuGkVFIyha7l77/GEocn217lOPe5PgPHu1Iyh/526S00yjM+va+PeNgY2wW5PrMTfwAAAAAAAKkUfkuKybdxQYyo7dV0KihYgO0+7e42/q28xWPsCVeWQTOlIPmTZfRdSwFQjKr8PtXMTB54Uwrhf7uUP28tqIpRE+jbC5fR37psk4TP67sLv0/fveU62zGbg4Nm/vS7pNi9oHrSbzwKGaMjUAGXuY5zIIXkB+lHC60VFKKYKqu+Tz9KGhtExQFNpLuWft+sjBAcjtfcKmFsX/ftW5O77ITDBf5Ff0c/Ut9vj/Nb6Ec/+Tu6zeVCChXvY8zPnjzh1VzHY/DWkuvoGl5vbBf0+sw4/gAAAAAAAIIp8JYUqnWA71N8N0G300+j+aXfU20r9YRbCmsywOYo3u755zbSAWMnUoiVwii/dD4Bt7RQsD/JHkslM2+jH3FBUloOvPbkP6un/m5Pyq3Haz03tT7t1iYBqOMO3tok3ThTn9etJt7lcNEblUyh277/fbOyybp/3cpAXnNY/kLC0hK+SeuccRGKJeyNMUyepd/ztaLDP95awXneace7KWUrH6+WFmp/J23X5yt8fcp17XN9xoX9zQEAAAAAAKRW0C0pcjXlaIIMCrmBnm+TAp35VPvH9yym63yaVehxLIwnz3s20D/+XFdQiGN04HevkjEZhg0X/FRBVQqd/xovqAou6O7aSL/YI606iumaiT6tKYyn5FxANo63mEar1fGn54Fn3wjObFmRxvgbac58ct0iqaDggjQX0p+Vbh3WjWRskOfM8BxVbAkX1crAqKjRYXm82wx36zrFuzVCcCUz70pUDskgovEKCsHxznH4r08+R8/brrnw8Z5y3BOPlha6JYz9+tQVb17Xp8XlNHMNAAAAAAD0usKtpCjJzZSjybjgtumfjRk92ozS8AT67tK/o7smm+86mYVHVej0me3CWnjUXTFOcqHRqzXCp+++bxbGR8t4E+6MmUpOvk/vO9rbmzOYdNOhd1O0AkmbnoryfXovaByownOwbidTaIIEDEmYP0g//onLoltMWOiCuK0rj96vZZ3+3MnuTMNlCv2VMQvM+/S8X+uCT/9gqbDKJN7Hqq4c3uF+3bWqdYbj3BLX54bA16dNWvEHAAAAAACQnoKtpMjJlKN+uID57M8fpF+0SKGxmCoXuo0voAqP/P3vexQ64zOGWAqP+ql4ZpUIZoFeWkvY6yhUQT/dypxA0p+K0iw8B2x5oWaRSJdbKwO3/Zqf846rwHTrgrZ30xowMnS8q5Yx3uGur0NnOFuvT/d9ul2fVmnFHwAAAAAAQJoKs5Jicm6mHA3i0z9upGbPrhcegxVaJBegLQVKv5J+UvP9Y9RtaZdvPpV/n/bsOhYf8NOQy+ki0/7ugOeqxFtEtDxI//hT/yXRKkC3vrDuw22/6nPZGOjRo2uFv7DxzlLuT1+HzpYWYa5Pq/TiDwAAAAAAIF0FWEkxlm67ZQIXtF6lZp/m6snCbpdMVwIkdb1I2V8/bCFPHTtzf8Ktul3YnuQXU3FJ4px/n2lrARdpj0ehC8lptjiwjTeRimurBpf9FsTYCu7xnqqbSolugeI8N6/1camuz3DxBwAAAAAAEFTBVVLoAQrTnXI0+HZcMLznQfpx0rSWCfFCouNJtm4q792ywO1Jtm4RMYEmeIxzYR2U0bWywZhOtZte+51jv2NyN2CmiD91D/rlumIgoHhl0AT7dKpWJZPH2t9za2WgCufptUZIgxqUc1TVbXSduSZZyRTHOYSPd7/WDsasH3q2EOf1qVumpHV9WqQZfwAAAAAAAOkqsEoKNUBh23OeAw26S2c7VXgcdQv9yJjJw/oUX6ZoNKd+lEKicywB/6byTBeWHZUGB9573/hXxrm4iwvdcTLFpmV/XrORTJBxAlwGUSzm9TL+hnQByT791H0CVc1MHHPJ5Cm+s58YKqvpNst5lhjnOSe5gP/Hd6lN/jXigt+3fK+5jRTIl9FfWQr5bq0Mgq4L7dMDdEhVOHzXec3wa7lmfrz0+1RjCSeRWbwX07dvtVR88DZ33fOgOS2pzO7CnOcW9vpMEjT+AAAAAAAA0jRgyvU3XFKv857xlLiK6LUn/zmtQSDDbCcFy+9WmgXZZN3U1iLTTKo/DdICYxl9e9T79PxPN7o2hzePgwuRLQ8mVZZct+hBY7wMd1xQdTl26za275y8mH6snqZLxcw/pjtIaED6fJzczs+kw0j96eC6nfVcXJzk82u2TN1phok9vMx11nhJHVdpK5lDf+sy04h2su1VPs7kyoYw8e4dJubn35vodr1ndn2aQsQfAAAAAABAGgqnJUWvTTlqkmlHf9HyKrWdtAxCyYVAKWw+z4W/5MJYiqbyzO9J9oFNauYQ44m8wt/Vtuc5+sVPU1WueM9QkcupIj/d9Sw9r57am8zj9R7/4hi98vMN9JptGz7Nk1xwftKjgPvHjWr6V8c2Rjw8SP9qqaCQQrTZusPaBUWts8VL6rhK26fb6V9/usEID2sUSguX12S6T5cKChEq3jlM3MJdf969G05m16cpRPwBAAAAAACkoWBaUiQ/DQ8m7HYAAAAAAAAA0LsKoyVFH045CgAAAAAAAAC9owAqKcb2+ZSjAAAAAAAAAJB7eV9JkfspRwEAAAAAAAAgHxTU7B4AAAAAAAAA0H8VzuweAAAAAAAAANCvoSUFAAAAAADkxMJhF9UrcNNy9gr1CgA0VFIAAAAAAEBOSCXFzvMD1V9gNWfI5/TrM6ikAHBCdw8AAAAAAMiZAVhcFwBwh0oKAAAAAAAAAMgLqKQAAAAAAICccWtFgAUAvKCSAgAAAAAAcsitiI4FANyhkgIAAAAAAHJIxunHkrwAgBtUUkCy8TNo7cPzqVr96RSpraO1yyvVXwAAAACQt/IgX+fWhgCLuaSEfDlchlBJkVXFVPdwPW18uo7qxqtVhaZqPq19aBqVyWufcyibOoc24oYIAAAZ4XRzJaebj3K6Wa5Whaa/q57WLkD61Duyme/R38XxV+sRf1JY4/flM7bl4RkUUR8Jpx/k37zkSb5uwIBLWFyWlJAvh8tUP6+kSCR49qXOqJGsqypWnwODJP5LK/hGeJjW37+Vdh9R6x3aNzfRqi09RHxDXFuLMDQNpLpFo2nj3bwsGpLILF09zFzHS+PVap1F9Ty1je8ykupGqQ2SqP1a9wkFpL/GX7jfA+QbVehfmV4BMBKdQY0r64zKAnOpo8YFlbm/xsu/SdPHmC/LZn3D86lj3wkXnpeN8Rx/pebLstvzMf4KUD7l6y4NuMyWkXTHf/3P9LP/OpXGub6vFj/Il8Nl7DJtSVFEZaUVtHDpoizUvvcXnHlaJjW1PdTyAN8I1VovckNc3yoZibl9+9ShvJIal4SIw7DbBXH6c2pXLxMu0tFT6iXA5SQffg/5eJ/op6qX1NHqumkUHVOk1ogiis6aQ6tXejdXzoqOD2nfcfNl586PUqZj/VVkwXxqjBZgQeUIx1+X+bJzi0f8HdlLK364nhbHl+0UU2+BU37l66Q4frkt9MUXdOkLs7WE2/uyeCvQfDlAllwmlRSHab01UXtgE63fcpg65a3SabQaFRUUqZ1LC0slY7CNmjxqap12Py6ZgyJauKxvwi8SnU9r751D0dFqRUBht8uF3S+foMVP6IUTotOy9iK1/Mq6/hQ1nTQ+DgBp6g/3iUIRWVBH9ZOkcqKHYjs30ar7OL2V5TFOK6TyYEwF1ee0FUE3NT1i7nPFi21q3eVoBEXrFtHagqtg4/i738ynrdh8OcdfduRbvm4AXbrsFrIsbu/L4qUQ8+UA2XR5tqQ40k27N2+lFQ/sj1dU1FYZ71ymKqn2ds5Ydu2ndZu71bog2mizNC/r7fArrzSazK6uq6Cy44ep5Zm9Lk9qXYTdLpDPqcOoYHA4ddG8xnLmCho3Qr2EAtQH8TdqCDWqrhhrbxqoVmZbX/0eLPLyPlFoRtI41X0iNU5HZpmtJ2JNTbTmxe5EuHW00ZpH1BPvMZxeRI21l6F0wjO89he30fqDPVQ2aRqtlq42hdiqAjKUf/k6e5H9cliGUcmoS/SFakmR/L65uOvl+Bs/gxrj48HgfgH5YcCU62/w/o3knWKKVE2nhjs486j6LXa27qfm5r308U11tPp2opYHmiw1jsVU9/AiWlgqLSncm0rJiLir1Y1g1f0umdHxnGGtidL0qUVkDFrDOrsOU/MGt75hen/SNKuJXpebzLIoRUvNjBt19VDshW20Zo/jhiN9zmRQHK9jcHyvW41qpGq+LVzcdG7ZRCvcbna87calFd7v+9HH3rqdFj+e+ycf8nSzQQoP/Lrz4HZa91RboAJE2O3SIeNL1Ef4+9/uoRVvfm6u5ALh2jsH834v0PonzqZorif9+Ito4QhpSeHTeuLqYbR26iAqC1K4bT9Li1++oP6wGDWI6qJDaHrkisR1ffoCNe/gY3Ts1zwvOf7zVD5vGC3kbaS1R2zXKVrzAR9z0jpjsywZSJGrB1PD1IF8vrIPwQXd9s9oHZ+XVxxGrh5CtVMHUzQeRj7b6Dg6fZ5WbfrM5Tu94kWtJ73dQA6rYVRjDdP287xPx3dmI/4yoK9TU4prLQOZ/x7Cy+f7hLQ2WD2L06rH+F7ewSukUmQepzGTLGmMx75lrIfa2dKVQq2gHv5sLOVxprWdtCCZzWEQpDDNx7mYv8PA223ksKPjnI494lGx4/oZTt9Wcvo2htM3DhMj3fwBp5u6u8hxTjd3cLoZc6ZNejv1p0PnTk7PXkyRnrmF/XFO35/h9F3ixhPnRaKcF5k9gsNJHadXmIYNzyyQeG+ok+bick1xYeepoBVuOq/F56fzL3J+rXx+nM7bv8OZPymm6uVzqcaaZ+J82rrHnfvW26k/HYLnRyqp8ek5FPXMPzl55yOppp7qp7rns8y8oiWP6ZY35HxQcviwMPlI0ucTNDwd8ixft3DYRXr1z85K8RFUPvU6+sGtQ2l08TC17iydeP9deub/OUJeP8HyqVNo3q3X0sR4Wdpnm7IptLL+Whrd/R797Gd/cPnOEbTg7/+aZhafpV3rt9KL8Vp0tZ70diMo+p+/RbMnDCPduO7E++/xPh3fOfUWWnlrOZ+P+tvP+3upkY/51sGf03NndP5G6eX4q14u1776g3/rXmUNgN5UQC0pzBv3ahlAxpKolU2dRvUP1VHDNLUiTe1v6m4fRXSVsSZBEqWND82hhZbEQch4FvUP+dc2jqvhBI23jVdQCH4dlXEwsjz6bvVy3pcjXNJRfSNnGvmmtO/NNG+EQvchnZrjQa6sTzflBtrEN+4UGXND2O1C+Pj0RePfrh5VIBMnPyejiy2/97GxIjsCFXA9RG4aSRvvNCsWbNf1iEFUf6fX0/WBVCMFcqMyQlxB0alDOIPvWDdzWPaug1GDqJH3uXqmFOitCTgfd2QYrXYdUNQcsHH1TGsFhfDbJkN8bFepY613hmlkMK12GRQzk/grFL35e4grgPuElVRYbLyX0xhLIVnIa/u+pUAux2etaBC83aQ5xtNy95kxwm0XqEDtUD1F0hEuQB340DvcjnFBV/7lgr0zvRXj5nFaJl1srONZ8GvpurBxSXbTTc+wly4p98rsIB7pO18rjSs5LyLXivU4fcI0THhmQ3tsL624bxO1pNOqggvUjfG8luP8pvL5+c1+Mc7ctt6ZZ+J8Wn50q/XPR9aMVStS8Mwb8uK89kPnIyVPquIiTHjmY77O1s2h9Cpa0jCPln+/jIpHDaVLly6pZSgVX3MzLf+//oYWlFo+bywjaEHDIt5mAl07Sn8+xTb6M0ZrBsd7xsL4PfkM/1/yej62UnWs/+s1vB/9fbwUXzOBljdMpnLr98l627H5LPz9so2bgsiXA+RYwbSkSNTy9VDsyURrhMj4GVS7jDNgRoLjrP1TNdI+LSkSn3Fsq2oxjf1tidHmzYkMq9FqQRI5z/2Zf+naebOmvJiqa+dSvbTaYLEn1/M5GC8TtZ5hWlJYjrOFw6VJh0vVDD5GeYLid+4iSBj5S3rCkGX5/FTURmYu4AJ1bNcJS2sC59N2P15P7P1w4fjuYRT1bAXgoI7RaPXw9me0+c1Ey4IIv9cgFQKOp+uJJ+96vT5O93X28w9LnZe8PH2BWlrPU9MHurA7kKpvGkw1NwyiLse+pAJm9Q1SoSGtOs7ye/oJ/iCqmz1MHbPjKX6mLSniFQ78Pu9TH6eEp1SwCO8wSTP+skG6e8w2K3FsrRyyLePfQ3oK5T5htqQootjBwxSdxPfu43zvfWYf7e7QmdFiipR3U7vl8ZzexkiPmiytCqRy5QdcADIKwfw999nv4WG3S+BC0qNzKOrXOsLA6Yhq1RBr4rTNcyRD/TlOr3RLEsu2Qp74N7/M6aZ6r3oBp5vxbiR+323S5+zbkoLj3GjRIeGyk9P3Fy3pe/x6sB6jpsJDXkpXoB37qCnewkOOdTrVzKqgLs/jDBqe2We/zr1aVfDxSasEednF5/cCn1+85afkYfj8bufzs+ZfJP4s+Z7kvMh8o1JA2PI9Hsz8BMdfDlpSeOcjpdUrf4drPtKkjyvWyr/bqXw+HD7rN/Dv9kgifCLj+XfrkT8Lm48MF576O/InXyctKfac1w8bxtP/9n/eTBPlZXcHvbL7IG19W/cPHEHRuZNo5l+V04nnNtH//bZazcrm/g0t/6th/OosvfvcXn5PbVM6nubX3ky3GfU9HbTpv+1JDKZaOpnuu8dsSfH4uj+6dDccQfMb5vG2Z+mVn/+Wthq16EKvV3/yPl/hferjLLuhipZ/36yNfNdxnAnqPD33baoectHRkqIP4o/LIY2qLBWq9QZADhRGSwr+8dSohEV+cNbuEu1H9tKa+7dTLH5jCauIxo1TL+UGcYdOBHh/loRFtO/ZSiuePMyvimj6Te614MaP/HFdQSFkHAw1RRCL3pidp0IR9UhWjjORmZBj3KuOsYJu9u2XNpLGSWLY1ZPhk01r+GVRuTRXNRPyWDpPN8NulzGPWQtcZzjobVxAnKoLzadojaWCQrR/cJZW7JKuBVfQ9G8kt6bofJsL4EYB/XN6vd18Sm5d5zoGQUiRm4aoCgopzCYK/qbPafebfKy/6rEX/Lnw3aAqKKQyIV5BIU5eoKZNfP8wjnEQ1WR7LIbTUvFxynacEp7rVQCXFuVq7IcQTn5GazaZg7LmrIIirpd+DwV3n+A0YFKFUZBe/AhnQuMVFMJeQWEco6pokEKzrdtDRxs1PbKJWowZLSqoxvr0P+x2Gemho8fUyxCMigUuPCe6WnC6+SKnmztVujklG+kmp++zVfpujJ3hSN9jnL43qfT9enu4RBZEVQWFVDJstVRQCDlW3vaxTSkrUoKRCg09hav/0mgclD/jvB7bbsS5tKpocInzSK06P6PAz+dnyVOYeRgZy4vPz6uiQQruP3TmRbYaMw6I0rJsXWch+OYj2zgfyb+HAPlIqaCQ/N1iYzpIe/jYKiiykI8MH575ma8bMMBcyudOoGulJcGJ92jdf99Dv33ndPy9AQNO0/7te+ifNrxM//5OYpsBZZOp7hZpcXGGXtnwW37Pss2xI/Tb//4yvXJCWiiU0W1zRyTe48VsuZD427nIm/IZaT7htv7SiaO06YHf2o6z6509tOl98/3i0fb9JRazdYbx1a7vm0uyPog/oyylB621XtcAfacwKinGqaZurTGPGsFTdFS9ygo9Vzcn1Ju9EuM9Hxk1tWXTvunS5M67iVa8e8nYkb3W9DHXGYP2ziyWTn2EjeOsXht+uFCaPBPH51w45gJhlscVCGXUIJoudVpc8N/s1dLhgwvmdR0ZlHR92prtK9Z1unl/5gbSt4wuJBepZYfP0/aTjuMZqbpatH/miAON46LVjAe38wtPjtN9fIXshUkB6qPfQ97fJ7SD21OPmSDGqvTvIKd/tqf6Wjc17ZDCDl/X11nSo7Db9RlON9/xSDffUenm6Cykm+WcvkurjeOcvntVJsRU+m4Ll2L61nWq0sdvMFVbhVMh4fObps5vg8/52QrmVrKd+1PfjzvNSqY+lTIfGVAr/26DFOKykI/sy/DMRb5OyuwDLo2gydcM44L7WXrl2T9Sl7HOZeH92/4eLV0tuMz//nv0Et8MbO8Zy2l6aXeHUSFQfM3XqMzynvSokPXyr30bc5H39JK8Xo7zNWp1vCfLseNnjc94fa8sqfYtSy70Vr4cIJcKopJCtxbo7MzlxPo9dFTnUnViJtOTPl1vjHabvKgmkWG5jIERhr4RRZfOp2prP1Hpy6iaBHZ1FmqmiXXspXVNkkEtooXGlGqVwTKpYbfrz3QhfsRgWn23ObtD8qK6WPQpPePF59ThWtngLqJaK3T6VQzo2SVkHAljBfQLBXif6Pw0WHoWKVHpn9/nXcZ6CLtdZopoXMB+/aFk4zh15c0YGaOB03LXxS191zNznKYO10qfbGujNXoK1xRLkJYb0t1DptSVbjVGd4+kCjL19FbOL5NCfJ7KVj4y8Pa9kY8sMJcGyDKMRo/6wij8Hz+m16Vexo7+Km/zBR0/cdb1fWM5zt/Jn7k06qtUotfxf1/Iukv8yvpZ66Lfjx9jivV6kf/4M194vc9Lyn3zAgDuLs8pSK10bXehJszxpn/mIEzxxE8G7ZTVrdu9a/GzRCf+uWJvpqoGJgswpVrY7QCg8OA+0Ze6qeOE+aq0xCfsdCuGXivog9HtYEldfFBYs1tT746HAYUnF/k6Pbgkl9qNgju/iK9LuehteHF9Xy1u363XWT9nXdy28VsfX/T7vLi+z4v+Drf39CLfn225zpcD9IaCqqQoKxupXmVP5CZJuFnrR4lmdUfV0yWZvueH6/2XQFNeWeja9Yz7mlmZTf+MY47jzMiW7bTKbTosm1N0VPphZtyyw9ISJReMPtTraVW6Tz3DbldogrQM0K0IZFrLJ8wxCTyX3hrE0ddAKg8xE4d9JhAH3ZokV7NLhIWWHdnRj+8TZSU+6Z9uHXA8OV0Ju51NgBYMu/+QuutI5HqV3qban1PQ4wxCtx45yOm7S6sE2+I6uOUIKnedSSUNWWu54s9oPfHoImMGE2k9seo+x9gkrvj8vGbv6AdykY90lct8ZEr5ma8bcGlAfKFLQ2nM2MTfqRf+Av63uHi4y3tqGT2MivlfOvEnOq7X8X+6yULS5y2L1BPwq8DrzcU8ppTfPWoYjXVZrxfZg12B5MsBcqwgKini4zh4TaczXjdTTNP4GdSgZ9t4yzKXcHz6nqj3VFu+vAarSQyk1LnfMk3bkVPmtHweN6RI7VzLSM8OVfON0apbHlhPK2wJX/JATe66qcMY6CxsxkT3Y+2dlihJTz1XzveYes8u7HaFI0CB/uQF2ie9gyJDsj8NZ1ZdoDeMC/cKWjg7efrOuFEDbe+1f3TBvE94nl9i4NDOdsugoXpaTI+KgshNelaQXApXIROKzO6xyOze4z7dbOHrT/eJ+HgMkzg9cj2WxECQ1uk/w27nLkDBXI3jIN0oal3bsFdSrZ6lY4dbocyrq0g6xxlAB6fvHL/e4eKljd44KP8W0cIf+Ez/WF4coHIrCxUdvoqpOu3WE3x+RqtMPr9lPuc3Psj59YEUBbqc5SO9ZJyPzEQf5OvKZ1Djynqju5Tn9L1GefxjOnhIukB8lW6pmUSluozuXEqH297req+TTkjXiasraa7Ek+U9cxlOc6vG8vd+QScOfUJdev2xM9Qt26kuIM7tSmfdSLcY3U9Ua4b4e/K323rLQtJKgj9j1mS4LOr9S0NotOsxqyVJX+TLK6nxYbMl9trl2Z3uGSCswmhJoW/20qXhYfvYCzId01rdtSEoTmSra2U7maKTtW53jFbdTU0vyFMhTqwfqqPG2kqK2G4Uavun+VjUGqfoUpn/2vIkbnylZVqpw9RsG3hJ1ZrK+fHNIbENZ86Wm9NeeTGbdHHmzmt06AB2v2Weq+cI0350dxlrS5Rcsz71HFPhn2G0CrtdXrMX6KutBV0uxFdfbS2E6oEj+bN3jqTGmwZRxFYwlqk9h9Hau4f1+dzau2PnzQyljJ+xaBjV2c5joDG959o7i2j1PLPSwXDyM2rWYSHnZ91GpiCNTxd6gZpts1pcpKPG0C6DqJ6/L35NcPjVzdNTmuZKOvGXHdVRc/pRUXYDh21vVY70tv5yn+jYS826cHwvp0fWrigylWh8+k5OV6zjDITdzsZeMK+2Fqy5MF5t6xbTRms4zES0jvfHBZV4uPH+GleqdNpnwMponRRwLGlg4ONMhx4wVIWL7M9WYcDntUBaICSn77tf3m/el2Q8C6nAsp0/n68x7sMiWr3EK5OfTniGF5FpW9NqPWHa3azOT8ZR4LxWXZXj/Iz8Fp9fXhViEvmnGkeeyzZOV7bzkSllno/MRG/n66rnTaOo8TvldGXWXNcKQF0mf2f3Ier+ggv2RVfTsrtvprmTh1vK7MOpdPLN9H8smUnL7hqXWH/sIP3+EG/zxVfpliWz6T9ZtykZR3Pvnkm3FMn7nfT7XWcS79FZOnFC1o+l7/H3xesKSobT3Ltm07IZX5WBI8yF/5fYjnmsj78vFRg+7w+gT+hdfczfnUg3lFje4/3fYDkHp96OP2NmH6N8wvHXJxVrAMkGTLn+Bv4FFYDxMxKVCk5dhyl2rIKiU82ppbznm07W2bqf1j3u/oRBz4vtSeYR37DVZX891NlVRGWu+3Ueo8KJpDmfdjKZ7qq5bBHVJ50f8wsXpZOPc59tvnOn4POMO8XnDg8w/3lOSOaXC5Kb0+1jG3a7LKueN5rqU5aAzCk13WesYKOGcIF9sMc1IFNj2meeiNyUouB9+oIxW4Xenz7G2K4T8Sk/9XekWpcR3/MSbuEy0FIZ4cYjLK8eRhtnWio8LDrf7qHmEUUcBs5t9b6840eHiXyH53SfacZfpuzXXIprq7/Io/tEZAHfM2dxAVKm2wxc6Oa0JV5Yd8Npw2OcNiSN8xB2O4tyTmPu9UpjDtP6++wzEMgTfCkguzrOn5cpV9WfJn2MnG4e53TT9VgDHKcSNHz15zzxsbY8w+m7c5++4SFSHGua4RlGZMF8qv10X+DKCZuUeQpnPiSR73HN2zCdTzCmZk8xM0Y6n9U882rS1eJxSyvZUPlIU5jjEp7HpvnkIzMLz97N11UvqeffvfrD5TewcNhFevPPlueiYyfS/76kkrzryM/Rnqd20A7blMbDafbdM6nKcyO3bdjkm+m/3eFeEDj5+i76ffFMqrnaua3el8d3srG3zaa7vzXU+I5/eeWMWuvge55d1PzwG/TVwRfpV2ecDyR6N/6c12m61zlALhTOmBRH9tKKB7ZTS6t16iU17sL9++hoWiOKSyUCZwYe4B+hRwWFaN/cRIvVPo2nC1qX3q81YbHg7153/3pa9eRh3o9ax6RCZL1HoiMDYDo/L9+zXrpx8I3Cc8qpIx9Ssy1MkpWVVtDCpYuosUqtSNJGm7fwd5ROo4badGptK6lWbmp+U2zlWkcbrQlTgAi7XT46+Rmt+NVZijlmteiUyoZd55MyvO1vnqLF/PmWdjVGhcbbx94+S6s2JSoo+pSc1xM9tP7tC3wuap2Bj7udjzNpekthTnG5is87Fngb9gG/t8uxHw6/9b86YVQu5HQq0TTjL1PSSkWHTSfHd7+voBAFf5/oVq079lNMuirEcdp0kNOi++wFgoSw21l0cNr72Hbe3p7OdEohvmlf0vW5+6kmtT9HWr2T95dUQWHB37dOt2CxHKu0BlgfsIIiHe0vcvouXXsOOtJ3Pm59rK77lPC4bxOt32k/zsBhmmZ4htH+4tZwFRRC8lo/5PPb4siPyPlxoX/VDz3yMH1I8mqr5HjV3wYp/L/lmInDNx+5lTbnYGrP0PnIjPVuvk5aGel7TOfObR6/gXg7AqJj79G/PPwKNb/WRd18qV76Qi/nqLstRk88vJN2HLN83ljO0o4nWuiJ37TRocDb8PLHN3kbx366u6j5f7TQv7xylo6fOGesM8aXsG4njSTc1jvev+T1vixynv8jxsdr7kMv3bz/Pb85RH+If9apd+OvfXOMYrbfO0DfK5yWFL5S1zz3T+q8ya+mtZiql0srDE44fGtG0w/D6uX17q07AAAA+kC4lioA/VH+5OuSWlJA3LddW1KIPog/1aobLSkgH+COUchUvzPbIJxJfFph2HRT0wbpjyr9J1P3kZSmYWbFxzZUUAAAQF64qsSnaT3AZSW/8nWW9gVYLIu33o8/c5y7Htr3JioooO+hkqIfKLt9LjVWJY+4HZHBOuMDbzoH63QhTSGly4keWEqtdor3XWvdjppWAADofTKoZtSe7snAlWa/eM5kv4O0CQD5ugLXm/GnZzxsjeHhI+QFdPcocGbTLvWHl6SBmVKQwaWWFVEzb7PbZRu5GTaUxWiFdUAqAACAXuI38KWMDbHiKaRPAHF9nK+T7h5v/QXPRd3M+IpXdw+LnMZfMW8/nRpur6AyGQvv/swH7wXIBlRS9AORqhlUe0cFlZYW2Uat1rN6vL6nu38MEAkAACBkys55c6lmkiXdk0Evd2wLP2gkAOSEVFLEMCaFq5s9x6ToLeZMIqWt22nd420oL0De6CeVFAAAAAAAkG9QSeGt7yspAPIT7hgAAAAAAJA7bqNGYgEAD2hJAQAAAAAAOSEtKQYOQHHDC1pSACRDJQUAAAAAAAAA5AV09wAAAAAAAACAvIBKCgAAAAAAAADIC6ikAAAAAAAAAIC8gEoKAAAAAAAAAMgLqKSAZONn0NqH51O1+tMpUltHa5dXqr8AAAAAADKE/CcAKKikyKpiqnu4njY+XUd149WqQlM1n9Y+NI3K5LXPOZRNnUMbkVD0kYFUt2g0bbx7JNWNUqtC0981mtbeNEitAwDId5zeruT09lFOb8vVqtD0d9XT2gVI13pHNvNL+rs4/moRfwUL+U8AsOjnlRSJhMu+1Bk1tXVVxepzYJAa7KUVnEAcpvX3b6XdR9R6h/bNTbRqSw8RJxRraxGGpkRhf+OiIRRRa+nqYeY6XhqvVutcRK4eQo2LRsY/KxUQjTcNSnxProwaRNNHmC/Lbhjk+fSi76hwtYYp9GOZ/Y4gX6hC/8oZaf1uI9EZ1LiyzqgsMJc6alxQmfvffvk3afoY82XZrG/k4X0wXHheNsZz/JWaL8tuz9P4k7zow0Hir5IaVV7VK38lrQn83i9IyH8CgMNl2pKiiMpKK2jh0kUBE43LASeiy6QGu4daHuAEQq31IgnF+lbJEMzt21Yj5ZygLwkRh2G3C+L059SuXiZcpKOn1EuH6nkjafXMwRQdcYVaI66g6A3DaPWiYbnNcJ28QPtOmy87376QMt4Bek2av6OcyMf7Sz9VvaSOVtdNo+iYIrVGFFF01hxavdK7+XdWdHxI+46bLzt3fnTZ3gcjC+ZTY7QAC35HOP66zJedW/pP/JXdPj0PK1xyoUDznwCQU5dJJcVhWv/D9bRYLw9sovVbDlOnvFU6jVajooIitXNpYakk8NuoyaMG22n349spxpnIhcv6Jvwi0fm09t45FB2tVgQUdrtciNw0kuojUjlxkWJv99CqJ07QYll+dZZiUnkwYhDV57QVwefUtMnc54o3L6h1ANAf7i+FIrKgjuonSeVED8V2bqJV93E6LctjnMZI5cGYCqrPaSuCbmp6xNznihfb1LrL0QiK1i2itQVXwcbxd7+Zv1uxuT/FXwXVXAatBQox/wkAuXd5tqQ40k27N2+lFQ/sj1dU1FYZ71ymKqn2ds4gdu2ndZu71bog2mizNLvr7fArrzSavq6uq6Cy44ep5Zm9Lk9cXYTdLpDPqUO1SLA5ddG8xlwNotobzNYTsV2naM2blifHJy/Qmk1nORFmIwZT7WXbxP0KGqe6o0AfGyVdkswuF2tvGqhWZluY31GW5eX9pdCMpHGq+0RqnP7MMltPxJqaaM2L3Ylw62ijNY9IYYSN4XQmaqy9DKUTnuG1v7iN1h/sobJJ02i1dLUpxFYVeYnjT3VHCaz1sHHd9//WFL2c/xw/gxrj45fg+gbIZwOmXH/DJfW6ABRTpGo6NdzBmUB1w+9s3U/NzXvp45vqaPXtRC0PNFlqYqUf4CJaWCotKdybkEnfvtXqBrnqfpdM5XjOeNZEafrUInMwH9bZdZiaN7j1mdP7kyZrTfS63HyXRSlaambAqKuHYi9sozV7HDdi6YsngwV5HYPje91qmiNV823h4qZzyyZa4ZYI8LYbl1Z4v+9HH3vrdlr8eO6fYMhTygYpBPDrzoPbad1TbYEKAmG3S0f1vNFUH+Hvf7uHVrz5ubmSC3Zr7xzM+71A6584a78GpZ/9zEFEp8/Tqk2fuR+P62ek334RLRxxkVp+dYqvs0FUO3tIorvI6YsUaz1Laz5QxxCnt1N/OtiO28uoQVQXHULTI1ckfg+nL1DzDj63k2qFq4EUuXowNUwdSGXxbi1c8Gz/jNa9fMF+7nzOa6cO4s+pv/20n6XFvH1mVLiQDuOBHJfDqMZ6ju3n+Tg94kh4hMu+1vPU5IgH8zqR6+E8lfN+FuqWNFJR9QEfS9I6YzO70PEQnr6+Tea115SDfaX9O8qifL6/SGuD1bM4jXuM04AOXiGVIvM4bZpkSZs89i1jPdTOlq4UagX18GdjKY8zre2kBclsDoMghWk+zsX8HQbebiOHHR3n9O8Rj4od189wuriS08UxnC5ymBjp7Q84vdXdRY5zeruD09uYM03T26k/HTp3cjr4Yop00C3sj3O+4BnOF0jceOI8TJTzMLNHcDip4/QK07DhmQUS7w115gCGnQe58PhUsAq3SBVfL3fw9RLPh/C5tfK5cd4gefuQ+aX4dupPh0D5mLTydVY6D8rxp4/T6xxlEMgUebI4W/5JxqSYQ1Fet6ozauRPneek862e5+pxfvte2EdNjvCsXl5P9VMlj7yPypfPpYW8jZxT7MkmDnsO66R1xmZ2ocOT9XL+0zxf9Qefk1eeGgD6XgG1pDATptUysI7lpl82dRrVP1RHDdPUijS1v6m7fRTRVcaaBGNwoofmGDdofeMVMp5F/UP+tbDjajgR4W3jCa7g11EZByPLoxJXL+d9OcIlHdU3cuaPb9b73kwzgRC6L+jUHA9WZX1KKQlLEydoKTLYhrDbhfDx6YvGv109lkLpyc/J6CrL731srEiorjBn0+hsdxTSrfQTZC7YO69PMS46klbfOcw+ngW/js4soo3zsjtbh3RN2cj7kgK07fcgXVLu9Hm6zgXqxkVFtHqmVDxYjpP4eyLDaLXLLCWBKiiyTcJYHat0wbGdY2QwrXbtdiOVCt7hspDjwX2gx4FUIxUjRmWE4DibOoS/y7FuZvKYJKHjoUCk+zvKigK4v1hJhcXGezltshSShby271sK5HJ81ooGwdtNmmM8LXefGSPcdoEK1A7VUyT94fvggQ+9w+0YFwTlXy7Yu94H53EaKF1srONZ8GvpurBxSXbTW8+wly4p93K+YIFHvoCvlcaVnIeRa8V6nD5hGiY8s6E9tpdW3LeJWgK3qpD8GV8vS60VFILPbSqfW4oZPHozvxQ6X8cF8cZ4HtQRfx7nGDZPZhg7kmhzLM3WFFKp4H1+Mg5bo2urgxFUIxU/RmWE4LC/YwZ/l2Pd0uSxYTLJJ4uCyH8CQJ8omJYUidpPqc1N1I/YeVkAABTASURBVK5Hxs+g2mU6YXTWipoVG34tKRKfcWyraneN/W2J0ebNiYyn0WpBEirP/Zl/6VYeZk1yMVXXzqV6abXBYk+uT9RIZ9KSwnKcLRwuupZcnmg0cIbBGCnZ89xFkDDyZ9bqO1uxZE8+P920Ua0eYrtOWJ5+O5/Sa4lWDfbPO+nPWZ9cJ7YV8pS/OfaZeoI+kKpvGkb18W4kft9tkkLvav68b0sK3aLDGDvjM9r8ZqJiJcLvNUgFhOvTdS703z2MjFbapy9Qi61lgRzrYKq5YRB1eR6n2t6vtUnG7OFptBLYdTZ+nHJ+UsEiksJThYvZiuE8x4H13HQ82J/+J1ok6PCy7j95nW2foeMhC6S7x2wZ4JWvuSCtbsJS5xjsd5S5Qrm/mC0piih28DBFJ/E9/zjfs5/ZR7s7dOa+mCLl3dRueZKvtzHSsSZLqwKpXPkBFyyMQjB/z332e3/Y7RK4QPcoFzr9WkcYOP1RrRpiTZwmGv063OjPcTqnW5JYthXyxL/5ZU5v1XvVCzi9jXcj8ftukz5n35YUHOdGiw4Jl52cL3jRki+IXw/WY9RUeMhL6Qq0Yx81xVt4yLFOp5pZFdTleZxBwzP77Ne5e6sK/WTfCBdL/sx4wr6MrxcjT+TMY+i8h/lX4PySB30Mvk/kQ+XrBIe/tG6Ql10cf7YWCXKsHH+3c/x5Hqfa3jOPZ2X/LLmcl+e5qvMzWzHwveGI9Rh1eNrjwZq3Ns/bGi/J62xxETo8Nf29zmsjuLTzn5zfblRlhlCtNwCg1xRGSwq+qdRYbqLW5n/tR/bSmvu3U0yN7BxeEY0bp17KjfMOufHKDZn3Z7nxivY9W2nFk4f5VRFNv8m9lti4+T2uE1wh42CoqZNY9MbsPB2IqEfOcpzWZnzte/aqY6ygm33766m+kl09GT6htIZfFpVLs1MzoYul85Qy7HYZ85h9wHWmApHZbAVGYfFlXUEhPqfdb56iVW+bT6OjqrVGZriAOFUX0mXsDHvLj/YPztKKXdLl4gqa/g37U/zITUNUBYUULhMFf5McK2/7q56UFSm95rRUKHAB33Kccn7r1QmXFjlaKfB7q351glbwuSUqKIQZD+Z2A6nc0VJEdL7N4WHE2+f0ersZX9Z1yWMzhI+HrDj5Ga2JD7KaowqKuHR/RyEV3P2Ff9OTuBDCBenFj3CmPl5BIewVFMYxqooGKTTbuj10tFHTI5uoxZjRooJqrE//w26XkR46eky9DMGoWODCc6KrBae3L3J6u1Olt1Oykd5yvmC2yhcYY2c48gUxzhc0qXzB9fZwiSyIqgoKqWTYaqmgEHKsvO1jm1JWpAQjFRoyfWvqpdE4KH/GeT223YhzaVXR4Ixzzp81GIXf5PwZHeHr5X6+Xoz8mfcgkL2TXwqfr4vUqvgzKg44/qznaBwrb/sAx1+KipQw2tNpTcHnsOqB9bTCmMLTeYzmjBjSaqLcpVVLYtDKbnp9vxnu1nUdSb/PzPPJfZL/NMoMepBVaxgBQL4pjEqKcaoZWWvMo6b0FB1Vr7JCz7nNCdJmr0Rnz0dmwjHtmy5NwL2brsW7l4wd2WsjEpeWeSUQ2dHe6TbSXfaFjeOsXht+uJC4WAq4tifYavaMjMdNcHOR9n3kXlhs/+iC6iYyMPPrbNQgmi51YafP02avyoQPLpi/h8ggy/4G0reMrgsXqWWHz9NvW+G+L8lxuo93oLsguGnX8T1qIFVfPYQa542ktYtGGgNMmi0mrqBxI41P2Ni6MyjWdUn7DB0PBabXf0emvL+/aAe3px4zQYxV6eZBTjdtT/W1bmraIYUIvl6us6RjYbfrM5zevuOR3r6j0tvRWUhvyzlfIK02jnO+wKsyIabyBbZwKaZvXacK8X6DqdoqnApIyvwZXy8vqOulL/NLofN1HH/TVPxt8Ik/W6VANqkBIgPO9NGu42B8MVVXzaDG5XW09uE6Y6BIs8WEe4G+qzP5+K3rPu40Ky7iMs4nZ0dv5T8BoPcVRCWFbi3Q2ZnLCfJ76KjObepEV6Yn5Ru73NyTF9X0L6xS97616dI3aKOvoLV2XPpPGs3w3BOfgtGxl9Y1SUaliBYaU6NVBkvswm7X69wLsFkj4yyol6GNVGMfjBhMq7ngLYXv5EV16bDRM3N8Th22Amf/EpGKCZn14s4iqp85mKIyVoRt7I0sCR0P4KkA7y+dnwZLByMlKt30+7zLWA9ht8sMF5zGqpe5kI3j1JU3Y2SMBs4DuC5u+QI9M8dp6nCt9Mm2Nlqjp3BNsQRpuSHdPWRKXelWY3T3cFSQBcqfHVXXS9h8TzbyS6HzdXpmDo4/10qY3EunNYV09TVmr3hoEdXLGCEyVoRtDI0s6Y18MgBc1i7PKUitdG1wHyZAGdmzVTXhMwcpiicOMgiVrG7d7l3LnSU6k5Ir9uamaoCxAFOjhd2udySa8yd1IbDST8/7eUG/YBnjVZjjNEhXkdjbZ2n9r3poFS/SLUJ3E4H81T/vL4WimzpOmK9KS3zCTrdi6LWCPhjN+ZfUxQeFNbs19e54GKDZW1N4th6omp8YvLTrMMW2bKf1D2yiVbxI9wYzr9i/5Dr/CQB9p6AqKcrKsv/IOXKTJMCs9aNEM29d6y/TGvGN3XdJOQiSg659zrgPnpXqP2j8v8aZCk6gVrlO/WV1io5Kf9GMn1RYWqLkgtEXej2tSvfpZdjtesHuw2bTdb+m+ZFvyECILN1ZDfRT92zMhqBnGJHpPrng7bu4DmroPiZDWrLRIiTrBlGjGsSyZVcPn/tZY5wIGZuiPRddWDKOB/DUD+8vWlmJT7qpWwccT06Pwm5nE6AFw+4/pO46ErlepdOp9ucU9DiD0K1HDnK+wKVVgm1xHdxyBJW7zqSShqy1XPFntJ54dJExg4m0nlh1n2NsEhe++bOw+Z5s5pcyzte5j+WQlgzyWfHWFJ5dJ3Tr2R5qeXITn8NWY5wIGZuiPRddUbKSTy6Q/CcA9ImCqKSI90v0mmZovG6Ol6b4gE9EsbcscyzHpzWK+k6b5c1rEJ/EQEOd+y3TrR05ZU6v53GjjtTOjY+AnaRqvtHPsEUGS7IlDMkDGbnTAyKFTYB1f83eaYmS9PRy5XyPKfTswm6XU2r8AGm+X+s6TeUgqtWzdLS6FTq9uookBlj0nd40qJMXaJ88uIkMSZoq1N8FesPY+RW0cLbb9J3KqCDjZmShoiNXTl+g120Dgmp8zOpVVoSOhyyR2T2kW8vdhT/NqZf+dH+Jj8cwidMx12NJDARpnf4z7HbuAhTM1TgO0o2i1rVteCXV6lk6drgVdry6iqRznAF0cL6A49c7XLy00RsH5d8iWviDGd73uvLiAPfBLFR0+Cqm6jRbTyTyZ175JY98T1ya+aWwQufrOP6MFggcf8t84m98wPgLXdGhWlOU8u/kRrXKTddhet02sKdWnN30KON8suiL/Gel2R3m6Xpam+XpbQEguwqjJYW+GUqXhoftYy/INEdrddeGoGRAoVrZTqboZK3bHaMy64GeOFF6qI4aayspYruBqu2fTp4zWosulfmhLU/UZCqu+LROh6nZNqqwqk2W8+ObZmIbTqSXm1NNeTGbunEi7zl6cmq73zLP1XsEZh+6u4y1JUquWZ9ejqnwz/hZhd0uZy7QGmM2Br5eZo6kRi74xY9n1CAuEOqpO70HSozOlAKjpSUGb5eYzvICNWdlFobPqanVnDVi4Z1ynLw/WyHZnG5z7d3Dkn4Pu2PnzQysjKPA51N3tbVwy+d7NW93ZxGtnuc1C4m9oqPaul9joMo8KCzzuTVY40Cfl8RDVi+w8PGQDdVR1a2Fld3AcZmvlUaZ6i/3l4691KwLx/dyOmbtiiJTican7+T0yDrOQNjtbOwF82pr6YgL49W2bjFttIbDTETreH8LLIU93l/jSpW++wxYGa3j9HaBJe0MfJzp0AOGqnCR/dlKfXxeC6QFQnK+YPfL+837oIxnIRVYtvPn8zXGfVhEq5d4FZrSCc/wIjJtaxqtJwxH+HrRhXjJL1VZjsU335OQXn4prPD5ut3NKv5k/AXOg9ZZz1Hiz8iHcvx5FnrtFR328cN4v7bv86ZbU0SnmpU3rvgYG6xhqY9PwtMYODNbMs8ni97OfxoztRjXFadjGVWwAECuDZhy/Q2X1Ov8Nn5GolLBSfreHavgG7c5BVZihGku5McTOncyN/e6x92fFCTm/vYg82Vv2Oqyvx7q7CqiMtf9Oo9R4UTEnG86mUzP1Vy2iOqTzo/5hYsic2bvs83r7cQZQRngSM3Lnc4TCx1GQeYxzwnJxM4bSZtTPO1JEna7HKjm46g3ZsFwIVNiyvSW6k/TQFURcZE6T8sgjWq1zUVq+ZVzhgR3kZtG0uobrjCnM/Wp1NCf88THKrNjJO1z1BBae+dgn2s0xbH6bi9ThrrPyBFcIjy9jsMrjHzDROKOL676GwZRbNeJ+DSr1fPMWT+s6/T3pFonQsdDhvRxm4JfXwUtj+4vkQV8r53FBUiZbjNwoZvTpHhh3Q2nKY9xmpI0zkPY7SzKOW261yttOkzr79tq+93KE3wpILs6zp+XKVfVnyZ9jJzeHuf01vVYAxynEjR89ec88bG2PMP5Auc+fcNDpDjWNMMzjMiC+VT76b5glRM2qfJaLnmXTPJLLnRexJjO1KdSI/18nZIyr5XiWH235/j7oY4///yY9fid5+p7bnxe6/dzenR7hS2/Vr3cnPXDus4tX+e2ToQOzzj/8/XjdUx+nMeb6noBgL5zRcnYsQ+q1/ntzFF6qfUMXTmiiCaUfkWtlHEX9tC6dR/R8JpJNGHoX+jQKwfowBn1Ng2myXNkvfozThLFY/TLR7fREy+1kccQRHT63QP0rNrnMN5n/Gu6eL+7Zb9v0KvxfQm1vz+9R/9w/69p+4limlhWREPVhlIh8ssNv6UtbjfrTz6ktxyfNxKVR5voidfO04CrvklzKslxfuzMX+jP48toejxMkg0dymEWnUQVJ/bRa5+olTYnqfNK/v5pX6eJVx6ml949r9anUklLV06iMk5c1j111DMcc+rcSXrt7RD7DrtdDhz56M/01tkBVFT0JSr7sm7cdJFib/+J1r18nt5RaxK+RJMnfYUm/OUv9A+bTtP2swNpYtFAGvpl893O9vP0Sy6kbglYgBxR/hWaM/ZLdO7YX+ilji/U2mSnO/5Mz7ZfpCsHD6RhI76U+D2c5mN93zzWV/+s1ln9+f+jl2L/Qcev+BKVfzlxnHKOne1/4nP4k/t2mmzP+60oG2gJHz5PLozvfP08bTnlfczBqPD88iU69N6f6YDLsXiFkYTJW47wNyoJXj9HD/7+z3Rk8CC6q2IgdXGcvKYGvx//jSHGYKjWdfr7U60ToeMhQ0dOD+A4uJLjgMP+7TP0Tx9mGu4FII/uLyOunkxzKr5C5w4fpJc+CHqPPk8H9uyjt05eQUUlpVQ2RK2WNPDgHvqHR35Hr55Tq2zCbmdxjtPsg2eo4htcAB2SSJ86uRC/8/l9tKXLfg5H3j6g9vdly+c5rd3Jae3Tb7jcBzm9reL09jNObx/h9PYkp58lnH6qY5XWAL98htPbABUUImj4nv6A8wV8XlcO43zBGEu+4Dgf6xvmsbqGjYTHy4fp+MDBVD4kcZyBwzTN8Azj9Acf0muhvoevlx18vZzg+Cvj6yUeKHxurXxu9/O52fJKIoP8kosRkzj+Kjn+PuD488nDpJ+vUyQP2szxdyXHH+ep4vk033O0UHnYigkcf0Mt8cf5vJ0bOf4+0cc8iqpqvk5lf+qi7TuS7yGn3/0PqpD3+bXzXOXc3PKRLRu30YNP/YGOFF1Nd0WLqGt/Ii84fsZ0ozWCdZ0Oy1TrROjwjOvd/KcRfjdz+KkDTXW9AEDfKZyWFL4SNfJBa937B3Xe5FcDXUzVy6UVBieGvjXG6YehWQN/uYV5/+PVSgAA4HIRrqUK5Av9hBxPxgtRH+Q/VetlXC8A+augZvcAB9Ufz39QqW76uNOc/cNfNzVtkH6X0r/Qvw+hkAyBWfGxDRUUBe6qET5dBwAALgNXlfg0WYe8d1UZ4q9w9X7+0xzPrYf2vYkKCoB8hUqKfqDs9rnGYFWJgZJMERl8Kj7wZoDBp47spRVPykjdaoBStdop3qevdTtqoAuJDKp5tX0mDRng0Rxn4CLt+witKACgn5NBNaP29FIGrqyfJK+40PIO0rS8JvkaR35HBoaUQisKnQWsN/Ofema/1hgesgHkMXT3KHB60CNfKQcucpABnpYVUTNvs9tlG0kkGspitOJxy7StkPf8BlzsbD9LK142ZxoBAOiv/Aa+7DzIBZ+nkK7ls3gh1UWnFFyRLylsOc1/FvP206nh9goqkzHf7s98sFkAyB1UUvQDkaoZVHtHBZWWFtlGjtazesic2dkaYR4KmEzZGR1GNZErEteJDLbYepbWfIBWFABwGZApO+fNpZpJlvRSBr3csS3ErBbQ62TKzhqOv6mW+JNBGl/g+POcwQxAmDOJlLZup3WPtyFfDJDn+kklBQAAAAAAAAAUOoxJAQAAAAAAAAB5AZUUAAAAAAAAAJAXUEkBAAAAAAAAAHkBlRQAAAAAAAAAkBdQSQEAAAAAAAAAeQGVFAAAAAAAAACQF1BJAQAAAAAAAAB5AZUUAAAAAAAAAJAXUEkBAAAAAAAAAHkBlRQAAAAAAAAAkBdQSQEAAAAAAAAAeQGVFAAAAAAAAACQF1BJAQAAAAAAAAB5AZUUAAAAAAAAAJAXUEkBAAAAAAAAAHkBlRQAAAAAAAAAkBdQSQEAAAAAAAAAeQGVFAAAAAAAAACQF1BJAQAAAAAAAAB5AZUUAAAAAAAAAJAXUEkBAAAAAAAAAHkBlRQAAAAAAAAAkBdQSQEAAAAAAAAAeQGVFAAAAAAAAACQF1BJAQAAAAAAAAB5AZUUAAAAAAAAAJAXUEkBAAAAAAAAAHkBlRQAAAAAAAAAkBdQSQEAAAAAAAAAeQGVFAAAAAAAAACQF1BJAQAAAAAAAAB5AZUUAAAAAAAAAJAXUEkBAAAAAAAAAHkBlRQAAAAAAAAAkBdQSQEAAAAAAAAAeYDo/wdbemFIQjjqYwAAAABJRU5ErkJggg==;" vertex="1" parent="1">
          <mxGeometry x="1890" y="940" width="1065" height="581" as="geometry" />
        </mxCell>
      </root>
    </mxGraphModel>
  </diagram>
</mxfile>
